<?xml version="1.0" encoding="utf-8" standalone="no"?>
<!DOCTYPE svg PUBLIC "-//W3C//DTD SVG 1.1//EN"
  "http://www.w3.org/Graphics/SVG/1.1/DTD/svg11.dtd">
<!-- Created with matplotlib (http://matplotlib.org/) -->
<svg height="504pt" version="1.1" viewBox="0 0 725 504" width="725pt" xmlns="http://www.w3.org/2000/svg" xmlns:xlink="http://www.w3.org/1999/xlink">
 <defs>
  <style type="text/css">
*{stroke-linecap:butt;stroke-linejoin:round;}
  </style>
 </defs>
 <g id="figure_1">
  <g id="patch_1">
   <path d="
M0 504
L725.4 504
L725.4 0
L0 0
z
" style="fill:#ffffff;"/>
  </g>
  <g id="axes_1">
   <g id="patch_2">
    <path d="
M89.9496 219.424
L328.168 219.424
L328.168 50.4
L89.9496 50.4
z
" style="fill:#ffffff;"/>
   </g>
   <g id="line2d_1">
    <path clip-path="url(#pe96c00adc2)" d="
M123.981 181.335
L127.253 179.417
L130.525 166.357
L133.798 165.448
L137.07 159.222
L140.342 162.183
L143.614 158.693
L146.886 173.554
L150.159 177.789
L153.431 167.987
L156.703 188.937
L159.975 185.236
L163.248 173.711
L166.52 186.176
L169.792 78.4866
M186.153 197.241
M241.781 216.174
L245.053 216.174
L248.326 216.174
L251.598 216.174
L254.87 216.174
L258.142 216.174
L261.415 216.174
L264.687 216.174
L267.959 216.174
L271.231 216.174
L274.504 216.174
L277.776 216.174
L281.048 216.174
L284.32 216.174
L287.592 216.174
L290.865 216.174
L294.137 216.174
L297.409 216.174
L300.681 216.174
L303.954 216.174
L307.226 216.174
L310.498 216.174" style="fill:none;stroke:#0000ff;stroke-linecap:square;"/>
   </g>
   <g id="line2d_2">
    <path clip-path="url(#pe96c00adc2)" d="
M120.709 187.18
L123.981 158.103
L127.253 141.3
L130.525 135.253
L133.798 131.735
L137.07 134.957
L140.342 139.788
L143.614 148.616
L146.886 160.366
L150.159 168.154
L153.431 171.629
L156.703 167.697
L159.975 171.383
L163.248 167.208
L166.52 171.676
L169.792 172.185
L173.064 177.445
L176.337 179.581
L179.609 184.286
L182.881 188.333
L186.153 162.079
L189.425 171.214
L192.698 182.141
L195.97 187.663
L199.242 198.663
L202.514 199.682
L205.787 198.534
L209.059 197.76
L212.331 182.267
L215.603 187.477
M277.776 216.174
L281.048 216.174
L284.32 216.174
L287.592 216.174
L290.865 216.174
L294.137 216.174
L297.409 216.174
L300.681 216.174
L303.954 216.174
L307.226 216.174
L310.498 216.174" style="fill:none;stroke:#008000;stroke-linecap:square;"/>
   </g>
   <g id="line2d_3">
    <path clip-path="url(#pe96c00adc2)" d="
M120.709 194.13
L123.981 183.113
L127.253 154.564
L130.525 140.143
L133.798 145.081
L137.07 138.631
L140.342 147.924
L143.614 154.071
L146.886 164.037
L150.159 167.465
L153.431 165.725
L156.703 167.828
L159.975 163.481
L163.248 169.954
L166.52 167.635
L169.792 172.073
L173.064 165.882
L176.337 169.454
L179.609 170.584
L182.881 167.626
L186.153 172.22
L189.425 171.261
L192.698 175.528
L195.97 180.85
L199.242 173.951
L202.514 182.389
L205.787 184.038
L209.059 182.162
L212.331 184.599
L215.603 188.108
L218.876 181.144
L222.148 186.744
L225.42 190.628
L228.692 193.272
L231.964 189.933
L235.237 184.362
L238.509 189.87
L241.781 200.215
L245.053 189.63
L248.326 199.959
L251.598 176.365
L254.87 197.015
L258.142 193.055
M277.776 216.174
L281.048 207.922
L284.32 216.174
L287.592 209.898
L290.865 207.72
L294.137 207.84
L297.409 207.02
L300.681 206.369
L303.954 216.174
L307.226 216.174
L310.498 209.632" style="fill:none;stroke:#ff0000;stroke-linecap:square;"/>
   </g>
   <g id="patch_3">
    <path d="
M89.9496 50.4
L328.168 50.4" style="fill:none;"/>
   </g>
   <g id="patch_4">
    <path d="
M328.168 219.424
L328.168 50.4" style="fill:none;"/>
   </g>
   <g id="patch_5">
    <path d="
M89.9496 219.424
L328.168 219.424" style="fill:none;"/>
   </g>
   <g id="patch_6">
    <path d="
M84.9496 216.174
L84.9496 60.1514" style="fill:none;stroke:#000000;stroke-linecap:square;stroke-linejoin:miter;"/>
   </g>
   <g id="matplotlib.axis_1"/>
   <g id="matplotlib.axis_2">
    <g id="ytick_1">
     <g id="line2d_4">
      <defs>
       <path d="
M0 0
L4 0" id="m728421d6d4" style="stroke:#000000;stroke-width:0.5;"/>
      </defs>
      <g>
       <use style="stroke:#000000;stroke-width:0.5;" x="84.9496" xlink:href="#m728421d6d4" y="216.173921201"/>
      </g>
     </g>
     <g id="text_1">
      <!-- 0.0 -->
      <defs>
       <path d="
M25 -2.20312
Q12.75 -2.20312 8.32812 7.875
Q3.90625 17.9688 3.90625 31.8906
Q3.90625 40.5781 5.48438 48.2344
Q7.07812 55.9062 11.7812 61.25
Q16.5 66.6094 25 66.6094
Q31.5938 66.6094 35.7812 63.375
Q39.9844 60.1562 42.1875 55.0469
Q44.3906 49.9531 45.1875 44.1094
Q46 38.2812 46 31.8906
Q46 23.2969 44.4062 15.7969
Q42.8281 8.29688 38.1875 3.04688
Q33.5469 -2.20312 25 -2.20312
M25 0.390625
Q30.5625 0.390625 33.2969 6.09375
Q36.0312 11.8125 36.6719 18.75
Q37.3125 25.6875 37.3125 33.5
Q37.3125 41.0156 36.6719 47.3594
Q36.0312 53.7188 33.3125 58.8594
Q30.6094 64.0156 25 64.0156
Q19.3438 64.0156 16.6094 58.8281
Q13.875 53.6562 13.2344 47.3281
Q12.5938 41.0156 12.5938 33.5
Q12.5938 27.9375 12.8594 23
Q13.1406 18.0625 14.3125 12.8125
Q15.4844 7.5625 18.0938 3.96875
Q20.7031 0.390625 25 0.390625" id="Cmr10-30"/>
       <path d="
M8.40625 5.51562
Q8.40625 7.76562 10.0625 9.375
Q11.7188 10.9844 13.9219 10.9844
Q15.2812 10.9844 16.5938 10.25
Q17.9219 9.51562 18.6562 8.20312
Q19.3906 6.89062 19.3906 5.51562
Q19.3906 3.32812 17.7656 1.65625
Q16.1562 0 13.9219 0
Q11.7188 0 10.0625 1.65625
Q8.40625 3.32812 8.40625 5.51562" id="Cmr10-2e"/>
      </defs>
      <g transform="translate(56.99335 221.173921201)scale(0.2 -0.2)">
       <use xlink:href="#Cmr10-30"/>
       <use x="50.0" xlink:href="#Cmr10-2e"/>
       <use x="77.685546875" xlink:href="#Cmr10-30"/>
      </g>
     </g>
    </g>
    <g id="ytick_2">
     <g id="line2d_5">
      <g>
       <use style="stroke:#000000;stroke-width:0.5;" x="84.9496" xlink:href="#m728421d6d4" y="164.16641651"/>
      </g>
     </g>
     <g id="text_2">
      <!-- 0.8 -->
      <defs>
       <path d="
M4.20312 15.1875
Q4.20312 21.1875 8.15625 25.7969
Q12.1094 30.4219 18.3125 33.5
L14.5938 35.8906
Q11.1875 38.1406 9.03125 41.875
Q6.89062 45.6094 6.89062 49.7031
Q6.89062 54.5 9.40625 58.3438
Q11.9219 62.2031 16.0938 64.4062
Q20.2656 66.6094 25 66.6094
Q29.4375 66.6094 33.5625 64.7969
Q37.7031 62.9844 40.3594 59.6094
Q43.0156 56.25 43.0156 51.6094
Q43.0156 48.25 41.4219 45.3594
Q39.8438 42.4844 37.0781 40.1875
Q34.3281 37.8906 31.2031 36.2812
L36.9219 32.625
Q40.875 30.0312 43.2812 25.8281
Q45.7031 21.625 45.7031 17
Q45.7031 11.5781 42.7969 7.125
Q39.8906 2.6875 35.1094 0.234375
Q30.3281 -2.20312 25 -2.20312
Q19.8281 -2.20312 15.0156 -0.09375
Q10.2031 2 7.20312 5.98438
Q4.20312 9.96875 4.20312 15.1875
M9.625 15.1875
Q9.625 11.2344 11.7969 7.95312
Q13.9688 4.6875 17.5312 2.82812
Q21.0938 0.984375 25 0.984375
Q30.8125 0.984375 35.5469 4.375
Q40.2812 7.76562 40.2812 13.375
Q40.2812 15.2812 39.5156 17.1562
Q38.7656 19.0469 37.4219 20.5781
Q36.0781 22.125 34.4219 23.0938
L21 31.7812
Q17.875 30.125 15.25 27.5781
Q12.6406 25.0469 11.125 21.875
Q9.625 18.7031 9.625 15.1875
M16.5 45.7031
L28.6094 37.8906
Q32.8125 40.3281 35.5 43.7969
Q38.1875 47.2656 38.1875 51.6094
Q38.1875 54.9844 36.2969 57.7812
Q34.4219 60.5938 31.3906 62.1562
Q28.375 63.7188 24.9062 63.7188
Q21.875 63.7188 18.7969 62.5469
Q15.7188 61.375 13.7188 59.0469
Q11.7188 56.7344 11.7188 53.6094
Q11.7188 48.9219 16.5 45.7031" id="Cmr10-38"/>
      </defs>
      <g transform="translate(57.052725 169.16641651)scale(0.2 -0.2)">
       <use xlink:href="#Cmr10-30"/>
       <use x="50.0" xlink:href="#Cmr10-2e"/>
       <use x="77.685546875" xlink:href="#Cmr10-38"/>
      </g>
     </g>
    </g>
    <g id="ytick_3">
     <g id="line2d_6">
      <g>
       <use style="stroke:#000000;stroke-width:0.5;" x="84.9496" xlink:href="#m728421d6d4" y="112.15891182"/>
      </g>
     </g>
     <g id="text_3">
      <!-- 1.6 -->
      <defs>
       <path d="
M9.28125 0
L9.28125 3.51562
Q21.7812 3.51562 21.7812 6.6875
L21.7812 59.1875
Q16.6094 56.6875 8.6875 56.6875
L8.6875 60.2031
Q20.9531 60.2031 27.2031 66.6094
L28.6094 66.6094
Q28.9531 66.6094 29.2656 66.3281
Q29.5938 66.0625 29.5938 65.7188
L29.5938 6.6875
Q29.5938 3.51562 42.0938 3.51562
L42.0938 0
z
" id="Cmr10-31"/>
       <path d="
M25 -2.20312
Q18.7969 -2.20312 14.6406 1.09375
Q10.5 4.39062 8.21875 9.64062
Q5.95312 14.8906 5.07812 20.6562
Q4.20312 26.4219 4.20312 32.3281
Q4.20312 40.2344 7.28125 48.1875
Q10.3594 56.1562 16.3281 61.375
Q22.3125 66.6094 30.5156 66.6094
Q33.9375 66.6094 36.8906 65.3125
Q39.8438 64.0156 41.5312 61.5
Q43.2188 58.9844 43.2188 55.4219
Q43.2188 53.375 41.8281 51.9844
Q40.4375 50.5938 38.375 50.5938
Q36.4219 50.5938 35 52
Q33.5938 53.4219 33.5938 55.4219
Q33.5938 57.375 35 58.7812
Q36.4219 60.2031 38.375 60.2031
L38.9219 60.2031
Q37.6406 62.0156 35.3281 62.8594
Q33.0156 63.7188 30.5156 63.7188
Q27.4844 63.7188 24.9219 62.3906
Q22.3594 61.0781 20.3125 58.8281
Q18.2656 56.5938 16.8906 53.875
Q15.5312 51.1719 14.7656 47.7031
Q14.0156 44.2344 13.8125 41.2031
Q13.625 38.1875 13.625 33.5938
Q15.375 37.7031 18.5938 40.3125
Q21.8281 42.9219 25.875 42.9219
Q30.3281 42.9219 33.9844 41.1094
Q37.6406 39.3125 40.2812 36.1094
Q42.9219 32.9062 44.3125 28.7969
Q45.7031 24.7031 45.7031 20.5156
Q45.7031 14.6562 43.0938 9.34375
Q40.4844 4.04688 35.7344 0.921875
Q31 -2.20312 25 -2.20312
M25 0.984375
Q28.8594 0.984375 31.2031 2.73438
Q33.5469 4.5 34.6406 7.39062
Q35.75 10.2969 36.0156 13.25
Q36.2812 16.2188 36.2812 20.5156
Q36.2812 26.1719 35.7344 30.1719
Q35.2031 34.1875 32.8125 37.2344
Q30.4219 40.2812 25.4844 40.2812
Q21.4375 40.2812 18.8281 37.5469
Q16.2188 34.8125 15.0156 30.6406
Q13.8125 26.4688 13.8125 22.6094
Q13.8125 21.2969 13.9219 20.6094
Q13.9219 20.4531 13.8906 20.3594
Q13.875 20.2656 13.8125 20.125
Q13.8125 15.8281 14.6875 11.4219
Q15.5781 7.03125 18.0625 4
Q20.5625 0.984375 25 0.984375" id="Cmr10-36"/>
      </defs>
      <g transform="translate(58.008975 117.15891182)scale(0.2 -0.2)">
       <use xlink:href="#Cmr10-31"/>
       <use x="50.0" xlink:href="#Cmr10-2e"/>
       <use x="77.685546875" xlink:href="#Cmr10-36"/>
      </g>
     </g>
    </g>
    <g id="ytick_4">
     <g id="line2d_7">
      <g>
       <use style="stroke:#000000;stroke-width:0.5;" x="84.9496" xlink:href="#m728421d6d4" y="60.1514071295"/>
      </g>
     </g>
     <g id="text_4">
      <!-- 2.4 -->
      <defs>
       <path d="
M4.98438 0
L4.98438 2.6875
Q4.98438 2.9375 5.17188 3.21875
L20.7031 20.4062
Q24.2188 24.2188 26.4062 26.7969
Q28.6094 29.3906 30.75 32.7656
Q32.9062 36.1406 34.1562 39.625
Q35.4062 43.1094 35.4062 47.0156
Q35.4062 51.125 33.8906 54.8594
Q32.375 58.5938 29.375 60.8438
Q26.375 63.0938 22.125 63.0938
Q17.7812 63.0938 14.3125 60.4688
Q10.8438 57.8594 9.42188 53.7188
Q9.8125 53.8125 10.5 53.8125
Q12.75 53.8125 14.3281 52.2969
Q15.9219 50.7812 15.9219 48.3906
Q15.9219 46.0938 14.3281 44.5
Q12.75 42.9219 10.5 42.9219
Q8.15625 42.9219 6.5625 44.5469
Q4.98438 46.1875 4.98438 48.3906
Q4.98438 52.1562 6.39062 55.4375
Q7.8125 58.7344 10.4688 61.2969
Q13.1406 63.875 16.4844 65.2344
Q19.8281 66.6094 23.5781 66.6094
Q29.2969 66.6094 34.2188 64.1875
Q39.1562 61.7656 42.0312 57.3438
Q44.9219 52.9375 44.9219 47.0156
Q44.9219 42.6719 43.0156 38.7656
Q41.1094 34.8594 38.125 31.6562
Q35.1562 28.4688 30.5156 24.4062
Q25.875 20.3594 24.4219 19
L13.0938 8.10938
L22.7031 8.10938
Q29.7812 8.10938 34.5469 8.21875
Q39.3125 8.34375 39.5938 8.59375
Q40.7656 9.85938 42 17.8281
L44.9219 17.8281
L42.0938 0
z
" id="Cmr10-32"/>
       <path d="
M2.78125 16.5
L2.78125 20.0156
L33.6875 66.1094
Q34.0312 66.6094 34.7188 66.6094
L36.1875 66.6094
Q37.3125 66.6094 37.3125 65.4844
L37.3125 20.0156
L47.125 20.0156
L47.125 16.5
L37.3125 16.5
L37.3125 6.6875
Q37.3125 4.64062 40.2344 4.07812
Q43.1719 3.51562 47.0156 3.51562
L47.0156 0
L19.4844 0
L19.4844 3.51562
Q23.3438 3.51562 26.2656 4.07812
Q29.2031 4.64062 29.2031 6.6875
L29.2031 16.5
z

M6.10938 20.0156
L29.7812 20.0156
L29.7812 55.4219
z
" id="Cmr10-34"/>
      </defs>
      <g transform="translate(56.983975 65.1514071295)scale(0.2 -0.2)">
       <use xlink:href="#Cmr10-32"/>
       <use x="50.0" xlink:href="#Cmr10-2e"/>
       <use x="77.685546875" xlink:href="#Cmr10-34"/>
      </g>
     </g>
    </g>
    <g id="text_5">
     <!-- amp. ($\perthousand$) -->
     <defs>
      <path id="Cmr10-20"/>
      <path d="
M2.98438 0
L2.98438 3.51562
Q6.39062 3.51562 8.59375 4.04688
Q10.7969 4.59375 10.7969 6.6875
L10.7969 33.9844
Q10.7969 36.6719 9.98438 37.8594
Q9.1875 39.0625 7.67188 39.3281
Q6.15625 39.5938 2.98438 39.5938
L2.98438 43.1094
L17.4844 44.1875
L17.4844 34.4219
Q19.4844 38.7188 23.4062 41.4531
Q27.3438 44.1875 31.9844 44.1875
Q43.5 44.1875 45.5156 34.8125
Q47.5156 39.0156 51.3594 41.5938
Q55.2188 44.1875 59.8125 44.1875
Q64.3594 44.1875 67.4531 42.7188
Q70.5625 41.2656 72.125 38.25
Q73.6875 35.25 73.6875 30.7188
L73.6875 6.6875
Q73.6875 4.59375 75.9062 4.04688
Q78.125 3.51562 81.5 3.51562
L81.5 0
L58.5938 0
L58.5938 3.51562
Q62.0156 3.51562 64.2031 4.04688
Q66.4062 4.59375 66.4062 6.6875
L66.4062 30.4219
Q66.4062 35.4531 64.9844 38.5312
Q63.5781 41.6094 59.1875 41.6094
Q53.4219 41.6094 49.6562 36.9688
Q45.9062 32.3281 45.9062 26.4219
L45.9062 6.6875
Q45.9062 4.59375 48.0938 4.04688
Q50.2969 3.51562 53.7188 3.51562
L53.7188 0
L30.8125 0
L30.8125 3.51562
Q34.2344 3.51562 36.4219 4.04688
Q38.625 4.59375 38.625 6.6875
L38.625 30.4219
Q38.625 35.2969 37.2031 38.4531
Q35.7969 41.6094 31.3906 41.6094
Q25.5938 41.6094 21.8438 36.9688
Q18.1094 32.3281 18.1094 26.4219
L18.1094 6.6875
Q18.1094 4.59375 20.3125 4.04688
Q22.5156 3.51562 25.875 3.51562
L25.875 0
z
" id="Cmr10-6d"/>
      <path d="
M104.797 21.2969
Q104.797 12.2031 99.8438 5.14062
Q94.9062 -1.90625 88.5 -1.90625
Q83.2969 -1.90625 79.7969 2.09375
Q76.2969 6.09375 76.2969 12
Q76.2969 20 82.1406 26.5
Q88 33 95.2031 33
Q99.7969 33 102.297 29.9531
Q104.797 26.9062 104.797 21.2969
M102.5 21.5
Q102.5 25.4062 100.75 27.7969
Q99 30.2031 96.2031 30.2031
Q92.7031 30.2031 89.5938 25.9062
Q87.2031 22.7031 85.3438 17.25
Q83.5 11.7969 83.5 7.79688
Q83.5 4.70312 85.0469 2.75
Q86.5938 0.796875 89.0938 0.796875
Q94.2969 0.796875 98.3906 7.14062
Q102.5 13.5 102.5 21.5
M68.5938 21.2969
Q68.5938 12.2031 63.5938 5.14062
Q58.5938 -1.90625 52.2031 -1.90625
Q47.0938 -1.90625 43.5938 2.09375
Q40.0938 6.09375 40.0938 11.9062
Q40.0938 19.9062 45.9375 26.4531
Q51.7969 33 59 33
Q63.5938 33 66.0938 29.9531
Q68.5938 26.9062 68.5938 21.2969
M66.2969 21.5
Q66.2969 25.4062 64.5469 27.7969
Q62.7969 30.2031 60 30.2031
Q57.0938 30.2031 55.0938 27.9062
Q51.7969 24.4062 49.5469 18.5469
Q47.2969 12.7031 47.2969 7.59375
Q47.2969 4.70312 48.8906 2.75
Q50.5 0.796875 52.9062 0.796875
Q58.0938 0.796875 62.1875 7.14062
Q66.2969 13.5 66.2969 21.5
M62.0938 70.5938
L19.0938 -1.79688
L14.4062 -1.79688
L53.7969 64
Q51 60.7969 48.3438 59.5469
Q45.7031 58.2969 41.7031 58.2969
Q38.2031 58.2969 34.0938 59.7031
Q34.5 57.4062 34.5 55.2969
Q34.5 50.0938 32.2969 44.8906
Q30.0938 39.7031 26.5 36.2969
Q22.7031 32.5938 17.9062 32.5938
Q12.9062 32.5938 9.5 36.5469
Q6.09375 40.5 6.09375 46.2969
Q6.09375 54.7969 11.8906 61.1875
Q17.7031 67.5938 25.4062 67.5938
Q28 67.5938 31.4062 64.7969
Q36.0938 60.9062 41 60.9062
Q45.5938 60.9062 48.1875 62.4062
Q50.7969 63.9062 57.7031 70.5938
z

M32.0938 56.9062
Q32.0938 59.0938 31.6406 59.8906
Q31.2031 60.7031 29.5938 61.5
Q27.2969 62.5938 25.2031 64.9062
Q22.0938 63.4062 20.7969 62.25
Q19.5 61.0938 18 58.5938
Q13.2031 51 13.2031 42.2969
Q13.2031 39.2031 14.75 37.25
Q16.2969 35.2969 18.9062 35.2969
Q24.2031 35.2969 28.1406 41.7969
Q32.0938 48.2969 32.0938 56.9062" id="STIXGeneral-Regular-2030"/>
      <path d="
M31 -24.8125
Q25.4375 -20.4062 21.4062 -14.7188
Q17.3906 -9.03125 14.8125 -2.57812
Q12.25 3.85938 10.9844 10.8906
Q9.71875 17.9219 9.71875 25
Q9.71875 32.1719 10.9844 39.2031
Q12.25 46.2344 14.8594 52.7344
Q17.4844 59.2344 21.5312 64.8906
Q25.5938 70.5625 31 74.8125
Q31 75 31.5 75
L32.4219 75
Q32.7188 75 32.9531 74.7344
Q33.2031 74.4688 33.2031 74.125
Q33.2031 73.6875 33.0156 73.4844
Q28.125 68.7031 24.875 63.2344
Q21.625 57.7656 19.6406 51.5781
Q17.6719 45.4062 16.7969 38.7812
Q15.9219 32.1719 15.9219 25
Q15.9219 -6.78125 32.9062 -23.2969
Q33.2031 -23.5781 33.2031 -24.125
Q33.2031 -24.3594 32.9375 -24.6719
Q32.6719 -25 32.4219 -25
L31.5 -25
Q31 -25 31 -24.8125" id="Cmr10-28"/>
      <path d="
M6.5 -25
Q5.60938 -25 5.60938 -24.125
Q5.60938 -23.6875 5.8125 -23.4844
Q22.9062 -6.78125 22.9062 25
Q22.9062 56.7812 6 73.2969
Q5.60938 73.5312 5.60938 74.125
Q5.60938 74.4688 5.875 74.7344
Q6.15625 75 6.5 75
L7.42188 75
Q7.71875 75 7.90625 74.8125
Q15.0938 69.1406 19.875 61.0312
Q24.6562 52.9375 26.875 43.75
Q29.1094 34.5781 29.1094 25
Q29.1094 17.9219 27.9062 11.0625
Q26.7031 4.20312 24.0938 -2.45312
Q21.4844 -9.125 17.4844 -14.7656
Q13.4844 -20.4062 7.90625 -24.8125
Q7.71875 -25 7.42188 -25
z
" id="Cmr10-29"/>
      <path d="
M4 9.8125
Q4 15.7656 8.6875 19.5
Q13.375 23.25 19.9375 24.7812
Q26.5156 26.3125 32.4219 26.3125
L32.4219 30.4219
Q32.4219 33.2969 31.1562 36
Q29.8906 38.7188 27.4844 40.4531
Q25.0938 42.1875 22.2188 42.1875
Q15.5781 42.1875 12.1094 39.2031
Q14.0156 39.2031 15.25 37.7656
Q16.5 36.3281 16.5 34.4219
Q16.5 32.4219 15.0781 31
Q13.6719 29.5938 11.7188 29.5938
Q9.71875 29.5938 8.29688 31
Q6.89062 32.4219 6.89062 34.4219
Q6.89062 39.7031 11.6719 42.2656
Q16.4531 44.8281 22.2188 44.8281
Q26.2656 44.8281 30.3594 43.0938
Q34.4688 41.3594 37.0781 38.125
Q39.7031 34.9062 39.7031 30.6094
L39.7031 8.10938
Q39.7031 6.15625 40.5312 4.51562
Q41.3594 2.875 43.1094 2.875
Q44.7812 2.875 45.5781 4.53125
Q46.3906 6.20312 46.3906 8.10938
L46.3906 14.5
L49.3125 14.5
L49.3125 8.10938
Q49.3125 5.85938 48.1406 3.82812
Q46.9688 1.8125 44.9844 0.609375
Q43.0156 -0.59375 40.7188 -0.59375
Q37.7969 -0.59375 35.6719 1.67188
Q33.5469 3.95312 33.2969 7.07812
Q31.4531 3.32812 27.8281 1.09375
Q24.2188 -1.125 20.125 -1.125
Q16.3125 -1.125 12.625 0
Q8.9375 1.125 6.46875 3.53125
Q4 5.95312 4 9.8125
M12.1094 9.8125
Q12.1094 6.29688 14.6875 3.90625
Q17.2812 1.51562 20.7969 1.51562
Q24.0312 1.51562 26.6562 3.125
Q29.2969 4.73438 30.8594 7.51562
Q32.4219 10.2969 32.4219 13.375
L32.4219 23.7812
Q27.875 23.7812 23.1094 22.2812
Q18.3594 20.7969 15.2344 17.625
Q12.1094 14.4531 12.1094 9.8125" id="Cmr10-61"/>
      <path d="
M2.59375 -19.3906
L2.59375 -15.9219
Q6 -15.9219 8.20312 -15.3281
Q10.4062 -14.75 10.4062 -12.7031
L10.4062 35.5
Q10.4062 38.2344 8.45312 38.9062
Q6.5 39.5938 2.59375 39.5938
L2.59375 43.1094
L17.3906 44.1875
L17.3906 37.9844
Q20.125 41.0156 23.75 42.5938
Q27.3906 44.1875 31.5 44.1875
Q37.4062 44.1875 42.1406 40.9844
Q46.875 37.7969 49.5312 32.5938
Q52.2031 27.3906 52.2031 21.5781
Q52.2031 15.5312 49.25 10.2969
Q46.2969 5.07812 41.1875 1.96875
Q36.0781 -1.125 29.9844 -1.125
Q22.7031 -1.125 17.6719 4.78125
L17.6719 -12.7031
Q17.6719 -14.75 19.8906 -15.3281
Q22.125 -15.9219 25.4844 -15.9219
L25.4844 -19.3906
z

M17.6719 9.71875
Q19.4375 6.15625 22.5625 3.82812
Q25.6875 1.51562 29.3906 1.51562
Q32.8594 1.51562 35.5156 3.35938
Q38.1875 5.21875 39.9844 8.34375
Q41.7969 11.4688 42.6406 14.9062
Q43.5 18.3594 43.5 21.5781
Q43.5 25.5938 42.0625 30.25
Q40.625 34.9062 37.6719 38.1094
Q34.7188 41.3125 30.5156 41.3125
Q26.4688 41.3125 23.0625 39.2344
Q19.6719 37.1562 17.6719 33.5938
z
" id="Cmr10-70"/>
     </defs>
     <g transform="translate(46.983975 178.812195122)rotate(-90.0)scale(0.2 -0.2)">
      <use xlink:href="#Cmr10-61"/>
      <use transform="translate(50.0 0.0)" xlink:href="#Cmr10-6d"/>
      <use transform="translate(133.30078125 0.0)" xlink:href="#Cmr10-70"/>
      <use transform="translate(188.818359375 0.0)" xlink:href="#Cmr10-2e"/>
      <use transform="translate(216.50390625 0.0)" xlink:href="#Cmr10-20"/>
      <use transform="translate(249.8046875 0.0)" xlink:href="#Cmr10-28"/>
      <use transform="translate(288.623046875 0.0)" xlink:href="#STIXGeneral-Regular-2030"/>
      <use transform="translate(399.523040771 0.0)" xlink:href="#Cmr10-29"/>
     </g>
    </g>
   </g>
   <g id="text_6">
    <!-- Stim 1 -->
    <defs>
     <path d="
M10.2031 12.0156
L10.2031 39.5938
L1.90625 39.5938
L1.90625 42.1875
Q8.45312 42.1875 11.5156 48.2812
Q14.5938 54.3906 14.5938 61.5312
L17.4844 61.5312
L17.4844 43.1094
L31.5938 43.1094
L31.5938 39.5938
L17.4844 39.5938
L17.4844 12.2031
Q17.4844 8.0625 18.875 4.9375
Q20.2656 1.8125 23.875 1.8125
Q27.2969 1.8125 28.8125 5.10938
Q30.3281 8.40625 30.3281 12.2031
L30.3281 18.1094
L33.2031 18.1094
L33.2031 12.0156
Q33.2031 8.89062 32.0469 5.82812
Q30.9062 2.78125 28.6562 0.828125
Q26.4219 -1.125 23.1875 -1.125
Q17.1875 -1.125 13.6875 2.46875
Q10.2031 6.0625 10.2031 12.0156" id="Cmr10-74"/>
     <path d="
M3.07812 0
L3.07812 3.51562
Q6.5 3.51562 8.6875 4.04688
Q10.8906 4.59375 10.8906 6.6875
L10.8906 33.9844
Q10.8906 37.8438 9.39062 38.7188
Q7.90625 39.5938 3.51562 39.5938
L3.51562 43.1094
L17.9219 44.1875
L17.9219 6.6875
Q17.9219 4.59375 19.8281 4.04688
Q21.7344 3.51562 24.9062 3.51562
L24.9062 0
z

M7.32812 61.375
Q7.32812 63.5781 8.98438 65.2344
Q10.6406 66.8906 12.7969 66.8906
Q14.2031 66.8906 15.5156 66.1562
Q16.8438 65.4375 17.5781 64.1094
Q18.3125 62.7969 18.3125 61.375
Q18.3125 59.2344 16.6406 57.5625
Q14.9844 55.9062 12.7969 55.9062
Q10.6406 55.9062 8.98438 57.5625
Q7.32812 59.2344 7.32812 61.375" id="Cmr10-69"/>
     <path d="
M5.60938 -1.42188
L5.60938 21.9219
Q5.60938 22.7031 6.5 22.7031
L7.71875 22.7031
Q8.01562 22.7031 8.25 22.4531
Q8.5 22.2188 8.5 21.9219
Q8.5 12.1094 14.5781 6.70312
Q20.6562 1.3125 30.5156 1.3125
Q33.9844 1.3125 36.9062 3.3125
Q39.8438 5.32812 41.4688 8.5625
Q43.1094 11.8125 43.1094 15.2812
Q43.1094 18.3125 41.8906 21.1719
Q40.6719 24.0312 38.375 26.125
Q36.0781 28.2188 33.2031 28.9062
L20.2188 32.0781
Q13.7656 33.7969 9.6875 39.0938
Q5.60938 44.3906 5.60938 50.9844
Q5.60938 56.1562 8.25 60.6875
Q10.8906 65.2344 15.3594 67.875
Q19.8281 70.5156 25 70.5156
Q35.0156 70.5156 40.9219 63.7188
L45.0156 70.2188
Q45.3125 70.5156 45.7031 70.5156
L46.3906 70.5156
Q46.6875 70.5156 46.9531 70.2812
Q47.2188 70.0625 47.2188 69.6719
L47.2188 46.4844
Q47.2188 45.6094 46.3906 45.6094
L45.2188 45.6094
Q44.2812 45.6094 44.2812 46.4844
Q44.2812 49.0312 43.4219 52.0469
Q42.5781 55.0781 41.0625 57.8594
Q39.5469 60.6406 37.7969 62.4062
Q32.9531 67.2812 25 67.2812
Q21.5781 67.2812 18.7031 65.5469
Q15.8281 63.8125 14.1094 60.8281
Q12.4062 57.8594 12.4062 54.5938
Q12.4062 50.2969 15.0625 46.7969
Q17.7188 43.3125 22.0156 42.1875
L35.0156 39.0156
Q38.2344 38.2344 41.0938 36.2031
Q43.9531 34.1875 45.8438 31.5
Q47.75 28.8125 48.8281 25.5156
Q49.9062 22.2188 49.9062 18.7031
Q49.9062 13.2812 47.4062 8.46875
Q44.9219 3.65625 40.4062 0.71875
Q35.8906 -2.20312 30.5156 -2.20312
Q27.2031 -2.20312 23.7344 -1.46875
Q20.2656 -0.734375 17.3281 0.78125
Q14.4062 2.29688 12.0156 4.6875
L7.8125 -1.90625
Q7.51562 -2.20312 7.07812 -2.20312
L6.5 -2.20312
Q5.60938 -2.20312 5.60938 -1.42188" id="Cmr10-53"/>
    </defs>
    <g transform="translate(175.37449288 45.4)scale(0.24 -0.24)">
     <use xlink:href="#Cmr10-53"/>
     <use x="55.517578125" xlink:href="#Cmr10-74"/>
     <use x="94.3359375" xlink:href="#Cmr10-69"/>
     <use x="122.021484375" xlink:href="#Cmr10-6d"/>
     <use x="205.322265625" xlink:href="#Cmr10-20"/>
     <use x="238.623046875" xlink:href="#Cmr10-31"/>
    </g>
   </g>
  </g>
  <g id="axes_2">
   <g id="patch_7">
    <path d="
M414.641 219.424
L652.86 219.424
L652.86 50.4
L414.641 50.4
z
" style="fill:#ffffff;"/>
   </g>
   <g id="line2d_8">
    <path clip-path="url(#p1b110e1c8b)" d="
M430.675 43.3384
M444.991 188.493
M453.581 183.672
M465.034 187.498
L467.897 175.726
L470.76 165.135
L473.623 153.345
L476.487 148.619
L479.35 143.913
L482.213 142.665
L485.076 137.065
L487.939 140.426
L490.803 145.794
L493.666 148.622
L496.529 143.893
L499.392 160.094
L502.255 156.532
L505.119 153.678
L507.982 168.624
L510.845 172.092
L513.708 177.601
L516.572 182.774
L519.435 160.354
M542.34 -506.363
M545.048 -1
L545.204 27.9453
L545.592 -1
M576.699 219.424
L579.562 219.424
L582.425 219.424
L585.288 219.424
L588.152 219.424
L591.015 219.424
L593.878 219.424
L596.741 219.424
L599.604 219.424
L602.468 219.424
L605.331 219.424
L608.194 219.424
L611.057 219.424
L613.92 219.424
L616.784 219.424
L619.647 219.424
L622.51 219.424
L625.373 219.424
L628.236 219.424
L631.1 219.424
L633.963 219.424
L636.826 219.424" style="fill:none;stroke:#0000ff;stroke-linecap:square;"/>
   </g>
   <g id="line2d_9">
    <path clip-path="url(#p1b110e1c8b)" d="
M419.223 152.984
M465.034 155.156
L467.897 181.841
L470.76 152.19
L473.623 111.863
L476.487 94.4844
L479.35 95.1017
L482.213 100.218
L485.076 109.648
L487.939 123.869
L490.803 139.54
L493.666 149.817
L496.529 157.618
L499.392 158.783
L502.255 144.878
L505.119 147.765
L507.982 157.765
L510.845 158.763
L513.708 160.785
L516.572 167.436
L519.435 177.36
L522.298 184.35
L525.161 152.737
L528.024 149.24
L530.888 178.62
L533.751 177.255
L536.614 190.363
L539.477 195.363
L542.34 171.269
L545.204 187.148
L548.067 180.746
L550.93 177.807
M608.194 219.424
L611.057 219.424
L613.92 219.424
L616.784 219.424
L619.647 219.424
L622.51 219.424
L625.373 219.424
L628.236 219.424
L631.1 219.424
L633.963 219.424
L636.826 219.424" style="fill:none;stroke:#008000;stroke-linecap:square;"/>
   </g>
   <g id="line2d_10">
    <path clip-path="url(#p1b110e1c8b)" d="
M433.539 170.99
L436.402 139.531
M465.034 186.013
L467.897 189.127
L470.76 166.785
L473.623 132.072
L476.487 113.578
L479.35 105.609
L482.213 106.937
L485.076 118.31
L487.939 128.659
L490.803 139.414
L493.666 149.042
L496.529 152.394
L499.392 153.017
L502.255 151.454
L505.119 153.472
L507.982 150.212
L510.845 155.792
L513.708 150.195
L516.572 150.643
L519.435 151.589
L522.298 149.84
L525.161 152.631
L528.024 161.591
L530.888 159.33
L533.751 163.599
L536.614 159.73
L539.477 162.163
L542.34 165.228
L545.204 181.31
L548.067 187.164
L550.93 190.117
L553.793 188.735
L556.656 190.486
L559.52 192.338
L562.383 202.734
L565.246 201.402
L568.109 198.486
L570.972 199.487
L573.836 204.324
L576.699 205.139
L579.562 206.25
L582.425 206.819
L585.288 202.806
L588.152 207.909
L591.015 211.018" style="fill:none;stroke:#ff0000;stroke-linecap:square;"/>
   </g>
   <g id="patch_8">
    <path d="
M414.641 50.4
L652.86 50.4" style="fill:none;"/>
   </g>
   <g id="patch_9">
    <path d="
M652.86 219.424
L652.86 50.4" style="fill:none;"/>
   </g>
   <g id="patch_10">
    <path d="
M414.641 219.424
L652.86 219.424" style="fill:none;"/>
   </g>
   <g id="patch_11">
    <path d="
M409.641 219.424
L409.641 50.4" style="fill:none;stroke:#000000;stroke-linecap:square;stroke-linejoin:miter;"/>
   </g>
   <g id="matplotlib.axis_3"/>
   <g id="matplotlib.axis_4">
    <g id="ytick_5">
     <g id="line2d_11">
      <g>
       <use style="stroke:#000000;stroke-width:0.5;" x="409.64146424" xlink:href="#m728421d6d4" y="219.424390244"/>
      </g>
     </g>
     <g id="text_7">
      <!-- 0.0 -->
      <g transform="translate(381.68521424 224.424390244)scale(0.2 -0.2)">
       <use xlink:href="#Cmr10-30"/>
       <use x="50.0" xlink:href="#Cmr10-2e"/>
       <use x="77.685546875" xlink:href="#Cmr10-30"/>
      </g>
     </g>
    </g>
    <g id="ytick_6">
     <g id="line2d_12">
      <g>
       <use style="stroke:#000000;stroke-width:0.5;" x="409.64146424" xlink:href="#m728421d6d4" y="181.863414634"/>
      </g>
     </g>
     <g id="text_8">
      <!-- 0.4 -->
      <g transform="translate(381.46021424 186.863414634)scale(0.2 -0.2)">
       <use xlink:href="#Cmr10-30"/>
       <use x="50.0" xlink:href="#Cmr10-2e"/>
       <use x="77.685546875" xlink:href="#Cmr10-34"/>
      </g>
     </g>
    </g>
    <g id="ytick_7">
     <g id="line2d_13">
      <g>
       <use style="stroke:#000000;stroke-width:0.5;" x="409.64146424" xlink:href="#m728421d6d4" y="144.302439024"/>
      </g>
     </g>
     <g id="text_9">
      <!-- 0.8 -->
      <g transform="translate(381.74458924 149.302439024)scale(0.2 -0.2)">
       <use xlink:href="#Cmr10-30"/>
       <use x="50.0" xlink:href="#Cmr10-2e"/>
       <use x="77.685546875" xlink:href="#Cmr10-38"/>
      </g>
     </g>
    </g>
    <g id="ytick_8">
     <g id="line2d_14">
      <g>
       <use style="stroke:#000000;stroke-width:0.5;" x="409.64146424" xlink:href="#m728421d6d4" y="106.741463415"/>
      </g>
     </g>
     <g id="text_10">
      <!-- 1.2 -->
      <g transform="translate(382.85708924 111.741463415)scale(0.2 -0.2)">
       <use xlink:href="#Cmr10-31"/>
       <use x="50.0" xlink:href="#Cmr10-2e"/>
       <use x="77.685546875" xlink:href="#Cmr10-32"/>
      </g>
     </g>
    </g>
    <g id="ytick_9">
     <g id="line2d_15">
      <g>
       <use style="stroke:#000000;stroke-width:0.5;" x="409.64146424" xlink:href="#m728421d6d4" y="69.1804878049"/>
      </g>
     </g>
     <g id="text_11">
      <!-- 1.6 -->
      <g transform="translate(382.70083924 74.1804878049)scale(0.2 -0.2)">
       <use xlink:href="#Cmr10-31"/>
       <use x="50.0" xlink:href="#Cmr10-2e"/>
       <use x="77.685546875" xlink:href="#Cmr10-36"/>
      </g>
     </g>
    </g>
    <g id="text_12">
     <!-- amp. ($\perthousand$) -->
     <g transform="translate(371.46021424 178.812195122)rotate(-90.0)scale(0.2 -0.2)">
      <use xlink:href="#Cmr10-61"/>
      <use transform="translate(50.0 0.0)" xlink:href="#Cmr10-6d"/>
      <use transform="translate(133.30078125 0.0)" xlink:href="#Cmr10-70"/>
      <use transform="translate(188.818359375 0.0)" xlink:href="#Cmr10-2e"/>
      <use transform="translate(216.50390625 0.0)" xlink:href="#Cmr10-20"/>
      <use transform="translate(249.8046875 0.0)" xlink:href="#Cmr10-28"/>
      <use transform="translate(288.623046875 0.0)" xlink:href="#STIXGeneral-Regular-2030"/>
      <use transform="translate(399.523040771 0.0)" xlink:href="#Cmr10-29"/>
     </g>
    </g>
   </g>
   <g id="text_13">
    <!-- Stim 2 -->
    <g transform="translate(499.72698212 45.4)scale(0.24 -0.24)">
     <use xlink:href="#Cmr10-53"/>
     <use x="55.517578125" xlink:href="#Cmr10-74"/>
     <use x="94.3359375" xlink:href="#Cmr10-69"/>
     <use x="122.021484375" xlink:href="#Cmr10-6d"/>
     <use x="205.322265625" xlink:href="#Cmr10-20"/>
     <use x="238.623046875" xlink:href="#Cmr10-32"/>
    </g>
   </g>
  </g>
  <g id="axes_3">
   <g id="patch_12">
    <path d="
M89.9496 410.76
L328.168 410.76
L328.168 241.736
L89.9496 241.736
z
" style="fill:#ffffff;"/>
   </g>
   <g id="line2d_16">
    <path clip-path="url(#p259dea28f6)" d="
M137.479 401.707
M146.068 331.269
L148.932 329.037
L151.795 294.678
L154.658 307.439
L157.521 306.56
L160.384 335.298
L163.248 287.24
L166.111 275.175
L168.974 294.921
L171.837 325.783
L174.7 332.501
L177.564 294.714
L180.427 336.722
L183.29 335.597
L186.153 352.829
L189.016 373.212
L191.88 345.906
M197.606 341.545
M203.332 317.74
M223.375 391.434
M231.964 393.54
M252.007 407.51
L254.87 407.51
L257.733 407.51
L260.597 407.51
L263.46 407.51
L266.323 407.51
L269.186 407.51
L272.049 407.51
L274.913 407.51
L277.776 407.51
L280.639 407.51
L283.502 407.51
L286.365 407.51
L289.229 407.51
L292.092 407.51
L294.955 407.51
L297.818 407.51
L300.681 407.51
L303.545 407.51
L306.408 407.51
L309.271 407.51
L312.134 407.51" style="fill:none;stroke:#0000ff;stroke-linecap:square;"/>
   </g>
   <g id="line2d_17">
    <path clip-path="url(#p259dea28f6)" d="
M97.3939 406.469
M120.3 382.702
M146.068 341.611
L148.932 343.677
L151.795 328.954
L154.658 325.453
L157.521 321.431
L160.384 317.929
L163.248 318.546
L166.111 313.878
L168.974 291.12
L171.837 286.873
L174.7 325.895
L177.564 277.788
L180.427 251.613
M189.016 312.534
L191.88 264.428
L194.743 270.868
L197.606 295.264
L200.469 285.801
L203.332 257.079
M209.059 266.303
L211.922 301.199
L214.785 325.531
L217.648 315.004
L220.512 326.338
L223.375 248.986
M263.46 375.494
M283.502 407.51
L286.365 407.51
L289.229 407.51
L292.092 407.51
L294.955 407.51
L297.818 407.51
L300.681 407.51
L303.545 407.51
L306.408 407.51
L309.271 407.51
L312.134 407.51" style="fill:none;stroke:#008000;stroke-linecap:square;"/>
   </g>
   <g id="line2d_18">
    <path clip-path="url(#p259dea28f6)" d="
M143.205 375.653
L146.068 313.968
L148.932 317.858
L151.795 322.554
L154.658 326.211
L157.521 322.211
L160.384 329.737
L163.248 317.277
L166.111 325.866
L168.974 329.106
L171.837 322.441
L174.7 317.735
L177.564 316.979
L180.427 308.235
L183.29 311.081
L186.153 298.505
L189.016 303.656
L191.88 285.592
L194.743 275.877
L197.606 260.177
L200.469 272.164
L203.332 248.86
L206.196 315.957
L209.059 307.985
L211.922 279.187
L214.785 298.879
L217.648 309.751
L220.512 288.621
L223.375 293.522
L226.238 296.326
L229.101 288.947
L231.964 251.028
M237.691 289.155
L240.554 303.258
M252.007 304.107
M257.733 337.616
M263.46 316.658
L266.323 309.516
L269.186 339.067
L272.049 338.595
L274.913 334.897
L277.776 342.706
L280.639 336.313
L283.502 407.51
L286.365 407.51
L289.229 407.51
L292.092 407.51
L294.955 407.51
L297.818 407.51
L300.681 407.51
L303.545 407.51
L306.408 407.51
L309.271 407.51
L312.134 407.51" style="fill:none;stroke:#ff0000;stroke-linecap:square;"/>
   </g>
   <g id="patch_13">
    <path d="
M89.9496 241.736
L328.168 241.736" style="fill:none;"/>
   </g>
   <g id="patch_14">
    <path d="
M328.168 410.76
L328.168 241.736" style="fill:none;"/>
   </g>
   <g id="patch_15">
    <path d="
M94.5307 415.76
L312.134 415.76" style="fill:none;stroke:#000000;stroke-linecap:square;stroke-linejoin:miter;"/>
   </g>
   <g id="patch_16">
    <path d="
M84.9496 407.51
L84.9496 248.86" style="fill:none;stroke:#000000;stroke-linecap:square;stroke-linejoin:miter;"/>
   </g>
   <g id="matplotlib.axis_5">
    <g id="xtick_1">
     <g id="line2d_19">
      <defs>
       <path d="
M0 0
L0 -4" id="m93b0483c22" style="stroke:#000000;stroke-width:0.5;"/>
      </defs>
      <g>
       <use style="stroke:#000000;stroke-width:0.5;" x="94.5307256877" xlink:href="#m93b0483c22" y="415.76"/>
      </g>
     </g>
     <g id="text_14">
      <!-- 0 -->
      <g transform="translate(90.3213506877 433.638125)scale(0.2 -0.2)">
       <use xlink:href="#Cmr10-30"/>
      </g>
     </g>
    </g>
    <g id="xtick_2">
     <g id="line2d_20">
      <g>
       <use style="stroke:#000000;stroke-width:0.5;" x="166.110814558" xlink:href="#m93b0483c22" y="415.76"/>
      </g>
     </g>
     <g id="text_15">
      <!-- 25 -->
      <defs>
       <path d="
M8.6875 11.375
Q9.71875 8.45312 11.8438 6.04688
Q13.9688 3.65625 16.875 2.3125
Q19.7812 0.984375 22.9062 0.984375
Q30.125 0.984375 32.8594 6.59375
Q35.5938 12.2031 35.5938 20.2188
Q35.5938 23.6875 35.4688 26.0469
Q35.3594 28.4219 34.8125 30.6094
Q33.8906 34.125 31.5625 36.7656
Q29.25 39.4062 25.875 39.4062
Q22.5156 39.4062 20.0938 38.375
Q17.6719 37.3594 16.1562 35.9844
Q14.6562 34.625 13.4844 33.1094
Q12.3125 31.5938 12.0156 31.5
L10.8906 31.5
Q10.6406 31.5 10.2656 31.8125
Q9.90625 32.125 9.90625 32.4219
L9.90625 65.8281
Q9.90625 66.0625 10.2188 66.3281
Q10.5469 66.6094 10.8906 66.6094
L11.1875 66.6094
Q17.9219 63.375 25.4844 63.375
Q32.9062 63.375 39.7969 66.6094
L40.0938 66.6094
Q40.4375 66.6094 40.7188 66.3594
Q41.0156 66.1094 41.0156 65.8281
L41.0156 64.8906
Q41.0156 64.4062 40.8281 64.4062
Q37.4062 59.8594 32.25 57.3125
Q27.0938 54.7812 21.5781 54.7812
Q17.5781 54.7812 13.375 55.9062
L13.375 37.0156
Q16.7031 39.7031 19.3125 40.8438
Q21.9219 42 25.9844 42
Q31.5 42 35.8594 38.8125
Q40.2344 35.6406 42.5781 30.5312
Q44.9219 25.4375 44.9219 20.125
Q44.9219 14.1094 41.9688 8.98438
Q39.0156 3.85938 33.9375 0.828125
Q28.8594 -2.20312 22.9062 -2.20312
Q17.9688 -2.20312 13.8438 0.328125
Q9.71875 2.875 7.34375 7.17188
Q4.98438 11.4688 4.98438 16.3125
Q4.98438 18.5625 6.4375 19.9688
Q7.90625 21.3906 10.1094 21.3906
Q12.3125 21.3906 13.7969 19.9375
Q15.2812 18.5 15.2812 16.3125
Q15.2812 14.1562 13.7969 12.6719
Q12.3125 11.1875 10.1094 11.1875
Q9.76562 11.1875 9.32812 11.25
Q8.89062 11.3281 8.6875 11.375" id="Cmr10-35"/>
      </defs>
      <g transform="translate(157.117064558 433.638125)scale(0.2 -0.2)">
       <use xlink:href="#Cmr10-32"/>
       <use x="50.0" xlink:href="#Cmr10-35"/>
      </g>
     </g>
    </g>
    <g id="xtick_3">
     <g id="line2d_21">
      <g>
       <use style="stroke:#000000;stroke-width:0.5;" x="237.690903428" xlink:href="#m93b0483c22" y="415.76"/>
      </g>
     </g>
     <g id="text_16">
      <!-- 50 -->
      <g transform="translate(228.589340928 433.638125)scale(0.2 -0.2)">
       <use xlink:href="#Cmr10-35"/>
       <use x="50.0" xlink:href="#Cmr10-30"/>
      </g>
     </g>
    </g>
    <g id="xtick_4">
     <g id="line2d_22">
      <g>
       <use style="stroke:#000000;stroke-width:0.5;" x="309.270992298" xlink:href="#m93b0483c22" y="415.76"/>
      </g>
     </g>
     <g id="text_17">
      <!-- 75 -->
      <defs>
       <path d="
M17.3906 2.59375
Q17.3906 8.15625 18.3594 13.4688
Q19.3438 18.7969 21.2188 24
Q23.0938 29.2031 25.75 34.2031
Q28.4219 39.2031 31.5938 43.6094
L40.7188 56.2969
L29.2969 56.2969
Q11.5312 56.2969 10.9844 55.8125
Q9.67188 54.2031 8.5 46.5781
L5.60938 46.5781
L8.89062 67.5781
L11.8125 67.5781
L11.8125 67.2812
Q11.8125 65.4844 17.9219 64.9375
Q24.0312 64.4062 29.8906 64.4062
L48.4844 64.4062
L48.4844 61.8125
Q48.4844 61.7188 48.4531 61.6719
Q48.4375 61.625 48.3906 61.5312
L34.625 42.1875
Q29.5469 34.6719 28.2656 25.4844
Q27 16.3125 27 2.59375
Q27 0.640625 25.5781 -0.78125
Q24.1719 -2.20312 22.2188 -2.20312
Q20.2188 -2.20312 18.7969 -0.78125
Q17.3906 0.640625 17.3906 2.59375" id="Cmr10-37"/>
      </defs>
      <g transform="translate(300.339742298 433.638125)scale(0.2 -0.2)">
       <use xlink:href="#Cmr10-37"/>
       <use x="50.0" xlink:href="#Cmr10-35"/>
      </g>
     </g>
    </g>
    <g id="text_18">
     <!-- time (frames) -->
     <defs>
      <path d="
M24.9062 -1.125
Q18.7969 -1.125 13.6875 2.07812
Q8.59375 5.28125 5.6875 10.625
Q2.78125 15.9688 2.78125 21.9219
Q2.78125 27.7812 5.4375 33.0469
Q8.10938 38.3281 12.8594 41.5781
Q17.625 44.8281 23.4844 44.8281
Q28.0781 44.8281 31.4688 43.2812
Q34.8594 41.75 37.0625 39.0156
Q39.2656 36.2812 40.375 32.5625
Q41.5 28.8594 41.5 24.4219
Q41.5 23.0938 40.4844 23.0938
L11.5312 23.0938
L11.5312 22.0156
Q11.5312 13.7188 14.875 7.76562
Q18.2188 1.8125 25.7812 1.8125
Q28.8594 1.8125 31.4688 3.17188
Q34.0781 4.54688 36 6.98438
Q37.9375 9.42188 38.625 12.2031
Q38.7188 12.5469 38.9844 12.8125
Q39.2656 13.0938 39.5938 13.0938
L40.4844 13.0938
Q41.5 13.0938 41.5 11.8125
Q40.0938 6.15625 35.4062 2.51562
Q30.7188 -1.125 24.9062 -1.125
M11.625 25.5938
L34.4219 25.5938
Q34.4219 29.3438 33.375 33.2031
Q32.3281 37.0625 29.875 39.625
Q27.4375 42.1875 23.4844 42.1875
Q17.8281 42.1875 14.7188 36.8906
Q11.625 31.5938 11.625 25.5938" id="Cmr10-65"/>
      <path d="
M3.21875 0
L3.21875 3.51562
Q6.59375 3.51562 8.78125 4.04688
Q10.9844 4.59375 10.9844 6.6875
L10.9844 39.5938
L3.32812 39.5938
L3.32812 43.1094
L10.9844 43.1094
L10.9844 55.0781
Q10.9844 58.2969 12.3281 61.1094
Q13.6719 63.9219 15.9375 66.0156
Q18.2188 68.1094 21.1719 69.3125
Q24.125 70.5156 27.2969 70.5156
Q30.6719 70.5156 33.375 68.5
Q36.0781 66.5 36.0781 63.1875
Q36.0781 61.2812 34.7812 59.9844
Q33.5 58.6875 31.5938 58.6875
Q29.6875 58.6875 28.3438 59.9844
Q27 61.2812 27 63.1875
Q27 66.3125 29.6875 67.3906
Q28.0781 67.9219 26.8125 67.9219
Q23.875 67.9219 21.7969 65.8438
Q19.7344 63.7656 18.7031 60.7812
Q17.6719 57.8125 17.6719 54.8906
L17.6719 43.1094
L29.2031 43.1094
L29.2031 39.5938
L18.0156 39.5938
L18.0156 6.6875
Q18.0156 4.64062 20.9375 4.07812
Q23.875 3.51562 27.6875 3.51562
L27.6875 0
z
" id="Cmr10-66"/>
      <path d="
M3.32812 -0.296875
L3.32812 16.0156
Q3.32812 16.7969 4.20312 16.7969
L5.42188 16.7969
Q6 16.7969 6.20312 16.0156
Q8.98438 1.51562 19.6719 1.51562
Q24.4219 1.51562 27.6094 3.65625
Q30.8125 5.8125 30.8125 10.2969
Q30.8125 13.5312 28.3125 15.7969
Q25.8281 18.0625 22.4062 18.8906
L15.7188 20.2188
Q12.3594 20.9531 9.59375 22.4531
Q6.84375 23.9688 5.07812 26.4844
Q3.32812 29 3.32812 32.3281
Q3.32812 36.7188 5.64062 39.5156
Q7.95312 42.3281 11.6562 43.5781
Q15.375 44.8281 19.6719 44.8281
Q24.8125 44.8281 28.6094 42.0938
L31.5 44.5781
Q31.5 44.8281 31.9844 44.8281
L32.7188 44.8281
Q33.0156 44.8281 33.25 44.5469
Q33.5 44.2812 33.5 44
L33.5 30.9062
Q33.5 29.9844 32.7188 29.9844
L31.5 29.9844
Q30.6094 29.9844 30.6094 30.9062
Q30.6094 36.1406 27.7031 39.3125
Q24.8125 42.4844 19.5781 42.4844
Q15.0938 42.4844 11.7969 40.8125
Q8.5 39.1562 8.5 35.1094
Q8.5 32.3281 10.8594 30.5469
Q13.2344 28.7656 16.4062 27.9844
L23.1875 26.7031
Q26.6094 25.9219 29.5625 24.0625
Q32.5156 22.2188 34.25 19.375
Q35.9844 16.5469 35.9844 12.9844
Q35.9844 9.375 34.7344 6.70312
Q33.5 4.04688 31.2656 2.28125
Q29.0469 0.53125 26.0156 -0.296875
Q23 -1.125 19.6719 -1.125
Q13.4219 -1.125 8.98438 3.07812
L5.32812 -0.875
Q5.32812 -1.125 4.78125 -1.125
L4.20312 -1.125
Q3.32812 -1.125 3.32812 -0.296875" id="Cmr10-73"/>
      <path d="
M2.59375 0
L2.59375 3.51562
Q6 3.51562 8.20312 4.04688
Q10.4062 4.59375 10.4062 6.6875
L10.4062 33.9844
Q10.4062 36.6719 9.59375 37.8594
Q8.79688 39.0625 7.28125 39.3281
Q5.76562 39.5938 2.59375 39.5938
L2.59375 43.1094
L16.8906 44.1875
L16.8906 34.4219
Q18.5 38.7656 21.4844 41.4688
Q24.4688 44.1875 28.7188 44.1875
Q31.6875 44.1875 34.0312 42.4219
Q36.375 40.6719 36.375 37.7969
Q36.375 35.9844 35.0781 34.6406
Q33.7969 33.2969 31.8906 33.2969
Q30.0312 33.2969 28.7031 34.6094
Q27.3906 35.9375 27.3906 37.7969
Q27.3906 40.4844 29.2969 41.6094
L28.7188 41.6094
Q24.6562 41.6094 22.0938 38.6719
Q19.5312 35.75 18.4531 31.3906
Q17.3906 27.0469 17.3906 23.0938
L17.3906 6.6875
Q17.3906 3.51562 27.0938 3.51562
L27.0938 0
z
" id="Cmr10-72"/>
     </defs>
     <g transform="translate(150.84636788 457.51625)scale(0.2 -0.2)">
      <use xlink:href="#Cmr10-74"/>
      <use x="38.818359375" xlink:href="#Cmr10-69"/>
      <use x="66.50390625" xlink:href="#Cmr10-6d"/>
      <use x="149.8046875" xlink:href="#Cmr10-65"/>
      <use x="194.189453125" xlink:href="#Cmr10-20"/>
      <use x="227.490234375" xlink:href="#Cmr10-28"/>
      <use x="266.30859375" xlink:href="#Cmr10-66"/>
      <use x="296.826171875" xlink:href="#Cmr10-72"/>
      <use x="335.9375" xlink:href="#Cmr10-61"/>
      <use x="385.9375" xlink:href="#Cmr10-6d"/>
      <use x="469.23828125" xlink:href="#Cmr10-65"/>
      <use x="513.623046875" xlink:href="#Cmr10-73"/>
      <use x="553.02734375" xlink:href="#Cmr10-29"/>
     </g>
    </g>
   </g>
   <g id="matplotlib.axis_6">
    <g id="ytick_10">
     <g id="line2d_23">
      <g>
       <use style="stroke:#000000;stroke-width:0.5;" x="84.9496" xlink:href="#m728421d6d4" y="407.509530957"/>
      </g>
     </g>
     <g id="text_19">
      <!-- 0.0 -->
      <g transform="translate(56.99335 412.509530957)scale(0.2 -0.2)">
       <use xlink:href="#Cmr10-30"/>
       <use x="50.0" xlink:href="#Cmr10-2e"/>
       <use x="77.685546875" xlink:href="#Cmr10-30"/>
      </g>
     </g>
    </g>
    <g id="ytick_11">
     <g id="line2d_24">
      <g>
       <use style="stroke:#000000;stroke-width:0.5;" x="84.9496" xlink:href="#m728421d6d4" y="358.75249531"/>
      </g>
     </g>
     <g id="text_20">
      <!-- 1.5 -->
      <g transform="translate(58.165225 363.75249531)scale(0.2 -0.2)">
       <use xlink:href="#Cmr10-31"/>
       <use x="50.0" xlink:href="#Cmr10-2e"/>
       <use x="77.685546875" xlink:href="#Cmr10-35"/>
      </g>
     </g>
    </g>
    <g id="ytick_12">
     <g id="line2d_25">
      <g>
       <use style="stroke:#000000;stroke-width:0.5;" x="84.9496" xlink:href="#m728421d6d4" y="309.995459662"/>
      </g>
     </g>
     <g id="text_21">
      <!-- 3.0 -->
      <defs>
       <path d="
M9.51562 7.71875
Q11.8594 4.29688 15.8125 2.64062
Q19.7812 0.984375 24.3125 0.984375
Q30.125 0.984375 32.5625 5.9375
Q35.0156 10.8906 35.0156 17.1875
Q35.0156 20.0156 34.5 22.8438
Q33.9844 25.6875 32.7656 28.125
Q31.5469 30.5625 29.4219 32.0312
Q27.2969 33.5 24.2188 33.5
L17.5781 33.5
Q16.7031 33.5 16.7031 34.4219
L16.7031 35.2969
Q16.7031 36.0781 17.5781 36.0781
L23.0938 36.5312
Q26.6094 36.5312 28.9219 39.1562
Q31.25 41.7969 32.3281 45.5781
Q33.4062 49.3594 33.4062 52.7812
Q33.4062 57.5625 31.1562 60.6406
Q28.9062 63.7188 24.3125 63.7188
Q20.5156 63.7188 17.0469 62.2812
Q13.5781 60.8438 11.5312 57.9062
Q11.7188 57.9531 11.8594 57.9844
Q12.0156 58.0156 12.2031 58.0156
Q14.4531 58.0156 15.9688 56.4531
Q17.4844 54.8906 17.4844 52.6875
Q17.4844 50.5312 15.9688 48.9688
Q14.4531 47.4062 12.2031 47.4062
Q10.0156 47.4062 8.45312 48.9688
Q6.89062 50.5312 6.89062 52.6875
Q6.89062 56.9844 9.46875 60.1562
Q12.0625 63.3281 16.1406 64.9688
Q20.2188 66.6094 24.3125 66.6094
Q27.3438 66.6094 30.7031 65.7031
Q34.0781 64.7969 36.8125 63.1094
Q39.5469 61.4219 41.2812 58.7812
Q43.0156 56.1562 43.0156 52.7812
Q43.0156 48.5781 41.1406 45.0156
Q39.2656 41.4531 35.9844 38.8594
Q32.7188 36.2812 28.8125 35.0156
Q33.1562 34.1875 37.0625 31.7344
Q40.9688 29.2969 43.3281 25.4844
Q45.7031 21.6875 45.7031 17.2812
Q45.7031 11.7656 42.6719 7.29688
Q39.6562 2.82812 34.7188 0.3125
Q29.7812 -2.20312 24.3125 -2.20312
Q19.625 -2.20312 14.9062 -0.40625
Q10.2031 1.375 7.20312 4.9375
Q4.20312 8.5 4.20312 13.4844
Q4.20312 15.9688 5.85938 17.625
Q7.51562 19.2812 10.0156 19.2812
Q11.625 19.2812 12.9688 18.5312
Q14.3125 17.7812 15.0625 16.4062
Q15.8281 15.0469 15.8281 13.4844
Q15.8281 11.0312 14.1094 9.375
Q12.4062 7.71875 10.0156 7.71875
z
" id="Cmr10-33"/>
      </defs>
      <g transform="translate(57.052725 314.995459662)scale(0.2 -0.2)">
       <use xlink:href="#Cmr10-33"/>
       <use x="50.0" xlink:href="#Cmr10-2e"/>
       <use x="77.685546875" xlink:href="#Cmr10-30"/>
      </g>
     </g>
    </g>
    <g id="ytick_13">
     <g id="line2d_26">
      <g>
       <use style="stroke:#000000;stroke-width:0.5;" x="84.9496" xlink:href="#m728421d6d4" y="261.238424015"/>
      </g>
     </g>
     <g id="text_22">
      <!-- 4.5 -->
      <g transform="translate(56.983975 266.238424015)scale(0.2 -0.2)">
       <use xlink:href="#Cmr10-34"/>
       <use x="50.0" xlink:href="#Cmr10-2e"/>
       <use x="77.685546875" xlink:href="#Cmr10-35"/>
      </g>
     </g>
    </g>
    <g id="text_23">
     <!-- $\sigma$ (mm) -->
     <defs>
      <path d="
M18.7031 -1.125
Q14.2656 -1.125 10.8125 1
Q7.375 3.125 5.48438 6.73438
Q3.60938 10.3594 3.60938 14.7031
Q3.60938 19.3438 5.70312 24.4688
Q7.8125 29.5938 11.4531 33.8438
Q15.0938 38.0938 19.6719 40.5938
Q24.2656 43.1094 29.1094 43.1094
L54.2969 43.1094
Q55.3281 43.1094 56.0469 42.4219
Q56.7812 41.75 56.7812 40.5781
Q56.7812 39.1094 55.7344 38.0156
Q54.6875 36.9219 53.2188 36.9219
L41.0156 36.9219
Q43.8906 32.625 43.8906 26.5156
Q43.8906 21.4844 41.9375 16.5938
Q39.9844 11.7188 36.5156 7.6875
Q33.0625 3.65625 28.4375 1.26562
Q23.8281 -1.125 18.7031 -1.125
M18.7969 1.51562
Q24.2656 1.51562 28.4844 5.78125
Q32.7188 10.0625 34.9531 16.2344
Q37.2031 22.4062 37.2031 27.6875
Q37.2031 31.9844 34.8281 34.4531
Q32.4688 36.9219 28.2188 36.9219
Q22.4062 36.9219 18.3281 33.0156
Q14.2656 29.1094 12.2344 23.1875
Q10.2031 17.2812 10.2031 11.8125
Q10.2031 7.51562 12.4688 4.51562
Q14.75 1.51562 18.7969 1.51562" id="Cmmi10-be"/>
     </defs>
     <g transform="translate(46.983975 359.747804878)rotate(-90.0)scale(0.2 -0.2)">
      <use xlink:href="#Cmmi10-be"/>
      <use transform="translate(57.080078125 0.0)" xlink:href="#Cmr10-20"/>
      <use transform="translate(90.380859375 0.0)" xlink:href="#Cmr10-28"/>
      <use transform="translate(129.19921875 0.0)" xlink:href="#Cmr10-6d"/>
      <use transform="translate(212.5 0.0)" xlink:href="#Cmr10-6d"/>
      <use transform="translate(295.80078125 0.0)" xlink:href="#Cmr10-29"/>
     </g>
    </g>
   </g>
  </g>
  <g id="axes_4">
   <g id="patch_17">
    <path d="
M414.641 410.76
L652.86 410.76
L652.86 241.736
L414.641 241.736
z
" style="fill:#ffffff;"/>
   </g>
   <g id="line2d_27">
    <path clip-path="url(#pce113a9b0f)" d="
M453.581 363.211
M467.897 329.903
L470.76 316.423
L473.623 303.792
L476.487 307.141
L479.35 312.15
L482.213 326.072
L485.076 292.148
L487.939 286.895
L490.803 286.012
L493.666 294.826
L496.529 278.48
L499.392 275.129
L502.255 265.773
L505.119 292.016
L507.982 342.083
L510.845 340.415
L513.708 336.403
L516.572 341.697
L519.435 320.586
M542.34 377.91
L545.204 385.454
L548.067 373.977
L550.93 376.371
M576.699 304.107
M582.425 337.616
M588.152 316.658
L591.015 309.516
L593.878 339.067
L596.741 338.595
L599.604 334.897
L602.468 342.706
L605.331 336.313
L608.194 407.51
L611.057 407.51
L613.92 407.51
L616.784 407.51
L619.647 407.51
L622.51 407.51
L625.373 407.51
L628.236 407.51
L631.1 407.51
L633.963 407.51
L636.826 407.51" style="fill:none;stroke:#0000ff;stroke-linecap:square;"/>
   </g>
   <g id="line2d_28">
    <path clip-path="url(#pce113a9b0f)" d="
M419.223 380.094
M467.897 341.587
L470.76 338.896
L473.623 331.924
L476.487 327.233
L479.35 321.414
L482.213 318.659
L485.076 318.776
L487.939 317.954
L490.803 310.993
L493.666 289.031
L496.529 298.808
L499.392 287.741
M507.982 254.123
M513.708 261.662
L516.572 264.403
L519.435 298.161
L522.298 304.199
L525.161 264.296
L528.024 249.532
L530.888 271.374
L533.751 292.413
L536.614 288.657
L539.477 322.66
M545.204 252.89
L548.067 264.117
L550.93 253.045
M608.194 407.51
L611.057 407.51
L613.92 407.51
L616.784 407.51
L619.647 407.51
L622.51 407.51
L625.373 407.51
L628.236 407.51
L631.1 407.51
L633.963 407.51
L636.826 407.51" style="fill:none;stroke:#008000;stroke-linecap:square;"/>
   </g>
   <g id="line2d_29">
    <path clip-path="url(#pce113a9b0f)" d="
M433.539 372.423
L436.402 379.367
M467.897 333.522
L470.76 324.836
L473.623 311.939
L476.487 324.672
L479.35 327.078
L482.213 326.361
L485.076 323.922
L487.939 322.566
L490.803 325.856
L493.666 324.8
L496.529 318.676
L499.392 314.416
L502.255 304.865
L505.119 309.317
L507.982 303.003
L510.845 300.738
L513.708 293.139
L516.572 274.434
L519.435 269.254
L522.298 264.146
L525.161 263.999
L528.024 308.308
L530.888 311.18
L533.751 304.382
L536.614 304.122
L539.477 303.347
L542.34 282.071
L545.204 353.015
L548.067 294.23
L550.93 297.966
L553.793 346.64
L556.656 407.51
L559.52 407.51
L562.383 407.51
L565.246 407.51
L568.109 407.51
L570.972 407.51
L573.836 407.51
L576.699 407.51
L579.562 407.51
L582.425 407.51
L585.288 407.51
L588.152 407.51
L591.015 407.51" style="fill:none;stroke:#ff0000;stroke-linecap:square;"/>
   </g>
   <g id="patch_18">
    <path d="
M414.641 241.736
L652.86 241.736" style="fill:none;"/>
   </g>
   <g id="patch_19">
    <path d="
M652.86 410.76
L652.86 241.736" style="fill:none;"/>
   </g>
   <g id="patch_20">
    <path d="
M419.223 415.76
L636.826 415.76" style="fill:none;stroke:#000000;stroke-linecap:square;stroke-linejoin:miter;"/>
   </g>
   <g id="patch_21">
    <path d="
M409.641 407.51
L409.641 249.532" style="fill:none;stroke:#000000;stroke-linecap:square;stroke-linejoin:miter;"/>
   </g>
   <g id="matplotlib.axis_7">
    <g id="xtick_5">
     <g id="line2d_30">
      <g>
       <use style="stroke:#000000;stroke-width:0.5;" x="419.222589928" xlink:href="#m93b0483c22" y="415.76"/>
      </g>
     </g>
     <g id="text_24">
      <!-- 0 -->
      <g transform="translate(415.013214928 433.638125)scale(0.2 -0.2)">
       <use xlink:href="#Cmr10-30"/>
      </g>
     </g>
    </g>
    <g id="xtick_6">
     <g id="line2d_31">
      <g>
       <use style="stroke:#000000;stroke-width:0.5;" x="490.802678798" xlink:href="#m93b0483c22" y="415.76"/>
      </g>
     </g>
     <g id="text_25">
      <!-- 25 -->
      <g transform="translate(481.808928798 433.638125)scale(0.2 -0.2)">
       <use xlink:href="#Cmr10-32"/>
       <use x="50.0" xlink:href="#Cmr10-35"/>
      </g>
     </g>
    </g>
    <g id="xtick_7">
     <g id="line2d_32">
      <g>
       <use style="stroke:#000000;stroke-width:0.5;" x="562.382767668" xlink:href="#m93b0483c22" y="415.76"/>
      </g>
     </g>
     <g id="text_26">
      <!-- 50 -->
      <g transform="translate(553.281205168 433.638125)scale(0.2 -0.2)">
       <use xlink:href="#Cmr10-35"/>
       <use x="50.0" xlink:href="#Cmr10-30"/>
      </g>
     </g>
    </g>
    <g id="xtick_8">
     <g id="line2d_33">
      <g>
       <use style="stroke:#000000;stroke-width:0.5;" x="633.962856538" xlink:href="#m93b0483c22" y="415.76"/>
      </g>
     </g>
     <g id="text_27">
      <!-- 75 -->
      <g transform="translate(625.031606538 433.638125)scale(0.2 -0.2)">
       <use xlink:href="#Cmr10-37"/>
       <use x="50.0" xlink:href="#Cmr10-35"/>
      </g>
     </g>
    </g>
    <g id="text_28">
     <!-- time (frames) -->
     <g transform="translate(475.53823212 457.51625)scale(0.2 -0.2)">
      <use xlink:href="#Cmr10-74"/>
      <use x="38.818359375" xlink:href="#Cmr10-69"/>
      <use x="66.50390625" xlink:href="#Cmr10-6d"/>
      <use x="149.8046875" xlink:href="#Cmr10-65"/>
      <use x="194.189453125" xlink:href="#Cmr10-20"/>
      <use x="227.490234375" xlink:href="#Cmr10-28"/>
      <use x="266.30859375" xlink:href="#Cmr10-66"/>
      <use x="296.826171875" xlink:href="#Cmr10-72"/>
      <use x="335.9375" xlink:href="#Cmr10-61"/>
      <use x="385.9375" xlink:href="#Cmr10-6d"/>
      <use x="469.23828125" xlink:href="#Cmr10-65"/>
      <use x="513.623046875" xlink:href="#Cmr10-73"/>
      <use x="553.02734375" xlink:href="#Cmr10-29"/>
     </g>
    </g>
   </g>
   <g id="matplotlib.axis_8">
    <g id="ytick_14">
     <g id="line2d_34">
      <g>
       <use style="stroke:#000000;stroke-width:0.5;" x="409.64146424" xlink:href="#m728421d6d4" y="407.509530957"/>
      </g>
     </g>
     <g id="text_29">
      <!-- 0.0 -->
      <g transform="translate(381.68521424 412.509530957)scale(0.2 -0.2)">
       <use xlink:href="#Cmr10-30"/>
       <use x="50.0" xlink:href="#Cmr10-2e"/>
       <use x="77.685546875" xlink:href="#Cmr10-30"/>
      </g>
     </g>
    </g>
    <g id="ytick_15">
     <g id="line2d_35">
      <g>
       <use style="stroke:#000000;stroke-width:0.5;" x="409.64146424" xlink:href="#m728421d6d4" y="358.75249531"/>
      </g>
     </g>
     <g id="text_30">
      <!-- 1.5 -->
      <g transform="translate(382.85708924 363.75249531)scale(0.2 -0.2)">
       <use xlink:href="#Cmr10-31"/>
       <use x="50.0" xlink:href="#Cmr10-2e"/>
       <use x="77.685546875" xlink:href="#Cmr10-35"/>
      </g>
     </g>
    </g>
    <g id="ytick_16">
     <g id="line2d_36">
      <g>
       <use style="stroke:#000000;stroke-width:0.5;" x="409.64146424" xlink:href="#m728421d6d4" y="309.995459662"/>
      </g>
     </g>
     <g id="text_31">
      <!-- 3.0 -->
      <g transform="translate(381.74458924 314.995459662)scale(0.2 -0.2)">
       <use xlink:href="#Cmr10-33"/>
       <use x="50.0" xlink:href="#Cmr10-2e"/>
       <use x="77.685546875" xlink:href="#Cmr10-30"/>
      </g>
     </g>
    </g>
    <g id="ytick_17">
     <g id="line2d_37">
      <g>
       <use style="stroke:#000000;stroke-width:0.5;" x="409.64146424" xlink:href="#m728421d6d4" y="261.238424015"/>
      </g>
     </g>
     <g id="text_32">
      <!-- 4.5 -->
      <g transform="translate(381.67583924 266.238424015)scale(0.2 -0.2)">
       <use xlink:href="#Cmr10-34"/>
       <use x="50.0" xlink:href="#Cmr10-2e"/>
       <use x="77.685546875" xlink:href="#Cmr10-35"/>
      </g>
     </g>
    </g>
    <g id="text_33">
     <!-- $\sigma$ (mm) -->
     <g transform="translate(371.67583924 359.747804878)rotate(-90.0)scale(0.2 -0.2)">
      <use xlink:href="#Cmmi10-be"/>
      <use transform="translate(57.080078125 0.0)" xlink:href="#Cmr10-20"/>
      <use transform="translate(90.380859375 0.0)" xlink:href="#Cmr10-28"/>
      <use transform="translate(129.19921875 0.0)" xlink:href="#Cmr10-6d"/>
      <use transform="translate(212.5 0.0)" xlink:href="#Cmr10-6d"/>
      <use transform="translate(295.80078125 0.0)" xlink:href="#Cmr10-29"/>
     </g>
    </g>
   </g>
  </g>
 </g>
 <defs>
  <clipPath id="pce113a9b0f">
   <rect height="169.024390244" width="238.21853576" x="414.64146424" y="241.735609756"/>
  </clipPath>
  <clipPath id="pe96c00adc2">
   <rect height="169.024390244" width="238.21853576" x="89.9496" y="50.4"/>
  </clipPath>
  <clipPath id="p259dea28f6">
   <rect height="169.024390244" width="238.21853576" x="89.9496" y="241.735609756"/>
  </clipPath>
  <clipPath id="p1b110e1c8b">
   <rect height="169.024390244" width="238.21853576" x="414.64146424" y="50.4"/>
  </clipPath>
 </defs>
</svg>
