<?xml version="1.0" encoding="utf-8" standalone="no"?>
<!DOCTYPE svg PUBLIC "-//W3C//DTD SVG 1.1//EN"
  "http://www.w3.org/Graphics/SVG/1.1/DTD/svg11.dtd">
<!-- Created with matplotlib (http://matplotlib.org/) -->
<svg height="216pt" version="1.1" viewBox="0 0 360 216" width="360pt" xmlns="http://www.w3.org/2000/svg" xmlns:xlink="http://www.w3.org/1999/xlink">
 <defs>
  <style type="text/css">
*{stroke-linecap:butt;stroke-linejoin:round;}
  </style>
 </defs>
 <g id="figure_1">
  <g id="patch_1">
   <path d="
M0 216
L360 216
L360 0
L0 0
z
" style="fill:#ffffff;"/>
  </g>
  <g id="axes_1">
   <g id="patch_2">
    <path d="
M72 172.8
L324 172.8
L324 21.6
L72 21.6
z
" style="fill:#ffffff;"/>
   </g>
   <g id="patch_3">
    <path clip-path="url(#p5fdc19402c)" d="
M83.005 169.892
L105.585 169.892
L105.585 169.529
L83.005 169.529
z
" style="fill:#d3d3d3;stroke:#000000;stroke-linejoin:miter;stroke-width:3;"/>
   </g>
   <g id="patch_4">
    <path clip-path="url(#p5fdc19402c)" d="
M105.585 169.892
L128.165 169.892
L128.165 168.984
L105.585 168.984
z
" style="fill:#d3d3d3;stroke:#000000;stroke-linejoin:miter;stroke-width:3;"/>
   </g>
   <g id="patch_5">
    <path clip-path="url(#p5fdc19402c)" d="
M128.165 169.892
L150.745 169.892
L150.745 167.53
L128.165 167.53
z
" style="fill:#d3d3d3;stroke:#000000;stroke-linejoin:miter;stroke-width:3;"/>
   </g>
   <g id="patch_6">
    <path clip-path="url(#p5fdc19402c)" d="
M150.745 169.892
L173.325 169.892
L173.325 165.894
L150.745 165.894
z
" style="fill:#d3d3d3;stroke:#000000;stroke-linejoin:miter;stroke-width:3;"/>
   </g>
   <g id="patch_7">
    <path clip-path="url(#p5fdc19402c)" d="
M173.325 169.892
L195.905 169.892
L195.905 159.897
L173.325 159.897
z
" style="fill:#d3d3d3;stroke:#000000;stroke-linejoin:miter;stroke-width:3;"/>
   </g>
   <g id="patch_8">
    <path clip-path="url(#p5fdc19402c)" d="
M195.905 169.892
L218.485 169.892
L218.485 149.175
L195.905 149.175
z
" style="fill:#d3d3d3;stroke:#000000;stroke-linejoin:miter;stroke-width:3;"/>
   </g>
   <g id="patch_9">
    <path clip-path="url(#p5fdc19402c)" d="
M218.485 169.892
L241.065 169.892
L241.065 125.732
L218.485 125.732
z
" style="fill:#d3d3d3;stroke:#000000;stroke-linejoin:miter;stroke-width:3;"/>
   </g>
   <g id="patch_10">
    <path clip-path="url(#p5fdc19402c)" d="
M241.065 169.892
L263.646 169.892
L263.646 80.8442
L241.065 80.8442
z
" style="fill:#d3d3d3;stroke:#000000;stroke-linejoin:miter;stroke-width:3;"/>
   </g>
   <g id="patch_11">
    <path clip-path="url(#p5fdc19402c)" d="
M263.646 169.892
L286.226 169.892
L286.226 28.5058
L263.646 28.5058
z
" style="fill:#d3d3d3;stroke:#000000;stroke-linejoin:miter;stroke-width:3;"/>
   </g>
   <g id="patch_12">
    <path clip-path="url(#p5fdc19402c)" d="
M286.226 169.892
L308.806 169.892
L308.806 119.371
L286.226 119.371
z
" style="fill:#d3d3d3;stroke:#000000;stroke-linejoin:miter;stroke-width:3;"/>
   </g>
   <g id="patch_13">
    <path d="
M72 21.6
L324 21.6" style="fill:none;"/>
   </g>
   <g id="patch_14">
    <path d="
M324 172.8
L324 21.6" style="fill:none;"/>
   </g>
   <g id="patch_15">
    <path d="
M76.8462 177.8
L308.806 177.8" style="fill:none;stroke:#000000;stroke-linecap:square;stroke-linejoin:miter;"/>
   </g>
   <g id="patch_16">
    <path d="
M67 169.892
L67 28.5058" style="fill:none;stroke:#000000;stroke-linecap:square;stroke-linejoin:miter;"/>
   </g>
   <g id="matplotlib.axis_1">
    <g id="xtick_1">
     <g id="line2d_1">
      <defs>
       <path d="
M0 0
L0 -4" id="m93b0483c22" style="stroke:#000000;stroke-width:0.5;"/>
      </defs>
      <g>
       <use style="stroke:#000000;stroke-width:0.5;" x="76.8461538462" xlink:href="#m93b0483c22" y="177.8"/>
      </g>
     </g>
     <g id="text_1">
      <!-- -5.0 -->
      <defs>
       <path d="
M25 -2.20312
Q12.75 -2.20312 8.32812 7.875
Q3.90625 17.9688 3.90625 31.8906
Q3.90625 40.5781 5.48438 48.2344
Q7.07812 55.9062 11.7812 61.25
Q16.5 66.6094 25 66.6094
Q31.5938 66.6094 35.7812 63.375
Q39.9844 60.1562 42.1875 55.0469
Q44.3906 49.9531 45.1875 44.1094
Q46 38.2812 46 31.8906
Q46 23.2969 44.4062 15.7969
Q42.8281 8.29688 38.1875 3.04688
Q33.5469 -2.20312 25 -2.20312
M25 0.390625
Q30.5625 0.390625 33.2969 6.09375
Q36.0312 11.8125 36.6719 18.75
Q37.3125 25.6875 37.3125 33.5
Q37.3125 41.0156 36.6719 47.3594
Q36.0312 53.7188 33.3125 58.8594
Q30.6094 64.0156 25 64.0156
Q19.3438 64.0156 16.6094 58.8281
Q13.875 53.6562 13.2344 47.3281
Q12.5938 41.0156 12.5938 33.5
Q12.5938 27.9375 12.8594 23
Q13.1406 18.0625 14.3125 12.8125
Q15.4844 7.5625 18.0938 3.96875
Q20.7031 0.390625 25 0.390625" id="Cmr10-30"/>
       <path d="
M1.125 18.5
L1.125 24.7031
L27.5938 24.7031
L27.5938 18.5
z
" id="Cmr10-2d"/>
       <path d="
M8.40625 5.51562
Q8.40625 7.76562 10.0625 9.375
Q11.7188 10.9844 13.9219 10.9844
Q15.2812 10.9844 16.5938 10.25
Q17.9219 9.51562 18.6562 8.20312
Q19.3906 6.89062 19.3906 5.51562
Q19.3906 3.32812 17.7656 1.65625
Q16.1562 0 13.9219 0
Q11.7188 0 10.0625 1.65625
Q8.40625 3.32812 8.40625 5.51562" id="Cmr10-2e"/>
       <path d="
M8.6875 11.375
Q9.71875 8.45312 11.8438 6.04688
Q13.9688 3.65625 16.875 2.3125
Q19.7812 0.984375 22.9062 0.984375
Q30.125 0.984375 32.8594 6.59375
Q35.5938 12.2031 35.5938 20.2188
Q35.5938 23.6875 35.4688 26.0469
Q35.3594 28.4219 34.8125 30.6094
Q33.8906 34.125 31.5625 36.7656
Q29.25 39.4062 25.875 39.4062
Q22.5156 39.4062 20.0938 38.375
Q17.6719 37.3594 16.1562 35.9844
Q14.6562 34.625 13.4844 33.1094
Q12.3125 31.5938 12.0156 31.5
L10.8906 31.5
Q10.6406 31.5 10.2656 31.8125
Q9.90625 32.125 9.90625 32.4219
L9.90625 65.8281
Q9.90625 66.0625 10.2188 66.3281
Q10.5469 66.6094 10.8906 66.6094
L11.1875 66.6094
Q17.9219 63.375 25.4844 63.375
Q32.9062 63.375 39.7969 66.6094
L40.0938 66.6094
Q40.4375 66.6094 40.7188 66.3594
Q41.0156 66.1094 41.0156 65.8281
L41.0156 64.8906
Q41.0156 64.4062 40.8281 64.4062
Q37.4062 59.8594 32.25 57.3125
Q27.0938 54.7812 21.5781 54.7812
Q17.5781 54.7812 13.375 55.9062
L13.375 37.0156
Q16.7031 39.7031 19.3125 40.8438
Q21.9219 42 25.9844 42
Q31.5 42 35.8594 38.8125
Q40.2344 35.6406 42.5781 30.5312
Q44.9219 25.4375 44.9219 20.125
Q44.9219 14.1094 41.9688 8.98438
Q39.0156 3.85938 33.9375 0.828125
Q28.8594 -2.20312 22.9062 -2.20312
Q17.9688 -2.20312 13.8438 0.328125
Q9.71875 2.875 7.34375 7.17188
Q4.98438 11.4688 4.98438 16.3125
Q4.98438 18.5625 6.4375 19.9688
Q7.90625 21.3906 10.1094 21.3906
Q12.3125 21.3906 13.7969 19.9375
Q15.2812 18.5 15.2812 16.3125
Q15.2812 14.1562 13.7969 12.6719
Q12.3125 11.1875 10.1094 11.1875
Q9.76562 11.1875 9.32812 11.25
Q8.89062 11.3281 8.6875 11.375" id="Cmr10-35"/>
      </defs>
      <g transform="translate(61.2602163462 195.678125)scale(0.2 -0.2)">
       <use xlink:href="#Cmr10-2d"/>
       <use x="33.30078125" xlink:href="#Cmr10-35"/>
       <use x="83.30078125" xlink:href="#Cmr10-2e"/>
       <use x="110.986328125" xlink:href="#Cmr10-30"/>
      </g>
     </g>
    </g>
    <g id="xtick_2">
     <g id="line2d_2">
      <g>
       <use style="stroke:#000000;stroke-width:0.5;" x="144.153846154" xlink:href="#m93b0483c22" y="177.8"/>
      </g>
     </g>
     <g id="text_2">
      <!-- -2.5 -->
      <defs>
       <path d="
M4.98438 0
L4.98438 2.6875
Q4.98438 2.9375 5.17188 3.21875
L20.7031 20.4062
Q24.2188 24.2188 26.4062 26.7969
Q28.6094 29.3906 30.75 32.7656
Q32.9062 36.1406 34.1562 39.625
Q35.4062 43.1094 35.4062 47.0156
Q35.4062 51.125 33.8906 54.8594
Q32.375 58.5938 29.375 60.8438
Q26.375 63.0938 22.125 63.0938
Q17.7812 63.0938 14.3125 60.4688
Q10.8438 57.8594 9.42188 53.7188
Q9.8125 53.8125 10.5 53.8125
Q12.75 53.8125 14.3281 52.2969
Q15.9219 50.7812 15.9219 48.3906
Q15.9219 46.0938 14.3281 44.5
Q12.75 42.9219 10.5 42.9219
Q8.15625 42.9219 6.5625 44.5469
Q4.98438 46.1875 4.98438 48.3906
Q4.98438 52.1562 6.39062 55.4375
Q7.8125 58.7344 10.4688 61.2969
Q13.1406 63.875 16.4844 65.2344
Q19.8281 66.6094 23.5781 66.6094
Q29.2969 66.6094 34.2188 64.1875
Q39.1562 61.7656 42.0312 57.3438
Q44.9219 52.9375 44.9219 47.0156
Q44.9219 42.6719 43.0156 38.7656
Q41.1094 34.8594 38.125 31.6562
Q35.1562 28.4688 30.5156 24.4062
Q25.875 20.3594 24.4219 19
L13.0938 8.10938
L22.7031 8.10938
Q29.7812 8.10938 34.5469 8.21875
Q39.3125 8.34375 39.5938 8.59375
Q40.7656 9.85938 42 17.8281
L44.9219 17.8281
L42.0938 0
z
" id="Cmr10-32"/>
      </defs>
      <g transform="translate(128.675721154 195.678125)scale(0.2 -0.2)">
       <use xlink:href="#Cmr10-2d"/>
       <use x="33.30078125" xlink:href="#Cmr10-32"/>
       <use x="83.30078125" xlink:href="#Cmr10-2e"/>
       <use x="110.986328125" xlink:href="#Cmr10-35"/>
      </g>
     </g>
    </g>
    <g id="xtick_3">
     <g id="line2d_3">
      <g>
       <use style="stroke:#000000;stroke-width:0.5;" x="211.461538462" xlink:href="#m93b0483c22" y="177.8"/>
      </g>
     </g>
     <g id="text_3">
      <!-- 0.0 -->
      <g transform="translate(199.483413462 195.678125)scale(0.2 -0.2)">
       <use xlink:href="#Cmr10-30"/>
       <use x="50.0" xlink:href="#Cmr10-2e"/>
       <use x="77.685546875" xlink:href="#Cmr10-30"/>
      </g>
     </g>
    </g>
    <g id="xtick_4">
     <g id="line2d_4">
      <g>
       <use style="stroke:#000000;stroke-width:0.5;" x="278.769230769" xlink:href="#m93b0483c22" y="177.8"/>
      </g>
     </g>
     <g id="text_4">
      <!-- 2.5 -->
      <g transform="translate(267.006730769 195.678125)scale(0.2 -0.2)">
       <use xlink:href="#Cmr10-32"/>
       <use x="50.0" xlink:href="#Cmr10-2e"/>
       <use x="77.685546875" xlink:href="#Cmr10-35"/>
      </g>
     </g>
    </g>
    <g id="text_5">
     <!-- xlabel (unit) -->
     <defs>
      <path id="Cmr10-20"/>
      <path d="
M31 -24.8125
Q25.4375 -20.4062 21.4062 -14.7188
Q17.3906 -9.03125 14.8125 -2.57812
Q12.25 3.85938 10.9844 10.8906
Q9.71875 17.9219 9.71875 25
Q9.71875 32.1719 10.9844 39.2031
Q12.25 46.2344 14.8594 52.7344
Q17.4844 59.2344 21.5312 64.8906
Q25.5938 70.5625 31 74.8125
Q31 75 31.5 75
L32.4219 75
Q32.7188 75 32.9531 74.7344
Q33.2031 74.4688 33.2031 74.125
Q33.2031 73.6875 33.0156 73.4844
Q28.125 68.7031 24.875 63.2344
Q21.625 57.7656 19.6406 51.5781
Q17.6719 45.4062 16.7969 38.7812
Q15.9219 32.1719 15.9219 25
Q15.9219 -6.78125 32.9062 -23.2969
Q33.2031 -23.5781 33.2031 -24.125
Q33.2031 -24.3594 32.9375 -24.6719
Q32.6719 -25 32.4219 -25
L31.5 -25
Q31 -25 31 -24.8125" id="Cmr10-28"/>
      <path d="
M2.98438 0
L2.98438 3.51562
Q6.39062 3.51562 8.59375 4.04688
Q10.7969 4.59375 10.7969 6.6875
L10.7969 33.9844
Q10.7969 36.6719 9.98438 37.8594
Q9.1875 39.0625 7.67188 39.3281
Q6.15625 39.5938 2.98438 39.5938
L2.98438 43.1094
L17.4844 44.1875
L17.4844 34.4219
Q19.4844 38.7188 23.4062 41.4531
Q27.3438 44.1875 31.9844 44.1875
Q38.9219 44.1875 42.4062 40.8594
Q45.9062 37.5469 45.9062 30.7188
L45.9062 6.6875
Q45.9062 4.59375 48.0938 4.04688
Q50.2969 3.51562 53.7188 3.51562
L53.7188 0
L30.8125 0
L30.8125 3.51562
Q34.2344 3.51562 36.4219 4.04688
Q38.625 4.59375 38.625 6.6875
L38.625 30.4219
Q38.625 35.2969 37.2031 38.4531
Q35.7969 41.6094 31.3906 41.6094
Q25.5938 41.6094 21.8438 36.9688
Q18.1094 32.3281 18.1094 26.4219
L18.1094 6.6875
Q18.1094 4.59375 20.3125 4.04688
Q22.5156 3.51562 25.875 3.51562
L25.875 0
z
" id="Cmr10-6e"/>
      <path d="
M6.5 -25
Q5.60938 -25 5.60938 -24.125
Q5.60938 -23.6875 5.8125 -23.4844
Q22.9062 -6.78125 22.9062 25
Q22.9062 56.7812 6 73.2969
Q5.60938 73.5312 5.60938 74.125
Q5.60938 74.4688 5.875 74.7344
Q6.15625 75 6.5 75
L7.42188 75
Q7.71875 75 7.90625 74.8125
Q15.0938 69.1406 19.875 61.0312
Q24.6562 52.9375 26.875 43.75
Q29.1094 34.5781 29.1094 25
Q29.1094 17.9219 27.9062 11.0625
Q26.7031 4.20312 24.0938 -2.45312
Q21.4844 -9.125 17.4844 -14.7656
Q13.4844 -20.4062 7.90625 -24.8125
Q7.71875 -25 7.42188 -25
z
" id="Cmr10-29"/>
      <path d="
M3.07812 0
L3.07812 3.51562
Q6.5 3.51562 8.6875 4.04688
Q10.8906 4.59375 10.8906 6.6875
L10.8906 59.1875
Q10.8906 61.8594 10.0781 63.0625
Q9.28125 64.2656 7.76562 64.5312
Q6.25 64.7969 3.07812 64.7969
L3.07812 68.3125
L17.9219 69.3906
L17.9219 6.6875
Q17.9219 4.59375 20.1094 4.04688
Q22.3125 3.51562 25.6875 3.51562
L25.6875 0
z
" id="Cmr10-6c"/>
      <path d="
M3.07812 0
L3.07812 3.51562
Q6.5 3.51562 8.6875 4.04688
Q10.8906 4.59375 10.8906 6.6875
L10.8906 33.9844
Q10.8906 37.8438 9.39062 38.7188
Q7.90625 39.5938 3.51562 39.5938
L3.51562 43.1094
L17.9219 44.1875
L17.9219 6.6875
Q17.9219 4.59375 19.8281 4.04688
Q21.7344 3.51562 24.9062 3.51562
L24.9062 0
z

M7.32812 61.375
Q7.32812 63.5781 8.98438 65.2344
Q10.6406 66.8906 12.7969 66.8906
Q14.2031 66.8906 15.5156 66.1562
Q16.8438 65.4375 17.5781 64.1094
Q18.3125 62.7969 18.3125 61.375
Q18.3125 59.2344 16.6406 57.5625
Q14.9844 55.9062 12.7969 55.9062
Q10.6406 55.9062 8.98438 57.5625
Q7.32812 59.2344 7.32812 61.375" id="Cmr10-69"/>
      <path d="
M1.21875 0
L1.21875 3.51562
Q5.03125 3.51562 8.39062 5
Q11.7656 6.5 14.1094 9.42188
L23.1875 21
L11.375 36.375
Q9.625 38.5781 7.54688 39.0781
Q5.46875 39.5938 1.70312 39.5938
L1.70312 43.1094
L22.5156 43.1094
L22.5156 39.5938
Q21.1875 39.5938 20.0312 39
Q18.8906 38.4219 18.8906 37.3125
Q18.8906 36.9219 19.1875 36.375
L27.2031 25.9844
L33.2031 33.6875
Q34.4219 35.1562 34.4219 36.625
Q34.4219 37.8438 33.6094 38.7188
Q32.8125 39.5938 31.5 39.5938
L31.5 43.1094
L49.9062 43.1094
L49.9062 39.5938
Q46.0469 39.5938 42.6562 38.1094
Q39.2656 36.625 36.9219 33.6875
L29 23.5781
L41.7969 6.6875
Q43.7031 4.5 45.75 4
Q47.7969 3.51562 51.6094 3.51562
L51.6094 0
L30.8125 0
L30.8125 3.51562
Q32.0312 3.51562 33.1562 4.09375
Q34.2812 4.6875 34.2812 5.8125
Q34.2812 6.25 33.9844 6.6875
L25 18.6094
L17.8281 9.42188
Q16.7031 8.15625 16.7031 6.5
Q16.7031 5.28125 17.5312 4.39062
Q18.3594 3.51562 19.4844 3.51562
L19.4844 0
z
" id="Cmr10-78"/>
      <path d="
M24.9062 -1.125
Q18.7969 -1.125 13.6875 2.07812
Q8.59375 5.28125 5.6875 10.625
Q2.78125 15.9688 2.78125 21.9219
Q2.78125 27.7812 5.4375 33.0469
Q8.10938 38.3281 12.8594 41.5781
Q17.625 44.8281 23.4844 44.8281
Q28.0781 44.8281 31.4688 43.2812
Q34.8594 41.75 37.0625 39.0156
Q39.2656 36.2812 40.375 32.5625
Q41.5 28.8594 41.5 24.4219
Q41.5 23.0938 40.4844 23.0938
L11.5312 23.0938
L11.5312 22.0156
Q11.5312 13.7188 14.875 7.76562
Q18.2188 1.8125 25.7812 1.8125
Q28.8594 1.8125 31.4688 3.17188
Q34.0781 4.54688 36 6.98438
Q37.9375 9.42188 38.625 12.2031
Q38.7188 12.5469 38.9844 12.8125
Q39.2656 13.0938 39.5938 13.0938
L40.4844 13.0938
Q41.5 13.0938 41.5 11.8125
Q40.0938 6.15625 35.4062 2.51562
Q30.7188 -1.125 24.9062 -1.125
M11.625 25.5938
L34.4219 25.5938
Q34.4219 29.3438 33.375 33.2031
Q32.3281 37.0625 29.875 39.625
Q27.4375 42.1875 23.4844 42.1875
Q17.8281 42.1875 14.7188 36.8906
Q11.625 31.5938 11.625 25.5938" id="Cmr10-65"/>
      <path d="
M10.7969 11.9219
L10.7969 33.9844
Q10.7969 36.6719 9.98438 37.8594
Q9.1875 39.0625 7.67188 39.3281
Q6.15625 39.5938 2.98438 39.5938
L2.98438 43.1094
L18.1094 44.1875
L18.1094 11.9219
Q18.1094 8.01562 18.6719 5.82812
Q19.2344 3.65625 21.0625 2.57812
Q22.9062 1.51562 26.9062 1.51562
Q32.2812 1.51562 35.4531 6
Q38.625 10.5 38.625 16.2188
L38.625 33.9844
Q38.625 36.6719 37.7969 37.8594
Q36.9688 39.0625 35.4688 39.3281
Q33.9844 39.5938 30.8125 39.5938
L30.8125 43.1094
L45.9062 44.1875
L45.9062 9.07812
Q45.9062 6.45312 46.7031 5.25
Q47.5156 4.04688 49.0156 3.78125
Q50.5312 3.51562 53.7188 3.51562
L53.7188 0
L38.9219 -1.125
L38.9219 7.32812
Q37.0625 3.5625 33.7344 1.21875
Q30.4219 -1.125 26.4219 -1.125
Q19.2344 -1.125 15.0156 1.92188
Q10.7969 4.98438 10.7969 11.9219" id="Cmr10-75"/>
      <path d="
M10.2031 12.0156
L10.2031 39.5938
L1.90625 39.5938
L1.90625 42.1875
Q8.45312 42.1875 11.5156 48.2812
Q14.5938 54.3906 14.5938 61.5312
L17.4844 61.5312
L17.4844 43.1094
L31.5938 43.1094
L31.5938 39.5938
L17.4844 39.5938
L17.4844 12.2031
Q17.4844 8.0625 18.875 4.9375
Q20.2656 1.8125 23.875 1.8125
Q27.2969 1.8125 28.8125 5.10938
Q30.3281 8.40625 30.3281 12.2031
L30.3281 18.1094
L33.2031 18.1094
L33.2031 12.0156
Q33.2031 8.89062 32.0469 5.82812
Q30.9062 2.78125 28.6562 0.828125
Q26.4219 -1.125 23.1875 -1.125
Q17.1875 -1.125 13.6875 2.46875
Q10.2031 6.0625 10.2031 12.0156" id="Cmr10-74"/>
      <path d="
M4 9.8125
Q4 15.7656 8.6875 19.5
Q13.375 23.25 19.9375 24.7812
Q26.5156 26.3125 32.4219 26.3125
L32.4219 30.4219
Q32.4219 33.2969 31.1562 36
Q29.8906 38.7188 27.4844 40.4531
Q25.0938 42.1875 22.2188 42.1875
Q15.5781 42.1875 12.1094 39.2031
Q14.0156 39.2031 15.25 37.7656
Q16.5 36.3281 16.5 34.4219
Q16.5 32.4219 15.0781 31
Q13.6719 29.5938 11.7188 29.5938
Q9.71875 29.5938 8.29688 31
Q6.89062 32.4219 6.89062 34.4219
Q6.89062 39.7031 11.6719 42.2656
Q16.4531 44.8281 22.2188 44.8281
Q26.2656 44.8281 30.3594 43.0938
Q34.4688 41.3594 37.0781 38.125
Q39.7031 34.9062 39.7031 30.6094
L39.7031 8.10938
Q39.7031 6.15625 40.5312 4.51562
Q41.3594 2.875 43.1094 2.875
Q44.7812 2.875 45.5781 4.53125
Q46.3906 6.20312 46.3906 8.10938
L46.3906 14.5
L49.3125 14.5
L49.3125 8.10938
Q49.3125 5.85938 48.1406 3.82812
Q46.9688 1.8125 44.9844 0.609375
Q43.0156 -0.59375 40.7188 -0.59375
Q37.7969 -0.59375 35.6719 1.67188
Q33.5469 3.95312 33.2969 7.07812
Q31.4531 3.32812 27.8281 1.09375
Q24.2188 -1.125 20.125 -1.125
Q16.3125 -1.125 12.625 0
Q8.9375 1.125 6.46875 3.53125
Q4 5.95312 4 9.8125
M12.1094 9.8125
Q12.1094 6.29688 14.6875 3.90625
Q17.2812 1.51562 20.7969 1.51562
Q24.0312 1.51562 26.6562 3.125
Q29.2969 4.73438 30.8594 7.51562
Q32.4219 10.2969 32.4219 13.375
L32.4219 23.7812
Q27.875 23.7812 23.1094 22.2812
Q18.3594 20.7969 15.2344 17.625
Q12.1094 14.4531 12.1094 9.8125" id="Cmr10-61"/>
      <path d="
M10.4062 0
L10.4062 59.1875
Q10.4062 61.8594 9.59375 63.0625
Q8.79688 64.2656 7.28125 64.5312
Q5.76562 64.7969 2.59375 64.7969
L2.59375 68.3125
L17.3906 69.3906
L17.3906 38.0938
Q19.0469 39.9375 21.2656 41.3281
Q23.4844 42.7188 26.0156 43.4531
Q28.5625 44.1875 31.2031 44.1875
Q35.6875 44.1875 39.5156 42.375
Q43.3594 40.5781 46.1875 37.4062
Q49.0312 34.2344 50.6094 30.1094
Q52.2031 25.9844 52.2031 21.5781
Q52.2031 15.5312 49.25 10.2969
Q46.2969 5.07812 41.1875 1.96875
Q36.0781 -1.125 29.9844 -1.125
Q26.1719 -1.125 22.6094 0.828125
Q19.0469 2.78125 16.7031 6
L13.2812 0
z

M17.6719 9.8125
Q19.3438 6.15625 22.4688 3.82812
Q25.5938 1.51562 29.3906 1.51562
Q34.5781 1.51562 37.7656 4.48438
Q40.9688 7.46875 42.2344 12
Q43.5 16.5469 43.5 21.5781
Q43.5 30.0312 41.3125 34.4219
Q40.3281 36.375 38.6406 38.0312
Q36.9688 39.7031 34.8906 40.6562
Q32.8125 41.6094 30.5156 41.6094
Q26.5156 41.6094 23.0938 39.4844
Q19.6719 37.3594 17.6719 33.7969
z
" id="Cmr10-62"/>
     </defs>
     <g transform="translate(144.328125 219.55625)scale(0.2 -0.2)">
      <use xlink:href="#Cmr10-78"/>
      <use x="52.685546875" xlink:href="#Cmr10-6c"/>
      <use x="80.37109375" xlink:href="#Cmr10-61"/>
      <use x="130.37109375" xlink:href="#Cmr10-62"/>
      <use x="185.888671875" xlink:href="#Cmr10-65"/>
      <use x="230.2734375" xlink:href="#Cmr10-6c"/>
      <use x="257.958984375" xlink:href="#Cmr10-20"/>
      <use x="291.259765625" xlink:href="#Cmr10-28"/>
      <use x="330.078125" xlink:href="#Cmr10-75"/>
      <use x="385.595703125" xlink:href="#Cmr10-6e"/>
      <use x="441.11328125" xlink:href="#Cmr10-69"/>
      <use x="468.798828125" xlink:href="#Cmr10-74"/>
      <use x="507.6171875" xlink:href="#Cmr10-29"/>
     </g>
    </g>
   </g>
   <g id="matplotlib.axis_2">
    <g id="ytick_1">
     <g id="line2d_5">
      <defs>
       <path d="
M0 0
L4 0" id="m728421d6d4" style="stroke:#000000;stroke-width:0.5;"/>
      </defs>
      <g>
       <use style="stroke:#000000;stroke-width:0.5;" x="67.0" xlink:href="#m728421d6d4" y="169.892307692"/>
      </g>
     </g>
     <g id="text_6">
      <!-- 0 -->
      <g transform="translate(54.58125 174.892307692)scale(0.2 -0.2)">
       <use xlink:href="#Cmr10-30"/>
      </g>
     </g>
    </g>
    <g id="ytick_2">
     <g id="line2d_6">
      <g>
       <use style="stroke:#000000;stroke-width:0.5;" x="67.0" xlink:href="#m728421d6d4" y="124.459615385"/>
      </g>
     </g>
     <g id="text_7">
      <!-- 250 -->
      <g transform="translate(34.796875 129.459615385)scale(0.2 -0.2)">
       <use xlink:href="#Cmr10-32"/>
       <use x="50.0" xlink:href="#Cmr10-35"/>
       <use x="100.0" xlink:href="#Cmr10-30"/>
      </g>
     </g>
    </g>
    <g id="ytick_3">
     <g id="line2d_7">
      <g>
       <use style="stroke:#000000;stroke-width:0.5;" x="67.0" xlink:href="#m728421d6d4" y="79.0269230769"/>
      </g>
     </g>
     <g id="text_8">
      <!-- 500 -->
      <g transform="translate(34.796875 84.0269230769)scale(0.2 -0.2)">
       <use xlink:href="#Cmr10-35"/>
       <use x="50.0" xlink:href="#Cmr10-30"/>
       <use x="100.0" xlink:href="#Cmr10-30"/>
      </g>
     </g>
    </g>
    <g id="ytick_4">
     <g id="line2d_8">
      <g>
       <use style="stroke:#000000;stroke-width:0.5;" x="67.0" xlink:href="#m728421d6d4" y="33.5942307692"/>
      </g>
     </g>
     <g id="text_9">
      <!-- 750 -->
      <defs>
       <path d="
M17.3906 2.59375
Q17.3906 8.15625 18.3594 13.4688
Q19.3438 18.7969 21.2188 24
Q23.0938 29.2031 25.75 34.2031
Q28.4219 39.2031 31.5938 43.6094
L40.7188 56.2969
L29.2969 56.2969
Q11.5312 56.2969 10.9844 55.8125
Q9.67188 54.2031 8.5 46.5781
L5.60938 46.5781
L8.89062 67.5781
L11.8125 67.5781
L11.8125 67.2812
Q11.8125 65.4844 17.9219 64.9375
Q24.0312 64.4062 29.8906 64.4062
L48.4844 64.4062
L48.4844 61.8125
Q48.4844 61.7188 48.4531 61.6719
Q48.4375 61.625 48.3906 61.5312
L34.625 42.1875
Q29.5469 34.6719 28.2656 25.4844
Q27 16.3125 27 2.59375
Q27 0.640625 25.5781 -0.78125
Q24.1719 -2.20312 22.2188 -2.20312
Q20.2188 -2.20312 18.7969 -0.78125
Q17.3906 0.640625 17.3906 2.59375" id="Cmr10-37"/>
      </defs>
      <g transform="translate(34.921875 38.5942307692)scale(0.2 -0.2)">
       <use xlink:href="#Cmr10-37"/>
       <use x="50.0" xlink:href="#Cmr10-35"/>
       <use x="100.0" xlink:href="#Cmr10-30"/>
      </g>
     </g>
    </g>
    <g id="text_10">
     <!-- ylabel (#) -->
     <defs>
      <path d="
M16.7031 -17.3906
Q16.7031 -17.1875 16.7969 -17
L24.9062 13.2812
L7.51562 13.2812
Q6.6875 13.2812 6.14062 13.9062
Q5.60938 14.5469 5.60938 15.2812
Q5.60938 16.1094 6.14062 16.6875
Q6.6875 17.2812 7.51562 17.2812
L26.125 17.2812
L30.0781 32.7188
L7.51562 32.7188
Q6.6875 32.7188 6.14062 33.2969
Q5.60938 33.8906 5.60938 34.7188
Q5.60938 35.4531 6.14062 36.0781
Q6.6875 36.7188 7.51562 36.7188
L31.2969 36.7188
L39.7031 67.9219
Q39.8438 68.5625 40.3594 68.9688
Q40.875 69.3906 41.6094 69.3906
Q42.4375 69.3906 43.0156 68.7969
Q43.6094 68.2188 43.6094 67.3906
L43.6094 67
L35.4062 36.7188
L54.2031 36.7188
L62.5938 67.9219
Q62.75 68.5625 63.25 68.9688
Q63.7656 69.3906 64.5 69.3906
Q65.3281 69.3906 65.9062 68.7969
Q66.5 68.2188 66.5 67.3906
L66.5 67
L58.2969 36.7188
L75.7812 36.7188
Q76.5625 36.7188 77.0781 36.0781
Q77.5938 35.4531 77.5938 34.7188
Q77.5938 33.8906 77.0781 33.2969
Q76.5625 32.7188 75.7812 32.7188
L57.0781 32.7188
L53.0781 17.2812
L75.7812 17.2812
Q76.5625 17.2812 77.0781 16.6875
Q77.5938 16.1094 77.5938 15.2812
Q77.5938 14.5469 77.0781 13.9062
Q76.5625 13.2812 75.7812 13.2812
L51.9062 13.2812
L43.6094 -17.9219
Q43.0625 -19.3906 41.6094 -19.3906
Q40.7656 -19.3906 40.1719 -18.7969
Q39.5938 -18.2188 39.5938 -17.3906
Q39.5938 -17.1875 39.7031 -17
L47.7969 13.2812
L29 13.2812
L20.7031 -17.9219
Q20.1719 -19.3906 18.7031 -19.3906
Q17.875 -19.3906 17.2812 -18.7969
Q16.7031 -18.2188 16.7031 -17.3906
M30.1719 17.2812
L49.0312 17.2812
L52.9844 32.7188
L34.1875 32.7188
z
" id="Cmr10-23"/>
      <path d="
M6.89062 -16.4062
Q8.79688 -17.9219 11.0781 -17.9219
Q17.3906 -17.9219 21.3906 -8.40625
L24.8125 0
L9.8125 36.7188
Q8.89062 38.5781 6.98438 39.0781
Q5.07812 39.5938 1.90625 39.5938
L1.90625 43.1094
L22.9062 43.1094
L22.9062 39.5938
Q17.3906 39.5938 17.3906 37.2031
Q17.3906 36.8125 17.4844 36.625
L28.6094 9.28125
L38.625 33.8906
Q38.9219 34.6719 38.9219 35.5938
Q38.9219 36.8125 38.25 37.7188
Q37.5938 38.625 36.5469 39.1094
Q35.5 39.5938 34.1875 39.5938
L34.1875 43.1094
L50.7812 43.1094
L50.7812 39.5938
Q47.7031 39.5938 45.375 38.1719
Q43.0625 36.7656 41.7969 33.9844
L24.5156 -8.40625
Q23.1406 -11.625 21.3125 -14.3281
Q19.4844 -17.0469 16.8438 -18.7812
Q14.2031 -20.5156 11.0781 -20.5156
Q7.42188 -20.5156 4.65625 -18.0938
Q1.90625 -15.6719 1.90625 -12.1094
Q1.90625 -10.25 3.17188 -8.98438
Q4.4375 -7.71875 6.29688 -7.71875
Q7.5625 -7.71875 8.5625 -8.28125
Q9.57812 -8.84375 10.125 -9.8125
Q10.6875 -10.7969 10.6875 -12.1094
Q10.6875 -13.7188 9.60938 -14.9844
Q8.54688 -16.2656 6.89062 -16.4062" id="Cmr10-79"/>
     </defs>
     <g transform="translate(24.796875 141.4484375)rotate(-90.0)scale(0.2 -0.2)">
      <use xlink:href="#Cmr10-79"/>
      <use x="52.685546875" xlink:href="#Cmr10-6c"/>
      <use x="80.37109375" xlink:href="#Cmr10-61"/>
      <use x="130.37109375" xlink:href="#Cmr10-62"/>
      <use x="185.888671875" xlink:href="#Cmr10-65"/>
      <use x="230.2734375" xlink:href="#Cmr10-6c"/>
      <use x="257.958984375" xlink:href="#Cmr10-20"/>
      <use x="291.259765625" xlink:href="#Cmr10-28"/>
      <use x="330.078125" xlink:href="#Cmr10-23"/>
      <use x="413.37890625" xlink:href="#Cmr10-29"/>
     </g>
    </g>
   </g>
  </g>
 </g>
 <defs>
  <clipPath id="p5fdc19402c">
   <rect height="151.2" width="252.0" x="72.0" y="21.6"/>
  </clipPath>
 </defs>
</svg>
