<?xml version="1.0" encoding="utf-8" standalone="no"?>
<!DOCTYPE svg PUBLIC "-//W3C//DTD SVG 1.1//EN"
  "http://www.w3.org/Graphics/SVG/1.1/DTD/svg11.dtd">
<!-- Created with matplotlib (http://matplotlib.org/) -->
<svg height="216pt" version="1.1" viewBox="0 0 1224 216" width="1224pt" xmlns="http://www.w3.org/2000/svg" xmlns:xlink="http://www.w3.org/1999/xlink">
 <defs>
  <style type="text/css">
*{stroke-linecap:butt;stroke-linejoin:round;}
  </style>
 </defs>
 <g id="figure_1">
  <g id="patch_1">
   <path d="
M0 216
L1224 216
L1224 0
L0 0
z
" style="fill:#ffffff;"/>
  </g>
  <g id="axes_1">
   <g id="patch_2">
    <path d="
M153 172.8
L1101.6 172.8
L1101.6 21.6
L153 21.6
z
" style="fill:#ffffff;"/>
   </g>
   <g id="patch_3">
    <path clip-path="url(#p1d4178a0d1)" d="
M240.099 169.892
L272.789 169.892
L272.789 166.5
L240.099 166.5
z
" style="fill:#0000ff;stroke:#000000;stroke-linejoin:miter;stroke-width:3;"/>
   </g>
   <g id="patch_4">
    <path clip-path="url(#p1d4178a0d1)" d="
M272.789 169.892
L305.479 169.892
L305.479 158.746
L272.789 158.746
z
" style="fill:#0000ff;stroke:#000000;stroke-linejoin:miter;stroke-width:3;"/>
   </g>
   <g id="patch_5">
    <path clip-path="url(#p1d4178a0d1)" d="
M305.479 169.892
L338.17 169.892
L338.17 135.969
L305.479 135.969
z
" style="fill:#0000ff;stroke:#000000;stroke-linejoin:miter;stroke-width:3;"/>
   </g>
   <g id="patch_6">
    <path clip-path="url(#p1d4178a0d1)" d="
M338.17 169.892
L370.86 169.892
L370.86 83.8731
L338.17 83.8731
z
" style="fill:#0000ff;stroke:#000000;stroke-linejoin:miter;stroke-width:3;"/>
   </g>
   <g id="patch_7">
    <path clip-path="url(#p1d4178a0d1)" d="
M370.86 169.892
L403.55 169.892
L403.55 48.7385
L370.86 48.7385
z
" style="fill:#0000ff;stroke:#000000;stroke-linejoin:miter;stroke-width:3;"/>
   </g>
   <g id="patch_8">
    <path clip-path="url(#p1d4178a0d1)" d="
M403.55 169.892
L436.241 169.892
L436.241 56.7346
L403.55 56.7346
z
" style="fill:#0000ff;stroke:#000000;stroke-linejoin:miter;stroke-width:3;"/>
   </g>
   <g id="patch_9">
    <path clip-path="url(#p1d4178a0d1)" d="
M436.241 169.892
L468.931 169.892
L468.931 95.0192
L436.241 95.0192
z
" style="fill:#0000ff;stroke:#000000;stroke-linejoin:miter;stroke-width:3;"/>
   </g>
   <g id="patch_10">
    <path clip-path="url(#p1d4178a0d1)" d="
M468.931 169.892
L501.621 169.892
L501.621 141.542
L468.931 141.542
z
" style="fill:#0000ff;stroke:#000000;stroke-linejoin:miter;stroke-width:3;"/>
   </g>
   <g id="patch_11">
    <path clip-path="url(#p1d4178a0d1)" d="
M501.621 169.892
L534.312 169.892
L534.312 158.988
L501.621 158.988
z
" style="fill:#0000ff;stroke:#000000;stroke-linejoin:miter;stroke-width:3;"/>
   </g>
   <g id="patch_12">
    <path clip-path="url(#p1d4178a0d1)" d="
M534.312 169.892
L567.002 169.892
L567.002 168.196
L534.312 168.196
z
" style="fill:#0000ff;stroke:#000000;stroke-linejoin:miter;stroke-width:3;"/>
   </g>
   <g id="patch_13">
    <path clip-path="url(#p1d4178a0d1)" d="
M278.078 169.892
L314.29 169.892
L314.29 168.438
L278.078 168.438
z
" style="fill:#008000;stroke:#000000;stroke-linejoin:miter;stroke-width:3;"/>
   </g>
   <g id="patch_14">
    <path clip-path="url(#p1d4178a0d1)" d="
M314.29 169.892
L350.503 169.892
L350.503 160.927
L314.29 160.927
z
" style="fill:#008000;stroke:#000000;stroke-linejoin:miter;stroke-width:3;"/>
   </g>
   <g id="patch_15">
    <path clip-path="url(#p1d4178a0d1)" d="
M350.503 169.892
L386.715 169.892
L386.715 129.427
L350.503 129.427
z
" style="fill:#008000;stroke:#000000;stroke-linejoin:miter;stroke-width:3;"/>
   </g>
   <g id="patch_16">
    <path clip-path="url(#p1d4178a0d1)" d="
M386.715 169.892
L422.928 169.892
L422.928 78.0577
L386.715 78.0577
z
" style="fill:#008000;stroke:#000000;stroke-linejoin:miter;stroke-width:3;"/>
   </g>
   <g id="patch_17">
    <path clip-path="url(#p1d4178a0d1)" d="
M422.928 169.892
L459.14 169.892
L459.14 39.0462
L422.928 39.0462
z
" style="fill:#008000;stroke:#000000;stroke-linejoin:miter;stroke-width:3;"/>
   </g>
   <g id="patch_18">
    <path clip-path="url(#p1d4178a0d1)" d="
M459.14 169.892
L495.353 169.892
L495.353 46.3154
L459.14 46.3154
z
" style="fill:#008000;stroke:#000000;stroke-linejoin:miter;stroke-width:3;"/>
   </g>
   <g id="patch_19">
    <path clip-path="url(#p1d4178a0d1)" d="
M495.353 169.892
L531.566 169.892
L531.566 108.346
L495.353 108.346
z
" style="fill:#008000;stroke:#000000;stroke-linejoin:miter;stroke-width:3;"/>
   </g>
   <g id="patch_20">
    <path clip-path="url(#p1d4178a0d1)" d="
M531.566 169.892
L567.778 169.892
L567.778 149.054
L531.566 149.054
z
" style="fill:#008000;stroke:#000000;stroke-linejoin:miter;stroke-width:3;"/>
   </g>
   <g id="patch_21">
    <path clip-path="url(#p1d4178a0d1)" d="
M567.778 169.892
L603.991 169.892
L603.991 165.531
L567.778 165.531
z
" style="fill:#008000;stroke:#000000;stroke-linejoin:miter;stroke-width:3;"/>
   </g>
   <g id="patch_22">
    <path clip-path="url(#p1d4178a0d1)" d="
M603.991 169.892
L640.203 169.892
L640.203 169.165
L603.991 169.165
z
" style="fill:#008000;stroke:#000000;stroke-linejoin:miter;stroke-width:3;"/>
   </g>
   <g id="patch_23">
    <path clip-path="url(#p1d4178a0d1)" d="
M331.535 169.892
L364.53 169.892
L364.53 167.712
L331.535 167.712
z
" style="fill:#ff0000;stroke:#000000;stroke-linejoin:miter;stroke-width:3;"/>
   </g>
   <g id="patch_24">
    <path clip-path="url(#p1d4178a0d1)" d="
M364.53 169.892
L397.526 169.892
L397.526 161.169
L364.53 161.169
z
" style="fill:#ff0000;stroke:#000000;stroke-linejoin:miter;stroke-width:3;"/>
   </g>
   <g id="patch_25">
    <path clip-path="url(#p1d4178a0d1)" d="
M397.526 169.892
L430.521 169.892
L430.521 136.938
L397.526 136.938
z
" style="fill:#ff0000;stroke:#000000;stroke-linejoin:miter;stroke-width:3;"/>
   </g>
   <g id="patch_26">
    <path clip-path="url(#p1d4178a0d1)" d="
M430.521 169.892
L463.517 169.892
L463.517 95.5038
L430.521 95.5038
z
" style="fill:#ff0000;stroke:#000000;stroke-linejoin:miter;stroke-width:3;"/>
   </g>
   <g id="patch_27">
    <path clip-path="url(#p1d4178a0d1)" d="
M463.517 169.892
L496.512 169.892
L496.512 56.25
L463.517 56.25
z
" style="fill:#ff0000;stroke:#000000;stroke-linejoin:miter;stroke-width:3;"/>
   </g>
   <g id="patch_28">
    <path clip-path="url(#p1d4178a0d1)" d="
M496.512 169.892
L529.507 169.892
L529.507 48.0115
L496.512 48.0115
z
" style="fill:#ff0000;stroke:#000000;stroke-linejoin:miter;stroke-width:3;"/>
   </g>
   <g id="patch_29">
    <path clip-path="url(#p1d4178a0d1)" d="
M529.507 169.892
L562.503 169.892
L562.503 94.05
L529.507 94.05
z
" style="fill:#ff0000;stroke:#000000;stroke-linejoin:miter;stroke-width:3;"/>
   </g>
   <g id="patch_30">
    <path clip-path="url(#p1d4178a0d1)" d="
M562.503 169.892
L595.498 169.892
L595.498 128.7
L562.503 128.7
z
" style="fill:#ff0000;stroke:#000000;stroke-linejoin:miter;stroke-width:3;"/>
   </g>
   <g id="patch_31">
    <path clip-path="url(#p1d4178a0d1)" d="
M595.498 169.892
L628.494 169.892
L628.494 158.019
L595.498 158.019
z
" style="fill:#ff0000;stroke:#000000;stroke-linejoin:miter;stroke-width:3;"/>
   </g>
   <g id="patch_32">
    <path clip-path="url(#p1d4178a0d1)" d="
M628.494 169.892
L661.489 169.892
L661.489 167.954
L628.494 167.954
z
" style="fill:#ff0000;stroke:#000000;stroke-linejoin:miter;stroke-width:3;"/>
   </g>
   <g id="patch_33">
    <path clip-path="url(#p1d4178a0d1)" d="
M378.943 169.892
L415.899 169.892
L415.899 168.681
L378.943 168.681
z
" style="fill:#00bfbf;stroke:#000000;stroke-linejoin:miter;stroke-width:3;"/>
   </g>
   <g id="patch_34">
    <path clip-path="url(#p1d4178a0d1)" d="
M415.899 169.892
L452.854 169.892
L452.854 161.169
L415.899 161.169
z
" style="fill:#00bfbf;stroke:#000000;stroke-linejoin:miter;stroke-width:3;"/>
   </g>
   <g id="patch_35">
    <path clip-path="url(#p1d4178a0d1)" d="
M452.854 169.892
L489.81 169.892
L489.81 127.004
L452.854 127.004
z
" style="fill:#00bfbf;stroke:#000000;stroke-linejoin:miter;stroke-width:3;"/>
   </g>
   <g id="patch_36">
    <path clip-path="url(#p1d4178a0d1)" d="
M489.81 169.892
L526.765 169.892
L526.765 70.0615
L489.81 70.0615
z
" style="fill:#00bfbf;stroke:#000000;stroke-linejoin:miter;stroke-width:3;"/>
   </g>
   <g id="patch_37">
    <path clip-path="url(#p1d4178a0d1)" d="
M526.765 169.892
L563.721 169.892
L563.721 39.7731
L526.765 39.7731
z
" style="fill:#00bfbf;stroke:#000000;stroke-linejoin:miter;stroke-width:3;"/>
   </g>
   <g id="patch_38">
    <path clip-path="url(#p1d4178a0d1)" d="
M563.721 169.892
L600.676 169.892
L600.676 50.6769
L563.721 50.6769
z
" style="fill:#00bfbf;stroke:#000000;stroke-linejoin:miter;stroke-width:3;"/>
   </g>
   <g id="patch_39">
    <path clip-path="url(#p1d4178a0d1)" d="
M600.676 169.892
L637.632 169.892
L637.632 108.588
L600.676 108.588
z
" style="fill:#00bfbf;stroke:#000000;stroke-linejoin:miter;stroke-width:3;"/>
   </g>
   <g id="patch_40">
    <path clip-path="url(#p1d4178a0d1)" d="
M637.632 169.892
L674.587 169.892
L674.587 151.962
L637.632 151.962
z
" style="fill:#00bfbf;stroke:#000000;stroke-linejoin:miter;stroke-width:3;"/>
   </g>
   <g id="patch_41">
    <path clip-path="url(#p1d4178a0d1)" d="
M674.587 169.892
L711.543 169.892
L711.543 166.742
L674.587 166.742
z
" style="fill:#00bfbf;stroke:#000000;stroke-linejoin:miter;stroke-width:3;"/>
   </g>
   <g id="patch_42">
    <path clip-path="url(#p1d4178a0d1)" d="
M711.543 169.892
L748.498 169.892
L748.498 169.65
L711.543 169.65
z
" style="fill:#00bfbf;stroke:#000000;stroke-linejoin:miter;stroke-width:3;"/>
   </g>
   <g id="patch_43">
    <path clip-path="url(#p1d4178a0d1)" d="
M442.971 169.892
L475.804 169.892
L475.804 166.258
L442.971 166.258
z
" style="fill:#bf00bf;stroke:#000000;stroke-linejoin:miter;stroke-width:3;"/>
   </g>
   <g id="patch_44">
    <path clip-path="url(#p1d4178a0d1)" d="
M475.804 169.892
L508.637 169.892
L508.637 161.169
L475.804 161.169
z
" style="fill:#bf00bf;stroke:#000000;stroke-linejoin:miter;stroke-width:3;"/>
   </g>
   <g id="patch_45">
    <path clip-path="url(#p1d4178a0d1)" d="
M508.637 169.892
L541.47 169.892
L541.47 123.854
L508.637 123.854
z
" style="fill:#bf00bf;stroke:#000000;stroke-linejoin:miter;stroke-width:3;"/>
   </g>
   <g id="patch_46">
    <path clip-path="url(#p1d4178a0d1)" d="
M541.47 169.892
L574.302 169.892
L574.302 84.6
L541.47 84.6
z
" style="fill:#bf00bf;stroke:#000000;stroke-linejoin:miter;stroke-width:3;"/>
   </g>
   <g id="patch_47">
    <path clip-path="url(#p1d4178a0d1)" d="
M574.302 169.892
L607.135 169.892
L607.135 43.8923
L574.302 43.8923
z
" style="fill:#bf00bf;stroke:#000000;stroke-linejoin:miter;stroke-width:3;"/>
   </g>
   <g id="patch_48">
    <path clip-path="url(#p1d4178a0d1)" d="
M607.135 169.892
L639.968 169.892
L639.968 60.3692
L607.135 60.3692
z
" style="fill:#bf00bf;stroke:#000000;stroke-linejoin:miter;stroke-width:3;"/>
   </g>
   <g id="patch_49">
    <path clip-path="url(#p1d4178a0d1)" d="
M639.968 169.892
L672.8 169.892
L672.8 105.438
L639.968 105.438
z
" style="fill:#bf00bf;stroke:#000000;stroke-linejoin:miter;stroke-width:3;"/>
   </g>
   <g id="patch_50">
    <path clip-path="url(#p1d4178a0d1)" d="
M672.8 169.892
L705.633 169.892
L705.633 139.119
L672.8 139.119
z
" style="fill:#bf00bf;stroke:#000000;stroke-linejoin:miter;stroke-width:3;"/>
   </g>
   <g id="patch_51">
    <path clip-path="url(#p1d4178a0d1)" d="
M705.633 169.892
L738.466 169.892
L738.466 160.927
L705.633 160.927
z
" style="fill:#bf00bf;stroke:#000000;stroke-linejoin:miter;stroke-width:3;"/>
   </g>
   <g id="patch_52">
    <path clip-path="url(#p1d4178a0d1)" d="
M738.466 169.892
L771.298 169.892
L771.298 168.681
L738.466 168.681
z
" style="fill:#bf00bf;stroke:#000000;stroke-linejoin:miter;stroke-width:3;"/>
   </g>
   <g id="patch_53">
    <path clip-path="url(#p1d4178a0d1)" d="
M493.616 169.892
L526.121 169.892
L526.121 166.5
L493.616 166.5
z
" style="fill:#bfbf00;stroke:#000000;stroke-linejoin:miter;stroke-width:3;"/>
   </g>
   <g id="patch_54">
    <path clip-path="url(#p1d4178a0d1)" d="
M526.121 169.892
L558.626 169.892
L558.626 156.808
L526.121 156.808
z
" style="fill:#bfbf00;stroke:#000000;stroke-linejoin:miter;stroke-width:3;"/>
   </g>
   <g id="patch_55">
    <path clip-path="url(#p1d4178a0d1)" d="
M558.626 169.892
L591.13 169.892
L591.13 132.577
L558.626 132.577
z
" style="fill:#bfbf00;stroke:#000000;stroke-linejoin:miter;stroke-width:3;"/>
   </g>
   <g id="patch_56">
    <path clip-path="url(#p1d4178a0d1)" d="
M591.13 169.892
L623.635 169.892
L623.635 91.8692
L591.13 91.8692
z
" style="fill:#bfbf00;stroke:#000000;stroke-linejoin:miter;stroke-width:3;"/>
   </g>
   <g id="patch_57">
    <path clip-path="url(#p1d4178a0d1)" d="
M623.635 169.892
L656.14 169.892
L656.14 48.0115
L623.635 48.0115
z
" style="fill:#bfbf00;stroke:#000000;stroke-linejoin:miter;stroke-width:3;"/>
   </g>
   <g id="patch_58">
    <path clip-path="url(#p1d4178a0d1)" d="
M656.14 169.892
L688.644 169.892
L688.644 55.7654
L656.14 55.7654
z
" style="fill:#bfbf00;stroke:#000000;stroke-linejoin:miter;stroke-width:3;"/>
   </g>
   <g id="patch_59">
    <path clip-path="url(#p1d4178a0d1)" d="
M688.644 169.892
L721.149 169.892
L721.149 96.2308
L688.644 96.2308
z
" style="fill:#bfbf00;stroke:#000000;stroke-linejoin:miter;stroke-width:3;"/>
   </g>
   <g id="patch_60">
    <path clip-path="url(#p1d4178a0d1)" d="
M721.149 169.892
L753.653 169.892
L753.653 137.908
L721.149 137.908
z
" style="fill:#bfbf00;stroke:#000000;stroke-linejoin:miter;stroke-width:3;"/>
   </g>
   <g id="patch_61">
    <path clip-path="url(#p1d4178a0d1)" d="
M753.653 169.892
L786.158 169.892
L786.158 160.685
L753.653 160.685
z
" style="fill:#bfbf00;stroke:#000000;stroke-linejoin:miter;stroke-width:3;"/>
   </g>
   <g id="patch_62">
    <path clip-path="url(#p1d4178a0d1)" d="
M786.158 169.892
L818.663 169.892
L818.663 167.954
L786.158 167.954
z
" style="fill:#bfbf00;stroke:#000000;stroke-linejoin:miter;stroke-width:3;"/>
   </g>
   <g id="patch_63">
    <path clip-path="url(#p1d4178a0d1)" d="
M523.978 169.892
L559.098 169.892
L559.098 168.438
L523.978 168.438
z
" style="stroke:#000000;stroke-linejoin:miter;stroke-width:3;"/>
   </g>
   <g id="patch_64">
    <path clip-path="url(#p1d4178a0d1)" d="
M559.098 169.892
L594.218 169.892
L594.218 163.835
L559.098 163.835
z
" style="stroke:#000000;stroke-linejoin:miter;stroke-width:3;"/>
   </g>
   <g id="patch_65">
    <path clip-path="url(#p1d4178a0d1)" d="
M594.218 169.892
L629.338 169.892
L629.338 143.481
L594.218 143.481
z
" style="stroke:#000000;stroke-linejoin:miter;stroke-width:3;"/>
   </g>
   <g id="patch_66">
    <path clip-path="url(#p1d4178a0d1)" d="
M629.338 169.892
L664.458 169.892
L664.458 95.9885
L629.338 95.9885
z
" style="stroke:#000000;stroke-linejoin:miter;stroke-width:3;"/>
   </g>
   <g id="patch_67">
    <path clip-path="url(#p1d4178a0d1)" d="
M664.458 169.892
L699.577 169.892
L699.577 48.7385
L664.458 48.7385
z
" style="stroke:#000000;stroke-linejoin:miter;stroke-width:3;"/>
   </g>
   <g id="patch_68">
    <path clip-path="url(#p1d4178a0d1)" d="
M699.577 169.892
L734.697 169.892
L734.697 41.7115
L699.577 41.7115
z
" style="stroke:#000000;stroke-linejoin:miter;stroke-width:3;"/>
   </g>
   <g id="patch_69">
    <path clip-path="url(#p1d4178a0d1)" d="
M734.697 169.892
L769.817 169.892
L769.817 85.8115
L734.697 85.8115
z
" style="stroke:#000000;stroke-linejoin:miter;stroke-width:3;"/>
   </g>
   <g id="patch_70">
    <path clip-path="url(#p1d4178a0d1)" d="
M769.817 169.892
L804.937 169.892
L804.937 136.454
L769.817 136.454
z
" style="stroke:#000000;stroke-linejoin:miter;stroke-width:3;"/>
   </g>
   <g id="patch_71">
    <path clip-path="url(#p1d4178a0d1)" d="
M804.937 169.892
L840.057 169.892
L840.057 162.138
L804.937 162.138
z
" style="stroke:#000000;stroke-linejoin:miter;stroke-width:3;"/>
   </g>
   <g id="patch_72">
    <path clip-path="url(#p1d4178a0d1)" d="
M840.057 169.892
L875.177 169.892
L875.177 167.712
L840.057 167.712
z
" style="stroke:#000000;stroke-linejoin:miter;stroke-width:3;"/>
   </g>
   <g id="patch_73">
    <path clip-path="url(#p1d4178a0d1)" d="
M561.069 169.892
L596.896 169.892
L596.896 169.65
L561.069 169.65
z
" style="fill:#0000ff;stroke:#000000;stroke-linejoin:miter;stroke-width:3;"/>
   </g>
   <g id="patch_74">
    <path clip-path="url(#p1d4178a0d1)" d="
M596.896 169.892
L632.723 169.892
L632.723 165.773
L596.896 165.773
z
" style="fill:#0000ff;stroke:#000000;stroke-linejoin:miter;stroke-width:3;"/>
   </g>
   <g id="patch_75">
    <path clip-path="url(#p1d4178a0d1)" d="
M632.723 169.892
L668.55 169.892
L668.55 155.596
L632.723 155.596
z
" style="fill:#0000ff;stroke:#000000;stroke-linejoin:miter;stroke-width:3;"/>
   </g>
   <g id="patch_76">
    <path clip-path="url(#p1d4178a0d1)" d="
M668.55 169.892
L704.378 169.892
L704.378 111.738
L668.55 111.738
z
" style="fill:#0000ff;stroke:#000000;stroke-linejoin:miter;stroke-width:3;"/>
   </g>
   <g id="patch_77">
    <path clip-path="url(#p1d4178a0d1)" d="
M704.378 169.892
L740.205 169.892
L740.205 57.2192
L704.378 57.2192
z
" style="fill:#0000ff;stroke:#000000;stroke-linejoin:miter;stroke-width:3;"/>
   </g>
   <g id="patch_78">
    <path clip-path="url(#p1d4178a0d1)" d="
M740.205 169.892
L776.032 169.892
L776.032 36.3808
L740.205 36.3808
z
" style="fill:#0000ff;stroke:#000000;stroke-linejoin:miter;stroke-width:3;"/>
   </g>
   <g id="patch_79">
    <path clip-path="url(#p1d4178a0d1)" d="
M776.032 169.892
L811.859 169.892
L811.859 65.4577
L776.032 65.4577
z
" style="fill:#0000ff;stroke:#000000;stroke-linejoin:miter;stroke-width:3;"/>
   </g>
   <g id="patch_80">
    <path clip-path="url(#p1d4178a0d1)" d="
M811.859 169.892
L847.686 169.892
L847.686 127.731
L811.859 127.731
z
" style="fill:#0000ff;stroke:#000000;stroke-linejoin:miter;stroke-width:3;"/>
   </g>
   <g id="patch_81">
    <path clip-path="url(#p1d4178a0d1)" d="
M847.686 169.892
L883.513 169.892
L883.513 157.05
L847.686 157.05
z
" style="fill:#0000ff;stroke:#000000;stroke-linejoin:miter;stroke-width:3;"/>
   </g>
   <g id="patch_82">
    <path clip-path="url(#p1d4178a0d1)" d="
M883.513 169.892
L919.34 169.892
L919.34 167.712
L883.513 167.712
z
" style="fill:#0000ff;stroke:#000000;stroke-linejoin:miter;stroke-width:3;"/>
   </g>
   <g id="patch_83">
    <path clip-path="url(#p1d4178a0d1)" d="
M655.35 169.892
L688.136 169.892
L688.136 166.258
L655.35 166.258
z
" style="fill:#008000;stroke:#000000;stroke-linejoin:miter;stroke-width:3;"/>
   </g>
   <g id="patch_84">
    <path clip-path="url(#p1d4178a0d1)" d="
M688.136 169.892
L720.922 169.892
L720.922 153.415
L688.136 153.415
z
" style="fill:#008000;stroke:#000000;stroke-linejoin:miter;stroke-width:3;"/>
   </g>
   <g id="patch_85">
    <path clip-path="url(#p1d4178a0d1)" d="
M720.922 169.892
L753.708 169.892
L753.708 117.554
L720.922 117.554
z
" style="fill:#008000;stroke:#000000;stroke-linejoin:miter;stroke-width:3;"/>
   </g>
   <g id="patch_86">
    <path clip-path="url(#p1d4178a0d1)" d="
M753.708 169.892
L786.494 169.892
L786.494 66.1846
L753.708 66.1846
z
" style="fill:#008000;stroke:#000000;stroke-linejoin:miter;stroke-width:3;"/>
   </g>
   <g id="patch_87">
    <path clip-path="url(#p1d4178a0d1)" d="
M786.494 169.892
L819.279 169.892
L819.279 53.3423
L786.494 53.3423
z
" style="fill:#008000;stroke:#000000;stroke-linejoin:miter;stroke-width:3;"/>
   </g>
   <g id="patch_88">
    <path clip-path="url(#p1d4178a0d1)" d="
M819.279 169.892
L852.065 169.892
L852.065 62.7923
L819.279 62.7923
z
" style="fill:#008000;stroke:#000000;stroke-linejoin:miter;stroke-width:3;"/>
   </g>
   <g id="patch_89">
    <path clip-path="url(#p1d4178a0d1)" d="
M852.065 169.892
L884.851 169.892
L884.851 113.677
L852.065 113.677
z
" style="fill:#008000;stroke:#000000;stroke-linejoin:miter;stroke-width:3;"/>
   </g>
   <g id="patch_90">
    <path clip-path="url(#p1d4178a0d1)" d="
M884.851 169.892
L917.637 169.892
L917.637 147.6
L884.851 147.6
z
" style="fill:#008000;stroke:#000000;stroke-linejoin:miter;stroke-width:3;"/>
   </g>
   <g id="patch_91">
    <path clip-path="url(#p1d4178a0d1)" d="
M917.637 169.892
L950.423 169.892
L950.423 164.562
L917.637 164.562
z
" style="fill:#008000;stroke:#000000;stroke-linejoin:miter;stroke-width:3;"/>
   </g>
   <g id="patch_92">
    <path clip-path="url(#p1d4178a0d1)" d="
M950.423 169.892
L983.209 169.892
L983.209 168.923
L950.423 168.923
z
" style="fill:#008000;stroke:#000000;stroke-linejoin:miter;stroke-width:3;"/>
   </g>
   <g id="patch_93">
    <path clip-path="url(#p1d4178a0d1)" d="
M690.537 169.892
L722.837 169.892
L722.837 166.985
L690.537 166.985
z
" style="fill:#ff0000;stroke:#000000;stroke-linejoin:miter;stroke-width:3;"/>
   </g>
   <g id="patch_94">
    <path clip-path="url(#p1d4178a0d1)" d="
M722.837 169.892
L755.136 169.892
L755.136 156.081
L722.837 156.081
z
" style="fill:#ff0000;stroke:#000000;stroke-linejoin:miter;stroke-width:3;"/>
   </g>
   <g id="patch_95">
    <path clip-path="url(#p1d4178a0d1)" d="
M755.136 169.892
L787.435 169.892
L787.435 144.45
L755.136 144.45
z
" style="fill:#ff0000;stroke:#000000;stroke-linejoin:miter;stroke-width:3;"/>
   </g>
   <g id="patch_96">
    <path clip-path="url(#p1d4178a0d1)" d="
M787.435 169.892
L819.735 169.892
L819.735 94.2923
L787.435 94.2923
z
" style="fill:#ff0000;stroke:#000000;stroke-linejoin:miter;stroke-width:3;"/>
   </g>
   <g id="patch_97">
    <path clip-path="url(#p1d4178a0d1)" d="
M819.735 169.892
L852.034 169.892
L852.034 55.2808
L819.735 55.2808
z
" style="fill:#ff0000;stroke:#000000;stroke-linejoin:miter;stroke-width:3;"/>
   </g>
   <g id="patch_98">
    <path clip-path="url(#p1d4178a0d1)" d="
M852.034 169.892
L884.333 169.892
L884.333 46.0731
L852.034 46.0731
z
" style="fill:#ff0000;stroke:#000000;stroke-linejoin:miter;stroke-width:3;"/>
   </g>
   <g id="patch_99">
    <path clip-path="url(#p1d4178a0d1)" d="
M884.333 169.892
L916.632 169.892
L916.632 92.8385
L884.333 92.8385
z
" style="fill:#ff0000;stroke:#000000;stroke-linejoin:miter;stroke-width:3;"/>
   </g>
   <g id="patch_100">
    <path clip-path="url(#p1d4178a0d1)" d="
M916.632 169.892
L948.932 169.892
L948.932 132.819
L916.632 132.819
z
" style="fill:#ff0000;stroke:#000000;stroke-linejoin:miter;stroke-width:3;"/>
   </g>
   <g id="patch_101">
    <path clip-path="url(#p1d4178a0d1)" d="
M948.932 169.892
L981.231 169.892
L981.231 158.262
L948.932 158.262
z
" style="fill:#ff0000;stroke:#000000;stroke-linejoin:miter;stroke-width:3;"/>
   </g>
   <g id="patch_102">
    <path clip-path="url(#p1d4178a0d1)" d="
M981.231 169.892
L1013.53 169.892
L1013.53 167.227
L981.231 167.227
z
" style="fill:#ff0000;stroke:#000000;stroke-linejoin:miter;stroke-width:3;"/>
   </g>
   <g id="patch_103">
    <path d="
M153 21.6
L1101.6 21.6" style="fill:none;"/>
   </g>
   <g id="patch_104">
    <path d="
M1101.6 172.8
L1101.6 21.6" style="fill:none;"/>
   </g>
   <g id="patch_105">
    <path d="
M240.099 177.8
L1013.53 177.8" style="fill:none;stroke:#000000;stroke-linecap:square;stroke-linejoin:miter;"/>
   </g>
   <g id="patch_106">
    <path d="
M148 169.892
L148 24.5077" style="fill:none;stroke:#000000;stroke-linecap:square;stroke-linejoin:miter;"/>
   </g>
   <g id="matplotlib.axis_1">
    <g id="xtick_1">
     <g id="line2d_1">
      <defs>
       <path d="
M0 0
L0 -4" id="m93b0483c22" style="stroke:#000000;stroke-width:0.5;"/>
      </defs>
      <g>
       <use style="stroke:#000000;stroke-width:0.5;" x="373.934615385" xlink:href="#m93b0483c22" y="177.8"/>
      </g>
     </g>
     <g id="text_1">
      <!-- 0 -->
      <defs>
       <path d="
M25 -2.20312
Q12.75 -2.20312 8.32812 7.875
Q3.90625 17.9688 3.90625 31.8906
Q3.90625 40.5781 5.48438 48.2344
Q7.07812 55.9062 11.7812 61.25
Q16.5 66.6094 25 66.6094
Q31.5938 66.6094 35.7812 63.375
Q39.9844 60.1562 42.1875 55.0469
Q44.3906 49.9531 45.1875 44.1094
Q46 38.2812 46 31.8906
Q46 23.2969 44.4062 15.7969
Q42.8281 8.29688 38.1875 3.04688
Q33.5469 -2.20312 25 -2.20312
M25 0.390625
Q30.5625 0.390625 33.2969 6.09375
Q36.0312 11.8125 36.6719 18.75
Q37.3125 25.6875 37.3125 33.5
Q37.3125 41.0156 36.6719 47.3594
Q36.0312 53.7188 33.3125 58.8594
Q30.6094 64.0156 25 64.0156
Q19.3438 64.0156 16.6094 58.8281
Q13.875 53.6562 13.2344 47.3281
Q12.5938 41.0156 12.5938 33.5
Q12.5938 27.9375 12.8594 23
Q13.1406 18.0625 14.3125 12.8125
Q15.4844 7.5625 18.0938 3.96875
Q20.7031 0.390625 25 0.390625" id="Cmr10-30"/>
      </defs>
      <g transform="translate(369.725240385 195.678125)scale(0.2 -0.2)">
       <use xlink:href="#Cmr10-30"/>
      </g>
     </g>
    </g>
    <g id="xtick_2">
     <g id="line2d_2">
      <g>
       <use style="stroke:#000000;stroke-width:0.5;" x="627.3" xlink:href="#m93b0483c22" y="177.8"/>
      </g>
     </g>
     <g id="text_2">
      <!-- 50 -->
      <defs>
       <path d="
M8.6875 11.375
Q9.71875 8.45312 11.8438 6.04688
Q13.9688 3.65625 16.875 2.3125
Q19.7812 0.984375 22.9062 0.984375
Q30.125 0.984375 32.8594 6.59375
Q35.5938 12.2031 35.5938 20.2188
Q35.5938 23.6875 35.4688 26.0469
Q35.3594 28.4219 34.8125 30.6094
Q33.8906 34.125 31.5625 36.7656
Q29.25 39.4062 25.875 39.4062
Q22.5156 39.4062 20.0938 38.375
Q17.6719 37.3594 16.1562 35.9844
Q14.6562 34.625 13.4844 33.1094
Q12.3125 31.5938 12.0156 31.5
L10.8906 31.5
Q10.6406 31.5 10.2656 31.8125
Q9.90625 32.125 9.90625 32.4219
L9.90625 65.8281
Q9.90625 66.0625 10.2188 66.3281
Q10.5469 66.6094 10.8906 66.6094
L11.1875 66.6094
Q17.9219 63.375 25.4844 63.375
Q32.9062 63.375 39.7969 66.6094
L40.0938 66.6094
Q40.4375 66.6094 40.7188 66.3594
Q41.0156 66.1094 41.0156 65.8281
L41.0156 64.8906
Q41.0156 64.4062 40.8281 64.4062
Q37.4062 59.8594 32.25 57.3125
Q27.0938 54.7812 21.5781 54.7812
Q17.5781 54.7812 13.375 55.9062
L13.375 37.0156
Q16.7031 39.7031 19.3125 40.8438
Q21.9219 42 25.9844 42
Q31.5 42 35.8594 38.8125
Q40.2344 35.6406 42.5781 30.5312
Q44.9219 25.4375 44.9219 20.125
Q44.9219 14.1094 41.9688 8.98438
Q39.0156 3.85938 33.9375 0.828125
Q28.8594 -2.20312 22.9062 -2.20312
Q17.9688 -2.20312 13.8438 0.328125
Q9.71875 2.875 7.34375 7.17188
Q4.98438 11.4688 4.98438 16.3125
Q4.98438 18.5625 6.4375 19.9688
Q7.90625 21.3906 10.1094 21.3906
Q12.3125 21.3906 13.7969 19.9375
Q15.2812 18.5 15.2812 16.3125
Q15.2812 14.1562 13.7969 12.6719
Q12.3125 11.1875 10.1094 11.1875
Q9.76562 11.1875 9.32812 11.25
Q8.89062 11.3281 8.6875 11.375" id="Cmr10-35"/>
      </defs>
      <g transform="translate(618.1984375 195.678125)scale(0.2 -0.2)">
       <use xlink:href="#Cmr10-35"/>
       <use x="50.0" xlink:href="#Cmr10-30"/>
      </g>
     </g>
    </g>
    <g id="xtick_3">
     <g id="line2d_3">
      <g>
       <use style="stroke:#000000;stroke-width:0.5;" x="880.665384615" xlink:href="#m93b0483c22" y="177.8"/>
      </g>
     </g>
     <g id="text_3">
      <!-- 100 -->
      <defs>
       <path d="
M9.28125 0
L9.28125 3.51562
Q21.7812 3.51562 21.7812 6.6875
L21.7812 59.1875
Q16.6094 56.6875 8.6875 56.6875
L8.6875 60.2031
Q20.9531 60.2031 27.2031 66.6094
L28.6094 66.6094
Q28.9531 66.6094 29.2656 66.3281
Q29.5938 66.0625 29.5938 65.7188
L29.5938 6.6875
Q29.5938 3.51562 42.0938 3.51562
L42.0938 0
z
" id="Cmr10-31"/>
      </defs>
      <g transform="translate(866.934134615 195.678125)scale(0.2 -0.2)">
       <use xlink:href="#Cmr10-31"/>
       <use x="50.0" xlink:href="#Cmr10-30"/>
       <use x="100.0" xlink:href="#Cmr10-30"/>
      </g>
     </g>
    </g>
    <g id="text_4">
     <!-- xlabel (unit) -->
     <defs>
      <path id="Cmr10-20"/>
      <path d="
M31 -24.8125
Q25.4375 -20.4062 21.4062 -14.7188
Q17.3906 -9.03125 14.8125 -2.57812
Q12.25 3.85938 10.9844 10.8906
Q9.71875 17.9219 9.71875 25
Q9.71875 32.1719 10.9844 39.2031
Q12.25 46.2344 14.8594 52.7344
Q17.4844 59.2344 21.5312 64.8906
Q25.5938 70.5625 31 74.8125
Q31 75 31.5 75
L32.4219 75
Q32.7188 75 32.9531 74.7344
Q33.2031 74.4688 33.2031 74.125
Q33.2031 73.6875 33.0156 73.4844
Q28.125 68.7031 24.875 63.2344
Q21.625 57.7656 19.6406 51.5781
Q17.6719 45.4062 16.7969 38.7812
Q15.9219 32.1719 15.9219 25
Q15.9219 -6.78125 32.9062 -23.2969
Q33.2031 -23.5781 33.2031 -24.125
Q33.2031 -24.3594 32.9375 -24.6719
Q32.6719 -25 32.4219 -25
L31.5 -25
Q31 -25 31 -24.8125" id="Cmr10-28"/>
      <path d="
M2.98438 0
L2.98438 3.51562
Q6.39062 3.51562 8.59375 4.04688
Q10.7969 4.59375 10.7969 6.6875
L10.7969 33.9844
Q10.7969 36.6719 9.98438 37.8594
Q9.1875 39.0625 7.67188 39.3281
Q6.15625 39.5938 2.98438 39.5938
L2.98438 43.1094
L17.4844 44.1875
L17.4844 34.4219
Q19.4844 38.7188 23.4062 41.4531
Q27.3438 44.1875 31.9844 44.1875
Q38.9219 44.1875 42.4062 40.8594
Q45.9062 37.5469 45.9062 30.7188
L45.9062 6.6875
Q45.9062 4.59375 48.0938 4.04688
Q50.2969 3.51562 53.7188 3.51562
L53.7188 0
L30.8125 0
L30.8125 3.51562
Q34.2344 3.51562 36.4219 4.04688
Q38.625 4.59375 38.625 6.6875
L38.625 30.4219
Q38.625 35.2969 37.2031 38.4531
Q35.7969 41.6094 31.3906 41.6094
Q25.5938 41.6094 21.8438 36.9688
Q18.1094 32.3281 18.1094 26.4219
L18.1094 6.6875
Q18.1094 4.59375 20.3125 4.04688
Q22.5156 3.51562 25.875 3.51562
L25.875 0
z
" id="Cmr10-6e"/>
      <path d="
M6.5 -25
Q5.60938 -25 5.60938 -24.125
Q5.60938 -23.6875 5.8125 -23.4844
Q22.9062 -6.78125 22.9062 25
Q22.9062 56.7812 6 73.2969
Q5.60938 73.5312 5.60938 74.125
Q5.60938 74.4688 5.875 74.7344
Q6.15625 75 6.5 75
L7.42188 75
Q7.71875 75 7.90625 74.8125
Q15.0938 69.1406 19.875 61.0312
Q24.6562 52.9375 26.875 43.75
Q29.1094 34.5781 29.1094 25
Q29.1094 17.9219 27.9062 11.0625
Q26.7031 4.20312 24.0938 -2.45312
Q21.4844 -9.125 17.4844 -14.7656
Q13.4844 -20.4062 7.90625 -24.8125
Q7.71875 -25 7.42188 -25
z
" id="Cmr10-29"/>
      <path d="
M3.07812 0
L3.07812 3.51562
Q6.5 3.51562 8.6875 4.04688
Q10.8906 4.59375 10.8906 6.6875
L10.8906 59.1875
Q10.8906 61.8594 10.0781 63.0625
Q9.28125 64.2656 7.76562 64.5312
Q6.25 64.7969 3.07812 64.7969
L3.07812 68.3125
L17.9219 69.3906
L17.9219 6.6875
Q17.9219 4.59375 20.1094 4.04688
Q22.3125 3.51562 25.6875 3.51562
L25.6875 0
z
" id="Cmr10-6c"/>
      <path d="
M3.07812 0
L3.07812 3.51562
Q6.5 3.51562 8.6875 4.04688
Q10.8906 4.59375 10.8906 6.6875
L10.8906 33.9844
Q10.8906 37.8438 9.39062 38.7188
Q7.90625 39.5938 3.51562 39.5938
L3.51562 43.1094
L17.9219 44.1875
L17.9219 6.6875
Q17.9219 4.59375 19.8281 4.04688
Q21.7344 3.51562 24.9062 3.51562
L24.9062 0
z

M7.32812 61.375
Q7.32812 63.5781 8.98438 65.2344
Q10.6406 66.8906 12.7969 66.8906
Q14.2031 66.8906 15.5156 66.1562
Q16.8438 65.4375 17.5781 64.1094
Q18.3125 62.7969 18.3125 61.375
Q18.3125 59.2344 16.6406 57.5625
Q14.9844 55.9062 12.7969 55.9062
Q10.6406 55.9062 8.98438 57.5625
Q7.32812 59.2344 7.32812 61.375" id="Cmr10-69"/>
      <path d="
M1.21875 0
L1.21875 3.51562
Q5.03125 3.51562 8.39062 5
Q11.7656 6.5 14.1094 9.42188
L23.1875 21
L11.375 36.375
Q9.625 38.5781 7.54688 39.0781
Q5.46875 39.5938 1.70312 39.5938
L1.70312 43.1094
L22.5156 43.1094
L22.5156 39.5938
Q21.1875 39.5938 20.0312 39
Q18.8906 38.4219 18.8906 37.3125
Q18.8906 36.9219 19.1875 36.375
L27.2031 25.9844
L33.2031 33.6875
Q34.4219 35.1562 34.4219 36.625
Q34.4219 37.8438 33.6094 38.7188
Q32.8125 39.5938 31.5 39.5938
L31.5 43.1094
L49.9062 43.1094
L49.9062 39.5938
Q46.0469 39.5938 42.6562 38.1094
Q39.2656 36.625 36.9219 33.6875
L29 23.5781
L41.7969 6.6875
Q43.7031 4.5 45.75 4
Q47.7969 3.51562 51.6094 3.51562
L51.6094 0
L30.8125 0
L30.8125 3.51562
Q32.0312 3.51562 33.1562 4.09375
Q34.2812 4.6875 34.2812 5.8125
Q34.2812 6.25 33.9844 6.6875
L25 18.6094
L17.8281 9.42188
Q16.7031 8.15625 16.7031 6.5
Q16.7031 5.28125 17.5312 4.39062
Q18.3594 3.51562 19.4844 3.51562
L19.4844 0
z
" id="Cmr10-78"/>
      <path d="
M24.9062 -1.125
Q18.7969 -1.125 13.6875 2.07812
Q8.59375 5.28125 5.6875 10.625
Q2.78125 15.9688 2.78125 21.9219
Q2.78125 27.7812 5.4375 33.0469
Q8.10938 38.3281 12.8594 41.5781
Q17.625 44.8281 23.4844 44.8281
Q28.0781 44.8281 31.4688 43.2812
Q34.8594 41.75 37.0625 39.0156
Q39.2656 36.2812 40.375 32.5625
Q41.5 28.8594 41.5 24.4219
Q41.5 23.0938 40.4844 23.0938
L11.5312 23.0938
L11.5312 22.0156
Q11.5312 13.7188 14.875 7.76562
Q18.2188 1.8125 25.7812 1.8125
Q28.8594 1.8125 31.4688 3.17188
Q34.0781 4.54688 36 6.98438
Q37.9375 9.42188 38.625 12.2031
Q38.7188 12.5469 38.9844 12.8125
Q39.2656 13.0938 39.5938 13.0938
L40.4844 13.0938
Q41.5 13.0938 41.5 11.8125
Q40.0938 6.15625 35.4062 2.51562
Q30.7188 -1.125 24.9062 -1.125
M11.625 25.5938
L34.4219 25.5938
Q34.4219 29.3438 33.375 33.2031
Q32.3281 37.0625 29.875 39.625
Q27.4375 42.1875 23.4844 42.1875
Q17.8281 42.1875 14.7188 36.8906
Q11.625 31.5938 11.625 25.5938" id="Cmr10-65"/>
      <path d="
M10.7969 11.9219
L10.7969 33.9844
Q10.7969 36.6719 9.98438 37.8594
Q9.1875 39.0625 7.67188 39.3281
Q6.15625 39.5938 2.98438 39.5938
L2.98438 43.1094
L18.1094 44.1875
L18.1094 11.9219
Q18.1094 8.01562 18.6719 5.82812
Q19.2344 3.65625 21.0625 2.57812
Q22.9062 1.51562 26.9062 1.51562
Q32.2812 1.51562 35.4531 6
Q38.625 10.5 38.625 16.2188
L38.625 33.9844
Q38.625 36.6719 37.7969 37.8594
Q36.9688 39.0625 35.4688 39.3281
Q33.9844 39.5938 30.8125 39.5938
L30.8125 43.1094
L45.9062 44.1875
L45.9062 9.07812
Q45.9062 6.45312 46.7031 5.25
Q47.5156 4.04688 49.0156 3.78125
Q50.5312 3.51562 53.7188 3.51562
L53.7188 0
L38.9219 -1.125
L38.9219 7.32812
Q37.0625 3.5625 33.7344 1.21875
Q30.4219 -1.125 26.4219 -1.125
Q19.2344 -1.125 15.0156 1.92188
Q10.7969 4.98438 10.7969 11.9219" id="Cmr10-75"/>
      <path d="
M10.2031 12.0156
L10.2031 39.5938
L1.90625 39.5938
L1.90625 42.1875
Q8.45312 42.1875 11.5156 48.2812
Q14.5938 54.3906 14.5938 61.5312
L17.4844 61.5312
L17.4844 43.1094
L31.5938 43.1094
L31.5938 39.5938
L17.4844 39.5938
L17.4844 12.2031
Q17.4844 8.0625 18.875 4.9375
Q20.2656 1.8125 23.875 1.8125
Q27.2969 1.8125 28.8125 5.10938
Q30.3281 8.40625 30.3281 12.2031
L30.3281 18.1094
L33.2031 18.1094
L33.2031 12.0156
Q33.2031 8.89062 32.0469 5.82812
Q30.9062 2.78125 28.6562 0.828125
Q26.4219 -1.125 23.1875 -1.125
Q17.1875 -1.125 13.6875 2.46875
Q10.2031 6.0625 10.2031 12.0156" id="Cmr10-74"/>
      <path d="
M4 9.8125
Q4 15.7656 8.6875 19.5
Q13.375 23.25 19.9375 24.7812
Q26.5156 26.3125 32.4219 26.3125
L32.4219 30.4219
Q32.4219 33.2969 31.1562 36
Q29.8906 38.7188 27.4844 40.4531
Q25.0938 42.1875 22.2188 42.1875
Q15.5781 42.1875 12.1094 39.2031
Q14.0156 39.2031 15.25 37.7656
Q16.5 36.3281 16.5 34.4219
Q16.5 32.4219 15.0781 31
Q13.6719 29.5938 11.7188 29.5938
Q9.71875 29.5938 8.29688 31
Q6.89062 32.4219 6.89062 34.4219
Q6.89062 39.7031 11.6719 42.2656
Q16.4531 44.8281 22.2188 44.8281
Q26.2656 44.8281 30.3594 43.0938
Q34.4688 41.3594 37.0781 38.125
Q39.7031 34.9062 39.7031 30.6094
L39.7031 8.10938
Q39.7031 6.15625 40.5312 4.51562
Q41.3594 2.875 43.1094 2.875
Q44.7812 2.875 45.5781 4.53125
Q46.3906 6.20312 46.3906 8.10938
L46.3906 14.5
L49.3125 14.5
L49.3125 8.10938
Q49.3125 5.85938 48.1406 3.82812
Q46.9688 1.8125 44.9844 0.609375
Q43.0156 -0.59375 40.7188 -0.59375
Q37.7969 -0.59375 35.6719 1.67188
Q33.5469 3.95312 33.2969 7.07812
Q31.4531 3.32812 27.8281 1.09375
Q24.2188 -1.125 20.125 -1.125
Q16.3125 -1.125 12.625 0
Q8.9375 1.125 6.46875 3.53125
Q4 5.95312 4 9.8125
M12.1094 9.8125
Q12.1094 6.29688 14.6875 3.90625
Q17.2812 1.51562 20.7969 1.51562
Q24.0312 1.51562 26.6562 3.125
Q29.2969 4.73438 30.8594 7.51562
Q32.4219 10.2969 32.4219 13.375
L32.4219 23.7812
Q27.875 23.7812 23.1094 22.2812
Q18.3594 20.7969 15.2344 17.625
Q12.1094 14.4531 12.1094 9.8125" id="Cmr10-61"/>
      <path d="
M10.4062 0
L10.4062 59.1875
Q10.4062 61.8594 9.59375 63.0625
Q8.79688 64.2656 7.28125 64.5312
Q5.76562 64.7969 2.59375 64.7969
L2.59375 68.3125
L17.3906 69.3906
L17.3906 38.0938
Q19.0469 39.9375 21.2656 41.3281
Q23.4844 42.7188 26.0156 43.4531
Q28.5625 44.1875 31.2031 44.1875
Q35.6875 44.1875 39.5156 42.375
Q43.3594 40.5781 46.1875 37.4062
Q49.0312 34.2344 50.6094 30.1094
Q52.2031 25.9844 52.2031 21.5781
Q52.2031 15.5312 49.25 10.2969
Q46.2969 5.07812 41.1875 1.96875
Q36.0781 -1.125 29.9844 -1.125
Q26.1719 -1.125 22.6094 0.828125
Q19.0469 2.78125 16.7031 6
L13.2812 0
z

M17.6719 9.8125
Q19.3438 6.15625 22.4688 3.82812
Q25.5938 1.51562 29.3906 1.51562
Q34.5781 1.51562 37.7656 4.48438
Q40.9688 7.46875 42.2344 12
Q43.5 16.5469 43.5 21.5781
Q43.5 30.0312 41.3125 34.4219
Q40.3281 36.375 38.6406 38.0312
Q36.9688 39.7031 34.8906 40.6562
Q32.8125 41.6094 30.5156 41.6094
Q26.5156 41.6094 23.0938 39.4844
Q19.6719 37.3594 17.6719 33.7969
z
" id="Cmr10-62"/>
     </defs>
     <g transform="translate(573.628125 219.55625)scale(0.2 -0.2)">
      <use xlink:href="#Cmr10-78"/>
      <use x="52.685546875" xlink:href="#Cmr10-6c"/>
      <use x="80.37109375" xlink:href="#Cmr10-61"/>
      <use x="130.37109375" xlink:href="#Cmr10-62"/>
      <use x="185.888671875" xlink:href="#Cmr10-65"/>
      <use x="230.2734375" xlink:href="#Cmr10-6c"/>
      <use x="257.958984375" xlink:href="#Cmr10-20"/>
      <use x="291.259765625" xlink:href="#Cmr10-28"/>
      <use x="330.078125" xlink:href="#Cmr10-75"/>
      <use x="385.595703125" xlink:href="#Cmr10-6e"/>
      <use x="441.11328125" xlink:href="#Cmr10-69"/>
      <use x="468.798828125" xlink:href="#Cmr10-74"/>
      <use x="507.6171875" xlink:href="#Cmr10-29"/>
     </g>
    </g>
   </g>
   <g id="matplotlib.axis_2">
    <g id="ytick_1">
     <g id="line2d_4">
      <defs>
       <path d="
M0 0
L4 0" id="m728421d6d4" style="stroke:#000000;stroke-width:0.5;"/>
      </defs>
      <g>
       <use style="stroke:#000000;stroke-width:0.5;" x="148.0" xlink:href="#m728421d6d4" y="169.892307692"/>
      </g>
     </g>
     <g id="text_5">
      <!-- 0 -->
      <g transform="translate(135.58125 174.892307692)scale(0.2 -0.2)">
       <use xlink:href="#Cmr10-30"/>
      </g>
     </g>
    </g>
    <g id="ytick_2">
     <g id="line2d_5">
      <g>
       <use style="stroke:#000000;stroke-width:0.5;" x="148.0" xlink:href="#m728421d6d4" y="121.430769231"/>
      </g>
     </g>
     <g id="text_6">
      <!-- 200 -->
      <defs>
       <path d="
M4.98438 0
L4.98438 2.6875
Q4.98438 2.9375 5.17188 3.21875
L20.7031 20.4062
Q24.2188 24.2188 26.4062 26.7969
Q28.6094 29.3906 30.75 32.7656
Q32.9062 36.1406 34.1562 39.625
Q35.4062 43.1094 35.4062 47.0156
Q35.4062 51.125 33.8906 54.8594
Q32.375 58.5938 29.375 60.8438
Q26.375 63.0938 22.125 63.0938
Q17.7812 63.0938 14.3125 60.4688
Q10.8438 57.8594 9.42188 53.7188
Q9.8125 53.8125 10.5 53.8125
Q12.75 53.8125 14.3281 52.2969
Q15.9219 50.7812 15.9219 48.3906
Q15.9219 46.0938 14.3281 44.5
Q12.75 42.9219 10.5 42.9219
Q8.15625 42.9219 6.5625 44.5469
Q4.98438 46.1875 4.98438 48.3906
Q4.98438 52.1562 6.39062 55.4375
Q7.8125 58.7344 10.4688 61.2969
Q13.1406 63.875 16.4844 65.2344
Q19.8281 66.6094 23.5781 66.6094
Q29.2969 66.6094 34.2188 64.1875
Q39.1562 61.7656 42.0312 57.3438
Q44.9219 52.9375 44.9219 47.0156
Q44.9219 42.6719 43.0156 38.7656
Q41.1094 34.8594 38.125 31.6562
Q35.1562 28.4688 30.5156 24.4062
Q25.875 20.3594 24.4219 19
L13.0938 8.10938
L22.7031 8.10938
Q29.7812 8.10938 34.5469 8.21875
Q39.3125 8.34375 39.5938 8.59375
Q40.7656 9.85938 42 17.8281
L44.9219 17.8281
L42.0938 0
z
" id="Cmr10-32"/>
      </defs>
      <g transform="translate(115.796875 126.430769231)scale(0.2 -0.2)">
       <use xlink:href="#Cmr10-32"/>
       <use x="50.0" xlink:href="#Cmr10-30"/>
       <use x="100.0" xlink:href="#Cmr10-30"/>
      </g>
     </g>
    </g>
    <g id="ytick_3">
     <g id="line2d_6">
      <g>
       <use style="stroke:#000000;stroke-width:0.5;" x="148.0" xlink:href="#m728421d6d4" y="72.9692307692"/>
      </g>
     </g>
     <g id="text_7">
      <!-- 400 -->
      <defs>
       <path d="
M2.78125 16.5
L2.78125 20.0156
L33.6875 66.1094
Q34.0312 66.6094 34.7188 66.6094
L36.1875 66.6094
Q37.3125 66.6094 37.3125 65.4844
L37.3125 20.0156
L47.125 20.0156
L47.125 16.5
L37.3125 16.5
L37.3125 6.6875
Q37.3125 4.64062 40.2344 4.07812
Q43.1719 3.51562 47.0156 3.51562
L47.0156 0
L19.4844 0
L19.4844 3.51562
Q23.3438 3.51562 26.2656 4.07812
Q29.2031 4.64062 29.2031 6.6875
L29.2031 16.5
z

M6.10938 20.0156
L29.7812 20.0156
L29.7812 55.4219
z
" id="Cmr10-34"/>
      </defs>
      <g transform="translate(115.35625 77.9692307692)scale(0.2 -0.2)">
       <use xlink:href="#Cmr10-34"/>
       <use x="50.0" xlink:href="#Cmr10-30"/>
       <use x="100.0" xlink:href="#Cmr10-30"/>
      </g>
     </g>
    </g>
    <g id="ytick_4">
     <g id="line2d_7">
      <g>
       <use style="stroke:#000000;stroke-width:0.5;" x="148.0" xlink:href="#m728421d6d4" y="24.5076923077"/>
      </g>
     </g>
     <g id="text_8">
      <!-- 600 -->
      <defs>
       <path d="
M25 -2.20312
Q18.7969 -2.20312 14.6406 1.09375
Q10.5 4.39062 8.21875 9.64062
Q5.95312 14.8906 5.07812 20.6562
Q4.20312 26.4219 4.20312 32.3281
Q4.20312 40.2344 7.28125 48.1875
Q10.3594 56.1562 16.3281 61.375
Q22.3125 66.6094 30.5156 66.6094
Q33.9375 66.6094 36.8906 65.3125
Q39.8438 64.0156 41.5312 61.5
Q43.2188 58.9844 43.2188 55.4219
Q43.2188 53.375 41.8281 51.9844
Q40.4375 50.5938 38.375 50.5938
Q36.4219 50.5938 35 52
Q33.5938 53.4219 33.5938 55.4219
Q33.5938 57.375 35 58.7812
Q36.4219 60.2031 38.375 60.2031
L38.9219 60.2031
Q37.6406 62.0156 35.3281 62.8594
Q33.0156 63.7188 30.5156 63.7188
Q27.4844 63.7188 24.9219 62.3906
Q22.3594 61.0781 20.3125 58.8281
Q18.2656 56.5938 16.8906 53.875
Q15.5312 51.1719 14.7656 47.7031
Q14.0156 44.2344 13.8125 41.2031
Q13.625 38.1875 13.625 33.5938
Q15.375 37.7031 18.5938 40.3125
Q21.8281 42.9219 25.875 42.9219
Q30.3281 42.9219 33.9844 41.1094
Q37.6406 39.3125 40.2812 36.1094
Q42.9219 32.9062 44.3125 28.7969
Q45.7031 24.7031 45.7031 20.5156
Q45.7031 14.6562 43.0938 9.34375
Q40.4844 4.04688 35.7344 0.921875
Q31 -2.20312 25 -2.20312
M25 0.984375
Q28.8594 0.984375 31.2031 2.73438
Q33.5469 4.5 34.6406 7.39062
Q35.75 10.2969 36.0156 13.25
Q36.2812 16.2188 36.2812 20.5156
Q36.2812 26.1719 35.7344 30.1719
Q35.2031 34.1875 32.8125 37.2344
Q30.4219 40.2812 25.4844 40.2812
Q21.4375 40.2812 18.8281 37.5469
Q16.2188 34.8125 15.0156 30.6406
Q13.8125 26.4688 13.8125 22.6094
Q13.8125 21.2969 13.9219 20.6094
Q13.9219 20.4531 13.8906 20.3594
Q13.875 20.2656 13.8125 20.125
Q13.8125 15.8281 14.6875 11.4219
Q15.5781 7.03125 18.0625 4
Q20.5625 0.984375 25 0.984375" id="Cmr10-36"/>
      </defs>
      <g transform="translate(115.640625 29.5076923077)scale(0.2 -0.2)">
       <use xlink:href="#Cmr10-36"/>
       <use x="50.0" xlink:href="#Cmr10-30"/>
       <use x="100.0" xlink:href="#Cmr10-30"/>
      </g>
     </g>
    </g>
    <g id="text_9">
     <!-- ylabel (#) -->
     <defs>
      <path d="
M16.7031 -17.3906
Q16.7031 -17.1875 16.7969 -17
L24.9062 13.2812
L7.51562 13.2812
Q6.6875 13.2812 6.14062 13.9062
Q5.60938 14.5469 5.60938 15.2812
Q5.60938 16.1094 6.14062 16.6875
Q6.6875 17.2812 7.51562 17.2812
L26.125 17.2812
L30.0781 32.7188
L7.51562 32.7188
Q6.6875 32.7188 6.14062 33.2969
Q5.60938 33.8906 5.60938 34.7188
Q5.60938 35.4531 6.14062 36.0781
Q6.6875 36.7188 7.51562 36.7188
L31.2969 36.7188
L39.7031 67.9219
Q39.8438 68.5625 40.3594 68.9688
Q40.875 69.3906 41.6094 69.3906
Q42.4375 69.3906 43.0156 68.7969
Q43.6094 68.2188 43.6094 67.3906
L43.6094 67
L35.4062 36.7188
L54.2031 36.7188
L62.5938 67.9219
Q62.75 68.5625 63.25 68.9688
Q63.7656 69.3906 64.5 69.3906
Q65.3281 69.3906 65.9062 68.7969
Q66.5 68.2188 66.5 67.3906
L66.5 67
L58.2969 36.7188
L75.7812 36.7188
Q76.5625 36.7188 77.0781 36.0781
Q77.5938 35.4531 77.5938 34.7188
Q77.5938 33.8906 77.0781 33.2969
Q76.5625 32.7188 75.7812 32.7188
L57.0781 32.7188
L53.0781 17.2812
L75.7812 17.2812
Q76.5625 17.2812 77.0781 16.6875
Q77.5938 16.1094 77.5938 15.2812
Q77.5938 14.5469 77.0781 13.9062
Q76.5625 13.2812 75.7812 13.2812
L51.9062 13.2812
L43.6094 -17.9219
Q43.0625 -19.3906 41.6094 -19.3906
Q40.7656 -19.3906 40.1719 -18.7969
Q39.5938 -18.2188 39.5938 -17.3906
Q39.5938 -17.1875 39.7031 -17
L47.7969 13.2812
L29 13.2812
L20.7031 -17.9219
Q20.1719 -19.3906 18.7031 -19.3906
Q17.875 -19.3906 17.2812 -18.7969
Q16.7031 -18.2188 16.7031 -17.3906
M30.1719 17.2812
L49.0312 17.2812
L52.9844 32.7188
L34.1875 32.7188
z
" id="Cmr10-23"/>
      <path d="
M6.89062 -16.4062
Q8.79688 -17.9219 11.0781 -17.9219
Q17.3906 -17.9219 21.3906 -8.40625
L24.8125 0
L9.8125 36.7188
Q8.89062 38.5781 6.98438 39.0781
Q5.07812 39.5938 1.90625 39.5938
L1.90625 43.1094
L22.9062 43.1094
L22.9062 39.5938
Q17.3906 39.5938 17.3906 37.2031
Q17.3906 36.8125 17.4844 36.625
L28.6094 9.28125
L38.625 33.8906
Q38.9219 34.6719 38.9219 35.5938
Q38.9219 36.8125 38.25 37.7188
Q37.5938 38.625 36.5469 39.1094
Q35.5 39.5938 34.1875 39.5938
L34.1875 43.1094
L50.7812 43.1094
L50.7812 39.5938
Q47.7031 39.5938 45.375 38.1719
Q43.0625 36.7656 41.7969 33.9844
L24.5156 -8.40625
Q23.1406 -11.625 21.3125 -14.3281
Q19.4844 -17.0469 16.8438 -18.7812
Q14.2031 -20.5156 11.0781 -20.5156
Q7.42188 -20.5156 4.65625 -18.0938
Q1.90625 -15.6719 1.90625 -12.1094
Q1.90625 -10.25 3.17188 -8.98438
Q4.4375 -7.71875 6.29688 -7.71875
Q7.5625 -7.71875 8.5625 -8.28125
Q9.57812 -8.84375 10.125 -9.8125
Q10.6875 -10.7969 10.6875 -12.1094
Q10.6875 -13.7188 9.60938 -14.9844
Q8.54688 -16.2656 6.89062 -16.4062" id="Cmr10-79"/>
     </defs>
     <g transform="translate(105.35625 141.4484375)rotate(-90.0)scale(0.2 -0.2)">
      <use xlink:href="#Cmr10-79"/>
      <use x="52.685546875" xlink:href="#Cmr10-6c"/>
      <use x="80.37109375" xlink:href="#Cmr10-61"/>
      <use x="130.37109375" xlink:href="#Cmr10-62"/>
      <use x="185.888671875" xlink:href="#Cmr10-65"/>
      <use x="230.2734375" xlink:href="#Cmr10-6c"/>
      <use x="257.958984375" xlink:href="#Cmr10-20"/>
      <use x="291.259765625" xlink:href="#Cmr10-28"/>
      <use x="330.078125" xlink:href="#Cmr10-23"/>
      <use x="413.37890625" xlink:href="#Cmr10-29"/>
     </g>
    </g>
   </g>
  </g>
 </g>
 <defs>
  <clipPath id="p1d4178a0d1">
   <rect height="151.2" width="948.6" x="153.0" y="21.6"/>
  </clipPath>
 </defs>
</svg>
