<?xml version="1.0" encoding="utf-8" standalone="no"?>
<!DOCTYPE svg PUBLIC "-//W3C//DTD SVG 1.1//EN"
  "http://www.w3.org/Graphics/SVG/1.1/DTD/svg11.dtd">
<!-- Created with matplotlib (http://matplotlib.org/) -->
<svg height="432pt" version="1.1" viewBox="0 0 576 432" width="576pt" xmlns="http://www.w3.org/2000/svg" xmlns:xlink="http://www.w3.org/1999/xlink">
 <defs>
  <style type="text/css">
*{stroke-linecap:butt;stroke-linejoin:round;}
  </style>
 </defs>
 <g id="figure_1">
  <g id="patch_1">
   <path d="
M0 432
L576 432
L576 0
L0 0
z
" style="fill:#ffffff;"/>
  </g>
  <g id="axes_1">
   <g id="patch_2">
    <path d="
M72 180.655
L258 180.655
L258 43.2
L72 43.2
z
" style="fill:#ffffff;"/>
   </g>
   <g id="line2d_1">
    <path clip-path="url(#p7ae276f35f)" d="
M76.7692 175.717
L77.2163 174.945
L77.8125 174.511
L79.0048 174.208
L83.1779 172.059
L85.1154 170.595
L86.7548 169.046
L88.3942 167.189
L90.1827 164.795
L91.8221 162.238
L93.6106 159.023
L95.399 155.346
L97.3365 150.839
L99.4231 145.404
L101.808 138.537
L104.639 129.68
L109.707 112.931
L113.88 99.4697
L116.712 91.0685
L118.947 85.0551
L121.034 80.0366
L122.971 75.953
L124.76 72.7145
L126.399 70.2205
L127.889 68.3588
L129.231 67.0255
L130.423 66.114
L131.615 65.4679
L132.808 65.084
L134 64.9464
L135.341 65.0123
L136.832 65.3015
L138.918 65.9573
L141.75 67.0887
L145.178 68.6641
L148.01 70.1928
L150.692 71.8925
L153.375 73.8577
L156.207 76.2177
L159.038 78.8601
L162.019 81.9323
L165.298 85.636
L168.726 89.8368
L172.899 95.3528
L177.221 101.448
L182.885 109.853
L199.726 135.166
L204.197 141.323
L208.072 146.29
L211.649 150.523
L215.077 154.235
L218.356 157.457
L221.486 160.232
L224.615 162.716
L227.745 164.923
L230.875 166.866
L234.154 168.64
L237.433 170.17
L241.01 171.589
L244.736 172.824
L248.76 173.918
L253.082 174.861
L254.274 175.084
L254.274 175.084" style="fill:none;stroke:#000000;stroke-linecap:square;stroke-width:2;"/>
   </g>
   <g id="patch_3">
    <path d="
M72 43.2
L258 43.2" style="fill:none;"/>
   </g>
   <g id="patch_4">
    <path d="
M258 180.655
L258 43.2" style="fill:none;"/>
   </g>
   <g id="patch_5">
    <path d="
M72 180.655
L258 180.655" style="fill:none;"/>
   </g>
   <g id="patch_6">
    <path d="
M67 178.011
L67 45.8434" style="fill:none;stroke:#000000;stroke-linecap:square;stroke-linejoin:miter;"/>
   </g>
   <g id="matplotlib.axis_1"/>
   <g id="matplotlib.axis_2">
    <g id="ytick_1">
     <g id="line2d_2">
      <defs>
       <path d="
M0 0
L4 0" id="m728421d6d4" style="stroke:#000000;stroke-width:0.5;"/>
      </defs>
      <g>
       <use style="stroke:#000000;stroke-width:0.5;" x="67.0" xlink:href="#m728421d6d4" y="178.011188811"/>
      </g>
     </g>
     <g id="text_1">
      <!-- 0 -->
      <defs>
       <path d="
M25 -2.20312
Q12.75 -2.20312 8.32812 7.875
Q3.90625 17.9688 3.90625 31.8906
Q3.90625 40.5781 5.48438 48.2344
Q7.07812 55.9062 11.7812 61.25
Q16.5 66.6094 25 66.6094
Q31.5938 66.6094 35.7812 63.375
Q39.9844 60.1562 42.1875 55.0469
Q44.3906 49.9531 45.1875 44.1094
Q46 38.2812 46 31.8906
Q46 23.2969 44.4062 15.7969
Q42.8281 8.29688 38.1875 3.04688
Q33.5469 -2.20312 25 -2.20312
M25 0.390625
Q30.5625 0.390625 33.2969 6.09375
Q36.0312 11.8125 36.6719 18.75
Q37.3125 25.6875 37.3125 33.5
Q37.3125 41.0156 36.6719 47.3594
Q36.0312 53.7188 33.3125 58.8594
Q30.6094 64.0156 25 64.0156
Q19.3438 64.0156 16.6094 58.8281
Q13.875 53.6562 13.2344 47.3281
Q12.5938 41.0156 12.5938 33.5
Q12.5938 27.9375 12.8594 23
Q13.1406 18.0625 14.3125 12.8125
Q15.4844 7.5625 18.0938 3.96875
Q20.7031 0.390625 25 0.390625" id="Cmr10-30"/>
      </defs>
      <g transform="translate(54.58125 183.011188811)scale(0.2 -0.2)">
       <use xlink:href="#Cmr10-30"/>
      </g>
     </g>
    </g>
    <g id="ytick_2">
     <g id="line2d_3">
      <g>
       <use style="stroke:#000000;stroke-width:0.5;" x="67.0" xlink:href="#m728421d6d4" y="133.955244755"/>
      </g>
     </g>
     <g id="text_2">
      <!-- 2 -->
      <defs>
       <path d="
M4.98438 0
L4.98438 2.6875
Q4.98438 2.9375 5.17188 3.21875
L20.7031 20.4062
Q24.2188 24.2188 26.4062 26.7969
Q28.6094 29.3906 30.75 32.7656
Q32.9062 36.1406 34.1562 39.625
Q35.4062 43.1094 35.4062 47.0156
Q35.4062 51.125 33.8906 54.8594
Q32.375 58.5938 29.375 60.8438
Q26.375 63.0938 22.125 63.0938
Q17.7812 63.0938 14.3125 60.4688
Q10.8438 57.8594 9.42188 53.7188
Q9.8125 53.8125 10.5 53.8125
Q12.75 53.8125 14.3281 52.2969
Q15.9219 50.7812 15.9219 48.3906
Q15.9219 46.0938 14.3281 44.5
Q12.75 42.9219 10.5 42.9219
Q8.15625 42.9219 6.5625 44.5469
Q4.98438 46.1875 4.98438 48.3906
Q4.98438 52.1562 6.39062 55.4375
Q7.8125 58.7344 10.4688 61.2969
Q13.1406 63.875 16.4844 65.2344
Q19.8281 66.6094 23.5781 66.6094
Q29.2969 66.6094 34.2188 64.1875
Q39.1562 61.7656 42.0312 57.3438
Q44.9219 52.9375 44.9219 47.0156
Q44.9219 42.6719 43.0156 38.7656
Q41.1094 34.8594 38.125 31.6562
Q35.1562 28.4688 30.5156 24.4062
Q25.875 20.3594 24.4219 19
L13.0938 8.10938
L22.7031 8.10938
Q29.7812 8.10938 34.5469 8.21875
Q39.3125 8.34375 39.5938 8.59375
Q40.7656 9.85938 42 17.8281
L44.9219 17.8281
L42.0938 0
z
" id="Cmr10-32"/>
      </defs>
      <g transform="translate(55.0125 138.955244755)scale(0.2 -0.2)">
       <use xlink:href="#Cmr10-32"/>
      </g>
     </g>
    </g>
    <g id="ytick_3">
     <g id="line2d_4">
      <g>
       <use style="stroke:#000000;stroke-width:0.5;" x="67.0" xlink:href="#m728421d6d4" y="89.8993006993"/>
      </g>
     </g>
     <g id="text_3">
      <!-- 4 -->
      <defs>
       <path d="
M2.78125 16.5
L2.78125 20.0156
L33.6875 66.1094
Q34.0312 66.6094 34.7188 66.6094
L36.1875 66.6094
Q37.3125 66.6094 37.3125 65.4844
L37.3125 20.0156
L47.125 20.0156
L47.125 16.5
L37.3125 16.5
L37.3125 6.6875
Q37.3125 4.64062 40.2344 4.07812
Q43.1719 3.51562 47.0156 3.51562
L47.0156 0
L19.4844 0
L19.4844 3.51562
Q23.3438 3.51562 26.2656 4.07812
Q29.2031 4.64062 29.2031 6.6875
L29.2031 16.5
z

M6.10938 20.0156
L29.7812 20.0156
L29.7812 55.4219
z
" id="Cmr10-34"/>
      </defs>
      <g transform="translate(54.13125 94.8993006993)scale(0.2 -0.2)">
       <use xlink:href="#Cmr10-34"/>
      </g>
     </g>
    </g>
    <g id="ytick_4">
     <g id="line2d_5">
      <g>
       <use style="stroke:#000000;stroke-width:0.5;" x="67.0" xlink:href="#m728421d6d4" y="45.8433566434"/>
      </g>
     </g>
     <g id="text_4">
      <!-- 6 -->
      <defs>
       <path d="
M25 -2.20312
Q18.7969 -2.20312 14.6406 1.09375
Q10.5 4.39062 8.21875 9.64062
Q5.95312 14.8906 5.07812 20.6562
Q4.20312 26.4219 4.20312 32.3281
Q4.20312 40.2344 7.28125 48.1875
Q10.3594 56.1562 16.3281 61.375
Q22.3125 66.6094 30.5156 66.6094
Q33.9375 66.6094 36.8906 65.3125
Q39.8438 64.0156 41.5312 61.5
Q43.2188 58.9844 43.2188 55.4219
Q43.2188 53.375 41.8281 51.9844
Q40.4375 50.5938 38.375 50.5938
Q36.4219 50.5938 35 52
Q33.5938 53.4219 33.5938 55.4219
Q33.5938 57.375 35 58.7812
Q36.4219 60.2031 38.375 60.2031
L38.9219 60.2031
Q37.6406 62.0156 35.3281 62.8594
Q33.0156 63.7188 30.5156 63.7188
Q27.4844 63.7188 24.9219 62.3906
Q22.3594 61.0781 20.3125 58.8281
Q18.2656 56.5938 16.8906 53.875
Q15.5312 51.1719 14.7656 47.7031
Q14.0156 44.2344 13.8125 41.2031
Q13.625 38.1875 13.625 33.5938
Q15.375 37.7031 18.5938 40.3125
Q21.8281 42.9219 25.875 42.9219
Q30.3281 42.9219 33.9844 41.1094
Q37.6406 39.3125 40.2812 36.1094
Q42.9219 32.9062 44.3125 28.7969
Q45.7031 24.7031 45.7031 20.5156
Q45.7031 14.6562 43.0938 9.34375
Q40.4844 4.04688 35.7344 0.921875
Q31 -2.20312 25 -2.20312
M25 0.984375
Q28.8594 0.984375 31.2031 2.73438
Q33.5469 4.5 34.6406 7.39062
Q35.75 10.2969 36.0156 13.25
Q36.2812 16.2188 36.2812 20.5156
Q36.2812 26.1719 35.7344 30.1719
Q35.2031 34.1875 32.8125 37.2344
Q30.4219 40.2812 25.4844 40.2812
Q21.4375 40.2812 18.8281 37.5469
Q16.2188 34.8125 15.0156 30.6406
Q13.8125 26.4688 13.8125 22.6094
Q13.8125 21.2969 13.9219 20.6094
Q13.9219 20.4531 13.8906 20.3594
Q13.875 20.2656 13.8125 20.125
Q13.8125 15.8281 14.6875 11.4219
Q15.5781 7.03125 18.0625 4
Q20.5625 0.984375 25 0.984375" id="Cmr10-36"/>
      </defs>
      <g transform="translate(54.7 50.8433566434)scale(0.2 -0.2)">
       <use xlink:href="#Cmr10-36"/>
      </g>
     </g>
    </g>
    <g id="text_5">
     <!-- amp. % -->
     <defs>
      <path id="Cmr10-20"/>
      <path d="
M13.9219 -3.60938
Q13.9219 -3.03125 14.2031 -2.59375
L59.5156 64.8906
Q53.5156 61.5312 46.2969 61.5312
Q38.4844 61.5312 31.2969 65.5781
Q33.2969 60.7969 33.2969 54.8906
Q33.2969 51.6562 32.5312 48.2188
Q31.7812 44.7812 30.2188 41.7188
Q28.6562 38.6719 26.1875 36.6875
Q23.7344 34.7188 20.4062 34.7188
Q15.7188 34.7188 12.3438 37.8438
Q8.98438 40.9688 7.29688 45.6562
Q5.60938 50.3438 5.60938 54.8906
Q5.60938 59.3281 7.29688 64.0312
Q8.98438 68.75 12.3438 71.875
Q15.7188 75 20.4062 75
Q24.125 75 27.2031 72.0156
Q35.25 64.1094 46.2969 64.1094
Q52.2031 64.1094 57.3281 66.7188
Q62.4531 69.3438 65.7188 74.2188
Q66.2188 75 67.2812 75
Q68.1719 75 68.7188 74.4531
Q69.2812 73.9219 69.2812 73
Q69.2812 72.4688 69 72.0156
L17.3906 -4.98438
Q16.9375 -5.60938 15.9219 -5.60938
Q15.0938 -5.60938 14.5 -4.96875
Q13.9219 -4.34375 13.9219 -3.60938
M20.4062 37.3125
Q25.3438 37.3125 27.875 43.1875
Q30.4219 49.0781 30.4219 54.8906
Q30.4219 58.1562 29.375 62.3281
Q28.3281 66.5 26.0781 69.4531
Q23.8281 72.4062 20.4062 72.4062
Q15.4375 72.4062 13.8125 66.8594
Q12.2031 61.3281 12.2031 54.7812
Q12.2031 48.4844 13.8594 42.8906
Q15.5312 37.3125 20.4062 37.3125
M64.7031 -5.60938
Q60.0156 -5.60938 56.6406 -2.48438
Q53.2656 0.640625 51.5781 5.34375
Q49.9062 10.0625 49.9062 14.5938
Q49.9062 19.0469 51.5781 23.75
Q53.2656 28.4688 56.6406 31.5938
Q60.0156 34.7188 64.7031 34.7188
Q69.0469 34.7188 71.9688 31.4219
Q74.9062 28.125 76.25 23.4844
Q77.5938 18.8438 77.5938 14.5938
Q77.5938 11.375 76.8281 7.95312
Q76.0781 4.54688 74.5312 1.4375
Q73 -1.65625 70.5312 -3.625
Q68.0625 -5.60938 64.7031 -5.60938
M64.7031 -2.98438
Q68.0625 -2.98438 70.3594 0.015625
Q72.6562 3.03125 73.6719 7.17188
Q74.7031 11.3281 74.7031 14.5938
Q74.7031 20.3594 72.1562 26.2188
Q69.625 32.0781 64.7031 32.0781
Q59.7188 32.0781 58.1094 26.5312
Q56.5 21 56.5 14.5
Q56.5 8.15625 58.1562 2.57812
Q59.8125 -2.98438 64.7031 -2.98438" id="Cmr10-25"/>
      <path d="
M2.98438 0
L2.98438 3.51562
Q6.39062 3.51562 8.59375 4.04688
Q10.7969 4.59375 10.7969 6.6875
L10.7969 33.9844
Q10.7969 36.6719 9.98438 37.8594
Q9.1875 39.0625 7.67188 39.3281
Q6.15625 39.5938 2.98438 39.5938
L2.98438 43.1094
L17.4844 44.1875
L17.4844 34.4219
Q19.4844 38.7188 23.4062 41.4531
Q27.3438 44.1875 31.9844 44.1875
Q43.5 44.1875 45.5156 34.8125
Q47.5156 39.0156 51.3594 41.5938
Q55.2188 44.1875 59.8125 44.1875
Q64.3594 44.1875 67.4531 42.7188
Q70.5625 41.2656 72.125 38.25
Q73.6875 35.25 73.6875 30.7188
L73.6875 6.6875
Q73.6875 4.59375 75.9062 4.04688
Q78.125 3.51562 81.5 3.51562
L81.5 0
L58.5938 0
L58.5938 3.51562
Q62.0156 3.51562 64.2031 4.04688
Q66.4062 4.59375 66.4062 6.6875
L66.4062 30.4219
Q66.4062 35.4531 64.9844 38.5312
Q63.5781 41.6094 59.1875 41.6094
Q53.4219 41.6094 49.6562 36.9688
Q45.9062 32.3281 45.9062 26.4219
L45.9062 6.6875
Q45.9062 4.59375 48.0938 4.04688
Q50.2969 3.51562 53.7188 3.51562
L53.7188 0
L30.8125 0
L30.8125 3.51562
Q34.2344 3.51562 36.4219 4.04688
Q38.625 4.59375 38.625 6.6875
L38.625 30.4219
Q38.625 35.2969 37.2031 38.4531
Q35.7969 41.6094 31.3906 41.6094
Q25.5938 41.6094 21.8438 36.9688
Q18.1094 32.3281 18.1094 26.4219
L18.1094 6.6875
Q18.1094 4.59375 20.3125 4.04688
Q22.5156 3.51562 25.875 3.51562
L25.875 0
z
" id="Cmr10-6d"/>
      <path d="
M8.40625 5.51562
Q8.40625 7.76562 10.0625 9.375
Q11.7188 10.9844 13.9219 10.9844
Q15.2812 10.9844 16.5938 10.25
Q17.9219 9.51562 18.6562 8.20312
Q19.3906 6.89062 19.3906 5.51562
Q19.3906 3.32812 17.7656 1.65625
Q16.1562 0 13.9219 0
Q11.7188 0 10.0625 1.65625
Q8.40625 3.32812 8.40625 5.51562" id="Cmr10-2e"/>
      <path d="
M4 9.8125
Q4 15.7656 8.6875 19.5
Q13.375 23.25 19.9375 24.7812
Q26.5156 26.3125 32.4219 26.3125
L32.4219 30.4219
Q32.4219 33.2969 31.1562 36
Q29.8906 38.7188 27.4844 40.4531
Q25.0938 42.1875 22.2188 42.1875
Q15.5781 42.1875 12.1094 39.2031
Q14.0156 39.2031 15.25 37.7656
Q16.5 36.3281 16.5 34.4219
Q16.5 32.4219 15.0781 31
Q13.6719 29.5938 11.7188 29.5938
Q9.71875 29.5938 8.29688 31
Q6.89062 32.4219 6.89062 34.4219
Q6.89062 39.7031 11.6719 42.2656
Q16.4531 44.8281 22.2188 44.8281
Q26.2656 44.8281 30.3594 43.0938
Q34.4688 41.3594 37.0781 38.125
Q39.7031 34.9062 39.7031 30.6094
L39.7031 8.10938
Q39.7031 6.15625 40.5312 4.51562
Q41.3594 2.875 43.1094 2.875
Q44.7812 2.875 45.5781 4.53125
Q46.3906 6.20312 46.3906 8.10938
L46.3906 14.5
L49.3125 14.5
L49.3125 8.10938
Q49.3125 5.85938 48.1406 3.82812
Q46.9688 1.8125 44.9844 0.609375
Q43.0156 -0.59375 40.7188 -0.59375
Q37.7969 -0.59375 35.6719 1.67188
Q33.5469 3.95312 33.2969 7.07812
Q31.4531 3.32812 27.8281 1.09375
Q24.2188 -1.125 20.125 -1.125
Q16.3125 -1.125 12.625 0
Q8.9375 1.125 6.46875 3.53125
Q4 5.95312 4 9.8125
M12.1094 9.8125
Q12.1094 6.29688 14.6875 3.90625
Q17.2812 1.51562 20.7969 1.51562
Q24.0312 1.51562 26.6562 3.125
Q29.2969 4.73438 30.8594 7.51562
Q32.4219 10.2969 32.4219 13.375
L32.4219 23.7812
Q27.875 23.7812 23.1094 22.2812
Q18.3594 20.7969 15.2344 17.625
Q12.1094 14.4531 12.1094 9.8125" id="Cmr10-61"/>
      <path d="
M2.59375 -19.3906
L2.59375 -15.9219
Q6 -15.9219 8.20312 -15.3281
Q10.4062 -14.75 10.4062 -12.7031
L10.4062 35.5
Q10.4062 38.2344 8.45312 38.9062
Q6.5 39.5938 2.59375 39.5938
L2.59375 43.1094
L17.3906 44.1875
L17.3906 37.9844
Q20.125 41.0156 23.75 42.5938
Q27.3906 44.1875 31.5 44.1875
Q37.4062 44.1875 42.1406 40.9844
Q46.875 37.7969 49.5312 32.5938
Q52.2031 27.3906 52.2031 21.5781
Q52.2031 15.5312 49.25 10.2969
Q46.2969 5.07812 41.1875 1.96875
Q36.0781 -1.125 29.9844 -1.125
Q22.7031 -1.125 17.6719 4.78125
L17.6719 -12.7031
Q17.6719 -14.75 19.8906 -15.3281
Q22.125 -15.9219 25.4844 -15.9219
L25.4844 -19.3906
z

M17.6719 9.71875
Q19.4375 6.15625 22.5625 3.82812
Q25.6875 1.51562 29.3906 1.51562
Q32.8594 1.51562 35.5156 3.35938
Q38.1875 5.21875 39.9844 8.34375
Q41.7969 11.4688 42.6406 14.9062
Q43.5 18.3594 43.5 21.5781
Q43.5 25.5938 42.0625 30.25
Q40.625 34.9062 37.6719 38.1094
Q34.7188 41.3125 30.5156 41.3125
Q26.4688 41.3125 23.0625 39.2344
Q19.6719 37.1562 17.6719 33.5938
z
" id="Cmr10-70"/>
     </defs>
     <g transform="translate(45.253125 144.666335227)rotate(-90.0)scale(0.2 -0.2)">
      <use xlink:href="#Cmr10-61"/>
      <use x="50.0" xlink:href="#Cmr10-6d"/>
      <use x="133.30078125" xlink:href="#Cmr10-70"/>
      <use x="188.818359375" xlink:href="#Cmr10-2e"/>
      <use x="216.50390625" xlink:href="#Cmr10-20"/>
      <use x="249.8046875" xlink:href="#Cmr10-25"/>
     </g>
    </g>
   </g>
   <g id="text_6">
    <!-- Spatial profile in time  -->
    <defs>
     <path d="
M2.98438 0
L2.98438 3.51562
Q6.39062 3.51562 8.59375 4.04688
Q10.7969 4.59375 10.7969 6.6875
L10.7969 33.9844
Q10.7969 36.6719 9.98438 37.8594
Q9.1875 39.0625 7.67188 39.3281
Q6.15625 39.5938 2.98438 39.5938
L2.98438 43.1094
L17.4844 44.1875
L17.4844 34.4219
Q19.4844 38.7188 23.4062 41.4531
Q27.3438 44.1875 31.9844 44.1875
Q38.9219 44.1875 42.4062 40.8594
Q45.9062 37.5469 45.9062 30.7188
L45.9062 6.6875
Q45.9062 4.59375 48.0938 4.04688
Q50.2969 3.51562 53.7188 3.51562
L53.7188 0
L30.8125 0
L30.8125 3.51562
Q34.2344 3.51562 36.4219 4.04688
Q38.625 4.59375 38.625 6.6875
L38.625 30.4219
Q38.625 35.2969 37.2031 38.4531
Q35.7969 41.6094 31.3906 41.6094
Q25.5938 41.6094 21.8438 36.9688
Q18.1094 32.3281 18.1094 26.4219
L18.1094 6.6875
Q18.1094 4.59375 20.3125 4.04688
Q22.5156 3.51562 25.875 3.51562
L25.875 0
z
" id="Cmr10-6e"/>
     <path d="
M25 -1.125
Q19 -1.125 13.8594 1.92188
Q8.73438 4.98438 5.75 10.1094
Q2.78125 15.2344 2.78125 21.2969
Q2.78125 25.875 4.42188 30.125
Q6.0625 34.375 9.10938 37.7188
Q12.1562 41.0625 16.2031 42.9375
Q20.2656 44.8281 25 44.8281
Q31.1562 44.8281 36.2031 41.5781
Q41.2656 38.3281 44.1875 32.875
Q47.125 27.4375 47.125 21.2969
Q47.125 15.2812 44.1406 10.125
Q41.1562 4.98438 36.0469 1.92188
Q30.9531 -1.125 25 -1.125
M25 1.8125
Q33.0156 1.8125 35.6875 7.60938
Q38.375 13.4219 38.375 22.4062
Q38.375 27.4375 37.8438 30.7344
Q37.3125 34.0312 35.5 36.7188
Q34.375 38.375 32.6406 39.625
Q30.9062 40.875 28.9688 41.5312
Q27.0469 42.1875 25 42.1875
Q21.875 42.1875 19.0625 40.7656
Q16.2656 39.3594 14.4062 36.7188
Q12.5469 33.8906 12.0312 30.4844
Q11.5312 27.0938 11.5312 22.4062
Q11.5312 16.7969 12.5 12.3281
Q13.4844 7.85938 16.4375 4.82812
Q19.3906 1.8125 25 1.8125" id="Cmr10-6f"/>
     <path d="
M3.07812 0
L3.07812 3.51562
Q6.5 3.51562 8.6875 4.04688
Q10.8906 4.59375 10.8906 6.6875
L10.8906 59.1875
Q10.8906 61.8594 10.0781 63.0625
Q9.28125 64.2656 7.76562 64.5312
Q6.25 64.7969 3.07812 64.7969
L3.07812 68.3125
L17.9219 69.3906
L17.9219 6.6875
Q17.9219 4.59375 20.1094 4.04688
Q22.3125 3.51562 25.6875 3.51562
L25.6875 0
z
" id="Cmr10-6c"/>
     <path d="
M3.07812 0
L3.07812 3.51562
Q6.5 3.51562 8.6875 4.04688
Q10.8906 4.59375 10.8906 6.6875
L10.8906 33.9844
Q10.8906 37.8438 9.39062 38.7188
Q7.90625 39.5938 3.51562 39.5938
L3.51562 43.1094
L17.9219 44.1875
L17.9219 6.6875
Q17.9219 4.59375 19.8281 4.04688
Q21.7344 3.51562 24.9062 3.51562
L24.9062 0
z

M7.32812 61.375
Q7.32812 63.5781 8.98438 65.2344
Q10.6406 66.8906 12.7969 66.8906
Q14.2031 66.8906 15.5156 66.1562
Q16.8438 65.4375 17.5781 64.1094
Q18.3125 62.7969 18.3125 61.375
Q18.3125 59.2344 16.6406 57.5625
Q14.9844 55.9062 12.7969 55.9062
Q10.6406 55.9062 8.98438 57.5625
Q7.32812 59.2344 7.32812 61.375" id="Cmr10-69"/>
     <path d="
M5.60938 -1.42188
L5.60938 21.9219
Q5.60938 22.7031 6.5 22.7031
L7.71875 22.7031
Q8.01562 22.7031 8.25 22.4531
Q8.5 22.2188 8.5 21.9219
Q8.5 12.1094 14.5781 6.70312
Q20.6562 1.3125 30.5156 1.3125
Q33.9844 1.3125 36.9062 3.3125
Q39.8438 5.32812 41.4688 8.5625
Q43.1094 11.8125 43.1094 15.2812
Q43.1094 18.3125 41.8906 21.1719
Q40.6719 24.0312 38.375 26.125
Q36.0781 28.2188 33.2031 28.9062
L20.2188 32.0781
Q13.7656 33.7969 9.6875 39.0938
Q5.60938 44.3906 5.60938 50.9844
Q5.60938 56.1562 8.25 60.6875
Q10.8906 65.2344 15.3594 67.875
Q19.8281 70.5156 25 70.5156
Q35.0156 70.5156 40.9219 63.7188
L45.0156 70.2188
Q45.3125 70.5156 45.7031 70.5156
L46.3906 70.5156
Q46.6875 70.5156 46.9531 70.2812
Q47.2188 70.0625 47.2188 69.6719
L47.2188 46.4844
Q47.2188 45.6094 46.3906 45.6094
L45.2188 45.6094
Q44.2812 45.6094 44.2812 46.4844
Q44.2812 49.0312 43.4219 52.0469
Q42.5781 55.0781 41.0625 57.8594
Q39.5469 60.6406 37.7969 62.4062
Q32.9531 67.2812 25 67.2812
Q21.5781 67.2812 18.7031 65.5469
Q15.8281 63.8125 14.1094 60.8281
Q12.4062 57.8594 12.4062 54.5938
Q12.4062 50.2969 15.0625 46.7969
Q17.7188 43.3125 22.0156 42.1875
L35.0156 39.0156
Q38.2344 38.2344 41.0938 36.2031
Q43.9531 34.1875 45.8438 31.5
Q47.75 28.8125 48.8281 25.5156
Q49.9062 22.2188 49.9062 18.7031
Q49.9062 13.2812 47.4062 8.46875
Q44.9219 3.65625 40.4062 0.71875
Q35.8906 -2.20312 30.5156 -2.20312
Q27.2031 -2.20312 23.7344 -1.46875
Q20.2656 -0.734375 17.3281 0.78125
Q14.4062 2.29688 12.0156 4.6875
L7.8125 -1.90625
Q7.51562 -2.20312 7.07812 -2.20312
L6.5 -2.20312
Q5.60938 -2.20312 5.60938 -1.42188" id="Cmr10-53"/>
     <path d="
M24.9062 -1.125
Q18.7969 -1.125 13.6875 2.07812
Q8.59375 5.28125 5.6875 10.625
Q2.78125 15.9688 2.78125 21.9219
Q2.78125 27.7812 5.4375 33.0469
Q8.10938 38.3281 12.8594 41.5781
Q17.625 44.8281 23.4844 44.8281
Q28.0781 44.8281 31.4688 43.2812
Q34.8594 41.75 37.0625 39.0156
Q39.2656 36.2812 40.375 32.5625
Q41.5 28.8594 41.5 24.4219
Q41.5 23.0938 40.4844 23.0938
L11.5312 23.0938
L11.5312 22.0156
Q11.5312 13.7188 14.875 7.76562
Q18.2188 1.8125 25.7812 1.8125
Q28.8594 1.8125 31.4688 3.17188
Q34.0781 4.54688 36 6.98438
Q37.9375 9.42188 38.625 12.2031
Q38.7188 12.5469 38.9844 12.8125
Q39.2656 13.0938 39.5938 13.0938
L40.4844 13.0938
Q41.5 13.0938 41.5 11.8125
Q40.0938 6.15625 35.4062 2.51562
Q30.7188 -1.125 24.9062 -1.125
M11.625 25.5938
L34.4219 25.5938
Q34.4219 29.3438 33.375 33.2031
Q32.3281 37.0625 29.875 39.625
Q27.4375 42.1875 23.4844 42.1875
Q17.8281 42.1875 14.7188 36.8906
Q11.625 31.5938 11.625 25.5938" id="Cmr10-65"/>
     <path d="
M3.21875 0
L3.21875 3.51562
Q6.59375 3.51562 8.78125 4.04688
Q10.9844 4.59375 10.9844 6.6875
L10.9844 39.5938
L3.32812 39.5938
L3.32812 43.1094
L10.9844 43.1094
L10.9844 55.0781
Q10.9844 58.2969 12.3281 61.1094
Q13.6719 63.9219 15.9375 66.0156
Q18.2188 68.1094 21.1719 69.3125
Q24.125 70.5156 27.2969 70.5156
Q30.6719 70.5156 33.375 68.5
Q36.0781 66.5 36.0781 63.1875
Q36.0781 61.2812 34.7812 59.9844
Q33.5 58.6875 31.5938 58.6875
Q29.6875 58.6875 28.3438 59.9844
Q27 61.2812 27 63.1875
Q27 66.3125 29.6875 67.3906
Q28.0781 67.9219 26.8125 67.9219
Q23.875 67.9219 21.7969 65.8438
Q19.7344 63.7656 18.7031 60.7812
Q17.6719 57.8125 17.6719 54.8906
L17.6719 43.1094
L29.2031 43.1094
L29.2031 39.5938
L18.0156 39.5938
L18.0156 6.6875
Q18.0156 4.64062 20.9375 4.07812
Q23.875 3.51562 27.6875 3.51562
L27.6875 0
z
" id="Cmr10-66"/>
     <path d="
M10.2031 12.0156
L10.2031 39.5938
L1.90625 39.5938
L1.90625 42.1875
Q8.45312 42.1875 11.5156 48.2812
Q14.5938 54.3906 14.5938 61.5312
L17.4844 61.5312
L17.4844 43.1094
L31.5938 43.1094
L31.5938 39.5938
L17.4844 39.5938
L17.4844 12.2031
Q17.4844 8.0625 18.875 4.9375
Q20.2656 1.8125 23.875 1.8125
Q27.2969 1.8125 28.8125 5.10938
Q30.3281 8.40625 30.3281 12.2031
L30.3281 18.1094
L33.2031 18.1094
L33.2031 12.0156
Q33.2031 8.89062 32.0469 5.82812
Q30.9062 2.78125 28.6562 0.828125
Q26.4219 -1.125 23.1875 -1.125
Q17.1875 -1.125 13.6875 2.46875
Q10.2031 6.0625 10.2031 12.0156" id="Cmr10-74"/>
     <path d="
M2.59375 0
L2.59375 3.51562
Q6 3.51562 8.20312 4.04688
Q10.4062 4.59375 10.4062 6.6875
L10.4062 33.9844
Q10.4062 36.6719 9.59375 37.8594
Q8.79688 39.0625 7.28125 39.3281
Q5.76562 39.5938 2.59375 39.5938
L2.59375 43.1094
L16.8906 44.1875
L16.8906 34.4219
Q18.5 38.7656 21.4844 41.4688
Q24.4688 44.1875 28.7188 44.1875
Q31.6875 44.1875 34.0312 42.4219
Q36.375 40.6719 36.375 37.7969
Q36.375 35.9844 35.0781 34.6406
Q33.7969 33.2969 31.8906 33.2969
Q30.0312 33.2969 28.7031 34.6094
Q27.3906 35.9375 27.3906 37.7969
Q27.3906 40.4844 29.2969 41.6094
L28.7188 41.6094
Q24.6562 41.6094 22.0938 38.6719
Q19.5312 35.75 18.4531 31.3906
Q17.3906 27.0469 17.3906 23.0938
L17.3906 6.6875
Q17.3906 3.51562 27.0938 3.51562
L27.0938 0
z
" id="Cmr10-72"/>
    </defs>
    <g transform="translate(50.458125 13.50775)scale(0.24 -0.24)">
     <use xlink:href="#Cmr10-53"/>
     <use x="55.517578125" xlink:href="#Cmr10-70"/>
     <use x="111.03515625" xlink:href="#Cmr10-61"/>
     <use x="161.03515625" xlink:href="#Cmr10-74"/>
     <use x="199.853515625" xlink:href="#Cmr10-69"/>
     <use x="227.5390625" xlink:href="#Cmr10-61"/>
     <use x="277.5390625" xlink:href="#Cmr10-6c"/>
     <use x="305.224609375" xlink:href="#Cmr10-20"/>
     <use x="338.525390625" xlink:href="#Cmr10-70"/>
     <use x="394.04296875" xlink:href="#Cmr10-72"/>
     <use x="433.154296875" xlink:href="#Cmr10-6f"/>
     <use x="483.154296875" xlink:href="#Cmr10-66"/>
     <use x="513.671875" xlink:href="#Cmr10-69"/>
     <use x="541.357421875" xlink:href="#Cmr10-6c"/>
     <use x="569.04296875" xlink:href="#Cmr10-65"/>
     <use x="613.427734375" xlink:href="#Cmr10-20"/>
     <use x="646.728515625" xlink:href="#Cmr10-69"/>
     <use x="674.4140625" xlink:href="#Cmr10-6e"/>
     <use x="729.931640625" xlink:href="#Cmr10-20"/>
     <use x="763.232421875" xlink:href="#Cmr10-74"/>
     <use x="802.05078125" xlink:href="#Cmr10-69"/>
     <use x="829.736328125" xlink:href="#Cmr10-6d"/>
     <use x="913.037109375" xlink:href="#Cmr10-65"/>
     <use x="957.421875" xlink:href="#Cmr10-20"/>
    </g>
    <!--  -->
    <g transform="translate(165.0 38.146)scale(0.24 -0.24)"/>
   </g>
  </g>
  <g id="axes_2">
   <g id="patch_7">
    <path d="
M332.4 180.655
L518.4 180.655
L518.4 43.2
L332.4 43.2
z
" style="fill:#ffffff;"/>
   </g>
   <g id="line2d_6">
    <path clip-path="url(#peeeae3c3e4)" d="
M335.977 176.265
L337.783 176.363
L339.59 175.451
L341.397 174.216
L343.203 172.909
L345.01 171.092
L346.816 170.263
L348.623 169.082
L350.429 167.317
L352.236 166.792
L354.042 166.04
L355.849 165.224
L357.655 163.961
L359.462 164.571
L361.268 162.762
L363.075 161.805
L364.881 161.118
L366.688 159.628
L368.494 158.296
L370.301 156.225
L372.107 153.637
L373.914 151.644
L375.721 149.184
L377.527 145.917
L379.334 142.932
L381.14 139.861
L382.947 136.08
L384.753 132.286
L386.56 127.507
L388.366 123.793
L390.173 119.025
L391.979 114.386
L393.786 109.717
L395.592 105.31
L397.399 100.199
L399.205 96.2254
L401.012 90.709
L402.818 86.1139
L404.625 82.3518
L406.431 74.6223
L408.238 73.8787
L410.045 69.8645
L411.851 66.4062
L413.658 62.8325
L415.464 59.4742
L417.271 57.2916
L419.077 55.2612
L420.884 53.9638
L422.69 52.6835
L424.497 52.1388
L426.303 51.8873
L428.11 52.1388
L429.916 52.6835
L431.723 53.9638
L433.529 55.2612
L435.336 57.2916
L437.142 59.4742
L438.949 62.8325
L440.755 66.4062
L442.562 69.8645
L444.369 73.8787
L446.175 74.6223
L447.982 82.3518
L449.788 86.1139
L451.595 90.709
L453.401 96.2254
L455.208 100.199
L457.014 105.31
L458.821 109.717
L460.627 114.386
L462.434 119.025
L464.24 123.793
L466.047 127.507
L467.853 132.286
L469.66 136.08
L471.466 139.861
L473.273 142.932
L475.079 145.917
L476.886 149.184
L478.693 151.644
L480.499 153.637
L482.306 156.225
L484.112 158.296
L485.919 159.628
L487.725 161.118
L489.532 161.805
L491.338 162.762
L493.145 164.571
L494.951 163.961
L496.758 165.224
L498.564 166.04
L500.371 166.792
L502.177 167.317
L503.984 169.082
L505.79 170.263
L507.597 171.092
L509.403 172.909
L511.21 174.216
L513.017 175.451
L514.823 176.363" style="fill:none;stroke:#000000;stroke-linecap:square;stroke-width:2;"/>
   </g>
   <g id="patch_8">
    <path d="
M332.4 43.2
L518.4 43.2" style="fill:none;"/>
   </g>
   <g id="patch_9">
    <path d="
M518.4 180.655
L518.4 43.2" style="fill:none;"/>
   </g>
   <g id="patch_10">
    <path d="
M332.4 180.655
L518.4 180.655" style="fill:none;"/>
   </g>
   <g id="patch_11">
    <path d="
M327.4 176.363
L327.4 51.8873" style="fill:none;stroke:#000000;stroke-linecap:square;stroke-linejoin:miter;"/>
   </g>
   <g id="matplotlib.axis_3"/>
   <g id="matplotlib.axis_4">
    <g id="ytick_5">
     <g id="line2d_7">
      <g>
       <use style="stroke:#000000;stroke-width:0.5;" x="327.4" xlink:href="#m728421d6d4" y="155.983216783"/>
      </g>
     </g>
     <g id="text_7">
      <!-- 68 -->
      <defs>
       <path d="
M4.20312 15.1875
Q4.20312 21.1875 8.15625 25.7969
Q12.1094 30.4219 18.3125 33.5
L14.5938 35.8906
Q11.1875 38.1406 9.03125 41.875
Q6.89062 45.6094 6.89062 49.7031
Q6.89062 54.5 9.40625 58.3438
Q11.9219 62.2031 16.0938 64.4062
Q20.2656 66.6094 25 66.6094
Q29.4375 66.6094 33.5625 64.7969
Q37.7031 62.9844 40.3594 59.6094
Q43.0156 56.25 43.0156 51.6094
Q43.0156 48.25 41.4219 45.3594
Q39.8438 42.4844 37.0781 40.1875
Q34.3281 37.8906 31.2031 36.2812
L36.9219 32.625
Q40.875 30.0312 43.2812 25.8281
Q45.7031 21.625 45.7031 17
Q45.7031 11.5781 42.7969 7.125
Q39.8906 2.6875 35.1094 0.234375
Q30.3281 -2.20312 25 -2.20312
Q19.8281 -2.20312 15.0156 -0.09375
Q10.2031 2 7.20312 5.98438
Q4.20312 9.96875 4.20312 15.1875
M9.625 15.1875
Q9.625 11.2344 11.7969 7.95312
Q13.9688 4.6875 17.5312 2.82812
Q21.0938 0.984375 25 0.984375
Q30.8125 0.984375 35.5469 4.375
Q40.2812 7.76562 40.2812 13.375
Q40.2812 15.2812 39.5156 17.1562
Q38.7656 19.0469 37.4219 20.5781
Q36.0781 22.125 34.4219 23.0938
L21 31.7812
Q17.875 30.125 15.25 27.5781
Q12.6406 25.0469 11.125 21.875
Q9.625 18.7031 9.625 15.1875
M16.5 45.7031
L28.6094 37.8906
Q32.8125 40.3281 35.5 43.7969
Q38.1875 47.2656 38.1875 51.6094
Q38.1875 54.9844 36.2969 57.7812
Q34.4219 60.5938 31.3906 62.1562
Q28.375 63.7188 24.9062 63.7188
Q21.875 63.7188 18.7969 62.5469
Q15.7188 61.375 13.7188 59.0469
Q11.7188 56.7344 11.7188 53.6094
Q11.7188 48.9219 16.5 45.7031" id="Cmr10-38"/>
      </defs>
      <g transform="translate(305.1 160.983216783)scale(0.2 -0.2)">
       <use xlink:href="#Cmr10-36"/>
       <use x="50.0" xlink:href="#Cmr10-38"/>
      </g>
     </g>
    </g>
    <g id="ytick_6">
     <g id="line2d_8">
      <g>
       <use style="stroke:#000000;stroke-width:0.5;" x="327.4" xlink:href="#m728421d6d4" y="111.927272727"/>
      </g>
     </g>
     <g id="text_8">
      <!-- 72 -->
      <defs>
       <path d="
M17.3906 2.59375
Q17.3906 8.15625 18.3594 13.4688
Q19.3438 18.7969 21.2188 24
Q23.0938 29.2031 25.75 34.2031
Q28.4219 39.2031 31.5938 43.6094
L40.7188 56.2969
L29.2969 56.2969
Q11.5312 56.2969 10.9844 55.8125
Q9.67188 54.2031 8.5 46.5781
L5.60938 46.5781
L8.89062 67.5781
L11.8125 67.5781
L11.8125 67.2812
Q11.8125 65.4844 17.9219 64.9375
Q24.0312 64.4062 29.8906 64.4062
L48.4844 64.4062
L48.4844 61.8125
Q48.4844 61.7188 48.4531 61.6719
Q48.4375 61.625 48.3906 61.5312
L34.625 42.1875
Q29.5469 34.6719 28.2656 25.4844
Q27 16.3125 27 2.59375
Q27 0.640625 25.5781 -0.78125
Q24.1719 -2.20312 22.2188 -2.20312
Q20.2188 -2.20312 18.7969 -0.78125
Q17.3906 0.640625 17.3906 2.59375" id="Cmr10-37"/>
      </defs>
      <g transform="translate(305.5375 116.927272727)scale(0.2 -0.2)">
       <use xlink:href="#Cmr10-37"/>
       <use x="50.0" xlink:href="#Cmr10-32"/>
      </g>
     </g>
    </g>
    <g id="ytick_7">
     <g id="line2d_9">
      <g>
       <use style="stroke:#000000;stroke-width:0.5;" x="327.4" xlink:href="#m728421d6d4" y="67.8713286713"/>
      </g>
     </g>
     <g id="text_9">
      <!-- 76 -->
      <g transform="translate(305.38125 72.8713286713)scale(0.2 -0.2)">
       <use xlink:href="#Cmr10-37"/>
       <use x="50.0" xlink:href="#Cmr10-36"/>
      </g>
     </g>
    </g>
    <g id="text_10">
     <!-- $\tau_1$ (ms) -->
     <defs>
      <path d="
M31 -24.8125
Q25.4375 -20.4062 21.4062 -14.7188
Q17.3906 -9.03125 14.8125 -2.57812
Q12.25 3.85938 10.9844 10.8906
Q9.71875 17.9219 9.71875 25
Q9.71875 32.1719 10.9844 39.2031
Q12.25 46.2344 14.8594 52.7344
Q17.4844 59.2344 21.5312 64.8906
Q25.5938 70.5625 31 74.8125
Q31 75 31.5 75
L32.4219 75
Q32.7188 75 32.9531 74.7344
Q33.2031 74.4688 33.2031 74.125
Q33.2031 73.6875 33.0156 73.4844
Q28.125 68.7031 24.875 63.2344
Q21.625 57.7656 19.6406 51.5781
Q17.6719 45.4062 16.7969 38.7812
Q15.9219 32.1719 15.9219 25
Q15.9219 -6.78125 32.9062 -23.2969
Q33.2031 -23.5781 33.2031 -24.125
Q33.2031 -24.3594 32.9375 -24.6719
Q32.6719 -25 32.4219 -25
L31.5 -25
Q31 -25 31 -24.8125" id="Cmr10-28"/>
      <path d="
M6.5 -25
Q5.60938 -25 5.60938 -24.125
Q5.60938 -23.6875 5.8125 -23.4844
Q22.9062 -6.78125 22.9062 25
Q22.9062 56.7812 6 73.2969
Q5.60938 73.5312 5.60938 74.125
Q5.60938 74.4688 5.875 74.7344
Q6.15625 75 6.5 75
L7.42188 75
Q7.71875 75 7.90625 74.8125
Q15.0938 69.1406 19.875 61.0312
Q24.6562 52.9375 26.875 43.75
Q29.1094 34.5781 29.1094 25
Q29.1094 17.9219 27.9062 11.0625
Q26.7031 4.20312 24.0938 -2.45312
Q21.4844 -9.125 17.4844 -14.7656
Q13.4844 -20.4062 7.90625 -24.8125
Q7.71875 -25 7.42188 -25
z
" id="Cmr10-29"/>
      <path d="
M9.28125 0
L9.28125 3.51562
Q21.7812 3.51562 21.7812 6.6875
L21.7812 59.1875
Q16.6094 56.6875 8.6875 56.6875
L8.6875 60.2031
Q20.9531 60.2031 27.2031 66.6094
L28.6094 66.6094
Q28.9531 66.6094 29.2656 66.3281
Q29.5938 66.0625 29.5938 65.7188
L29.5938 6.6875
Q29.5938 3.51562 42.0938 3.51562
L42.0938 0
z
" id="Cmr10-31"/>
      <path d="
M15.5781 1.51562
Q15.5781 2.20312 15.7188 2.59375
L26.2188 36.9219
L17.1875 36.9219
Q13.5312 36.9219 10.3438 34.625
Q7.17188 32.3281 5.07812 28.8125
Q4.89062 28.4219 4.5 28.4219
L3.32812 28.4219
Q2.39062 28.4219 2.39062 29.3906
Q2.39062 29.5938 2.59375 29.9844
Q5.85938 35.5469 9.59375 39.3281
Q13.3281 43.1094 18.0156 43.1094
L48.6875 43.1094
Q49.75 43.1094 50.4844 42.375
Q51.2188 41.6562 51.2188 40.5781
Q51.2188 39.1094 50.1719 38.0156
Q49.125 36.9219 47.6094 36.9219
L29.5 36.9219
L22.7969 2.39062
Q22.4062 0.78125 21.3281 -0.265625
Q20.2656 -1.3125 18.6094 -1.3125
Q17.3281 -1.3125 16.4531 -0.5
Q15.5781 0.296875 15.5781 1.51562" id="Cmmi10-bf"/>
      <path d="
M3.32812 -0.296875
L3.32812 16.0156
Q3.32812 16.7969 4.20312 16.7969
L5.42188 16.7969
Q6 16.7969 6.20312 16.0156
Q8.98438 1.51562 19.6719 1.51562
Q24.4219 1.51562 27.6094 3.65625
Q30.8125 5.8125 30.8125 10.2969
Q30.8125 13.5312 28.3125 15.7969
Q25.8281 18.0625 22.4062 18.8906
L15.7188 20.2188
Q12.3594 20.9531 9.59375 22.4531
Q6.84375 23.9688 5.07812 26.4844
Q3.32812 29 3.32812 32.3281
Q3.32812 36.7188 5.64062 39.5156
Q7.95312 42.3281 11.6562 43.5781
Q15.375 44.8281 19.6719 44.8281
Q24.8125 44.8281 28.6094 42.0938
L31.5 44.5781
Q31.5 44.8281 31.9844 44.8281
L32.7188 44.8281
Q33.0156 44.8281 33.25 44.5469
Q33.5 44.2812 33.5 44
L33.5 30.9062
Q33.5 29.9844 32.7188 29.9844
L31.5 29.9844
Q30.6094 29.9844 30.6094 30.9062
Q30.6094 36.1406 27.7031 39.3125
Q24.8125 42.4844 19.5781 42.4844
Q15.0938 42.4844 11.7969 40.8125
Q8.5 39.1562 8.5 35.1094
Q8.5 32.3281 10.8594 30.5469
Q13.2344 28.7656 16.4062 27.9844
L23.1875 26.7031
Q26.6094 25.9219 29.5625 24.0625
Q32.5156 22.2188 34.25 19.375
Q35.9844 16.5469 35.9844 12.9844
Q35.9844 9.375 34.7344 6.70312
Q33.5 4.04688 31.2656 2.28125
Q29.0469 0.53125 26.0156 -0.296875
Q23 -1.125 19.6719 -1.125
Q13.4219 -1.125 8.98438 3.07812
L5.32812 -0.875
Q5.32812 -1.125 4.78125 -1.125
L4.20312 -1.125
Q3.32812 -1.125 3.32812 -0.296875" id="Cmr10-73"/>
     </defs>
     <g transform="translate(294.9 144.727272727)rotate(-90.0)scale(0.2 -0.2)">
      <use xlink:href="#Cmmi10-bf"/>
      <use transform="translate(43.701171875 -25.509375)scale(0.7)" xlink:href="#Cmr10-31"/>
      <use transform="translate(93.701171875 0.0)" xlink:href="#Cmr10-20"/>
      <use transform="translate(127.001953125 0.0)" xlink:href="#Cmr10-28"/>
      <use transform="translate(165.8203125 0.0)" xlink:href="#Cmr10-6d"/>
      <use transform="translate(249.12109375 0.0)" xlink:href="#Cmr10-73"/>
      <use transform="translate(288.525390625 0.0)" xlink:href="#Cmr10-29"/>
     </g>
    </g>
   </g>
   <g id="text_11">
    <!-- Temporal profile in space  -->
    <defs>
     <path d="
M16.8906 0
L16.8906 3.51562
Q21.9219 3.51562 26.6562 4.07812
Q31.3906 4.64062 31.3906 6.6875
L31.3906 61.625
Q31.3906 63.7656 30.1875 64.2812
Q29 64.7969 26.3125 64.7969
L22.125 64.7969
Q13.875 64.7969 10.4062 61.1875
Q8.59375 59.375 7.8125 55.3906
Q7.03125 51.4219 6.5 45.4062
L3.60938 45.4062
L5.51562 68.3125
L66.6094 68.3125
L68.5 45.4062
L65.5781 45.4062
Q64.9844 51.8594 64.2812 55.6406
Q63.5781 59.4219 61.7188 61.1875
Q58.2031 64.7969 50 64.7969
L45.7969 64.7969
Q44 64.7969 43 64.6406
Q42 64.5 41.3594 63.7969
Q40.7188 63.0938 40.7188 61.625
L40.7188 6.6875
Q40.7188 4.64062 45.4531 4.07812
Q50.2031 3.51562 55.1719 3.51562
L55.1719 0
z
" id="Cmr10-54"/>
     <path d="
M24.9062 -1.125
Q18.8438 -1.125 13.9062 2.01562
Q8.98438 5.17188 6.15625 10.4219
Q3.32812 15.6719 3.32812 21.5781
Q3.32812 27.4844 6.125 32.9062
Q8.9375 38.3281 13.8906 41.5781
Q18.8438 44.8281 24.9062 44.8281
Q30.7656 44.8281 35.5625 42.5312
Q40.375 40.2344 40.375 35.0156
Q40.375 33.0625 38.9844 31.6094
Q37.5938 30.1719 35.5938 30.1719
Q33.5938 30.1719 32.2031 31.6094
Q30.8125 33.0625 30.8125 35.0156
Q30.8125 36.7656 31.9375 38.0625
Q33.0625 39.3594 34.7188 39.7031
Q31.25 41.8906 25 41.8906
Q20.2188 41.8906 17.2812 38.7188
Q14.3594 35.5469 13.1875 30.8594
Q12.0156 26.1719 12.0156 21.5781
Q12.0156 16.75 13.4531 12.2344
Q14.8906 7.71875 18.0938 4.76562
Q21.2969 1.8125 26.125 1.8125
Q30.8594 1.8125 34.1719 4.71875
Q37.5 7.625 38.7188 12.3125
Q38.7188 12.8906 39.5 12.8906
L40.7188 12.8906
Q41.0156 12.8906 41.25 12.625
Q41.5 12.3594 41.5 12.0156
L41.5 11.7188
Q39.9844 5.8125 35.4844 2.34375
Q31 -1.125 24.9062 -1.125" id="Cmr10-63"/>
    </defs>
    <g transform="translate(292.07625 13.50775)scale(0.24 -0.24)">
     <use xlink:href="#Cmr10-54"/>
     <use x="72.216796875" xlink:href="#Cmr10-65"/>
     <use x="116.6015625" xlink:href="#Cmr10-6d"/>
     <use x="199.90234375" xlink:href="#Cmr10-70"/>
     <use x="255.419921875" xlink:href="#Cmr10-6f"/>
     <use x="305.419921875" xlink:href="#Cmr10-72"/>
     <use x="344.53125" xlink:href="#Cmr10-61"/>
     <use x="394.53125" xlink:href="#Cmr10-6c"/>
     <use x="422.216796875" xlink:href="#Cmr10-20"/>
     <use x="455.517578125" xlink:href="#Cmr10-70"/>
     <use x="511.03515625" xlink:href="#Cmr10-72"/>
     <use x="550.146484375" xlink:href="#Cmr10-6f"/>
     <use x="600.146484375" xlink:href="#Cmr10-66"/>
     <use x="630.6640625" xlink:href="#Cmr10-69"/>
     <use x="658.349609375" xlink:href="#Cmr10-6c"/>
     <use x="686.03515625" xlink:href="#Cmr10-65"/>
     <use x="730.419921875" xlink:href="#Cmr10-20"/>
     <use x="763.720703125" xlink:href="#Cmr10-69"/>
     <use x="791.40625" xlink:href="#Cmr10-6e"/>
     <use x="846.923828125" xlink:href="#Cmr10-20"/>
     <use x="880.224609375" xlink:href="#Cmr10-73"/>
     <use x="919.62890625" xlink:href="#Cmr10-70"/>
     <use x="975.146484375" xlink:href="#Cmr10-61"/>
     <use x="1025.14648438" xlink:href="#Cmr10-63"/>
     <use x="1069.53125" xlink:href="#Cmr10-65"/>
     <use x="1113.91601562" xlink:href="#Cmr10-20"/>
    </g>
    <!--  -->
    <g transform="translate(425.4 38.146)scale(0.24 -0.24)"/>
   </g>
  </g>
  <g id="axes_3">
   <g id="patch_12">
    <path d="
M72 345.6
L258 345.6
L258 208.145
L72 208.145
z
" style="fill:#ffffff;"/>
   </g>
   <g id="line2d_10">
    <path clip-path="url(#p56f4c19a7e)" d="
M76.7692 330.269
L77.2163 328.633
L77.3654 328.039
L78.7067 314.355
L79.0048 310.026
L79.1538 308.965
L80.0481 298.168
L80.1971 297.216
L81.0913 288.207
L81.2404 287.519
L81.6875 284.192
L81.8365 283.428
L82.1346 281.33
L82.2837 280.941
L82.7308 278.889
L82.8798 278.437
L83.1779 277.181
L83.3269 276.972
L83.774 275.898
L84.5192 274.934
L85.7115 274.632
L86.4567 274.594
L88.2452 274.619
L89.4375 274.302
L91.6731 273.397
L93.7596 272.253
L95.8462 270.858
L97.9327 269.203
L100.168 267.146
L102.553 264.651
L105.236 261.541
L109.111 256.656
L124.014 237.387
L128.188 232.547
L131.913 228.569
L134.149 226.399
L135.49 225.382
L136.683 224.725
L137.875 224.303
L139.365 224.033
L141.899 223.899
L145.625 223.678
L157.846 222.695
L164.702 222.526
L175.731 222.635
L194.212 222.981
L204.793 222.76
L208.966 222.551
L218.356 221.846
L227 220.999
L241.606 219.28
L249.803 218.121
L254.274 217.411
L254.274 217.411" style="fill:none;stroke:#000000;stroke-linecap:square;stroke-width:2;"/>
   </g>
   <g id="patch_13">
    <path d="
M72 208.145
L258 208.145" style="fill:none;"/>
   </g>
   <g id="patch_14">
    <path d="
M258 345.6
L258 208.145" style="fill:none;"/>
   </g>
   <g id="patch_15">
    <path d="
M75.5769 350.6
L254.423 350.6" style="fill:none;stroke:#000000;stroke-linecap:square;stroke-linejoin:miter;"/>
   </g>
   <g id="patch_16">
    <path d="
M67 331.943
L67 217.411" style="fill:none;stroke:#000000;stroke-linecap:square;stroke-linejoin:miter;"/>
   </g>
   <g id="matplotlib.axis_5">
    <g id="xtick_1">
     <g id="line2d_11">
      <defs>
       <path d="
M0 0
L0 -4" id="m93b0483c22" style="stroke:#000000;stroke-width:0.5;"/>
      </defs>
      <g>
       <use style="stroke:#000000;stroke-width:0.5;" x="75.5769230769" xlink:href="#m93b0483c22" y="350.6"/>
      </g>
     </g>
     <g id="text_12">
      <!-- 0 -->
      <g transform="translate(71.3675480769 368.478125)scale(0.2 -0.2)">
       <use xlink:href="#Cmr10-30"/>
      </g>
     </g>
    </g>
    <g id="xtick_2">
     <g id="line2d_12">
      <g>
       <use style="stroke:#000000;stroke-width:0.5;" x="135.192307692" xlink:href="#m93b0483c22" y="350.6"/>
      </g>
     </g>
     <g id="text_13">
      <!-- 200 -->
      <g transform="translate(121.090745192 368.478125)scale(0.2 -0.2)">
       <use xlink:href="#Cmr10-32"/>
       <use x="50.0" xlink:href="#Cmr10-30"/>
       <use x="100.0" xlink:href="#Cmr10-30"/>
      </g>
     </g>
    </g>
    <g id="xtick_3">
     <g id="line2d_13">
      <g>
       <use style="stroke:#000000;stroke-width:0.5;" x="194.807692308" xlink:href="#m93b0483c22" y="350.6"/>
      </g>
     </g>
     <g id="text_14">
      <!-- 400 -->
      <g transform="translate(180.485817308 368.478125)scale(0.2 -0.2)">
       <use xlink:href="#Cmr10-34"/>
       <use x="50.0" xlink:href="#Cmr10-30"/>
       <use x="100.0" xlink:href="#Cmr10-30"/>
      </g>
     </g>
    </g>
    <g id="xtick_4">
     <g id="line2d_14">
      <g>
       <use style="stroke:#000000;stroke-width:0.5;" x="254.423076923" xlink:href="#m93b0483c22" y="350.6"/>
      </g>
     </g>
     <g id="text_15">
      <!-- 600 -->
      <g transform="translate(240.243389423 368.478125)scale(0.2 -0.2)">
       <use xlink:href="#Cmr10-36"/>
       <use x="50.0" xlink:href="#Cmr10-30"/>
       <use x="100.0" xlink:href="#Cmr10-30"/>
      </g>
     </g>
    </g>
    <g id="text_16">
     <!-- time (ms) -->
     <g transform="translate(123.1890625 392.35625)scale(0.2 -0.2)">
      <use xlink:href="#Cmr10-74"/>
      <use x="38.818359375" xlink:href="#Cmr10-69"/>
      <use x="66.50390625" xlink:href="#Cmr10-6d"/>
      <use x="149.8046875" xlink:href="#Cmr10-65"/>
      <use x="194.189453125" xlink:href="#Cmr10-20"/>
      <use x="227.490234375" xlink:href="#Cmr10-28"/>
      <use x="266.30859375" xlink:href="#Cmr10-6d"/>
      <use x="349.609375" xlink:href="#Cmr10-73"/>
      <use x="389.013671875" xlink:href="#Cmr10-29"/>
     </g>
    </g>
   </g>
   <g id="matplotlib.axis_6">
    <g id="ytick_8">
     <g id="line2d_15">
      <g>
       <use style="stroke:#000000;stroke-width:0.5;" x="67.0" xlink:href="#m728421d6d4" y="331.942657343"/>
      </g>
     </g>
     <g id="text_17">
      <!-- 1.5 -->
      <defs>
       <path d="
M8.6875 11.375
Q9.71875 8.45312 11.8438 6.04688
Q13.9688 3.65625 16.875 2.3125
Q19.7812 0.984375 22.9062 0.984375
Q30.125 0.984375 32.8594 6.59375
Q35.5938 12.2031 35.5938 20.2188
Q35.5938 23.6875 35.4688 26.0469
Q35.3594 28.4219 34.8125 30.6094
Q33.8906 34.125 31.5625 36.7656
Q29.25 39.4062 25.875 39.4062
Q22.5156 39.4062 20.0938 38.375
Q17.6719 37.3594 16.1562 35.9844
Q14.6562 34.625 13.4844 33.1094
Q12.3125 31.5938 12.0156 31.5
L10.8906 31.5
Q10.6406 31.5 10.2656 31.8125
Q9.90625 32.125 9.90625 32.4219
L9.90625 65.8281
Q9.90625 66.0625 10.2188 66.3281
Q10.5469 66.6094 10.8906 66.6094
L11.1875 66.6094
Q17.9219 63.375 25.4844 63.375
Q32.9062 63.375 39.7969 66.6094
L40.0938 66.6094
Q40.4375 66.6094 40.7188 66.3594
Q41.0156 66.1094 41.0156 65.8281
L41.0156 64.8906
Q41.0156 64.4062 40.8281 64.4062
Q37.4062 59.8594 32.25 57.3125
Q27.0938 54.7812 21.5781 54.7812
Q17.5781 54.7812 13.375 55.9062
L13.375 37.0156
Q16.7031 39.7031 19.3125 40.8438
Q21.9219 42 25.9844 42
Q31.5 42 35.8594 38.8125
Q40.2344 35.6406 42.5781 30.5312
Q44.9219 25.4375 44.9219 20.125
Q44.9219 14.1094 41.9688 8.98438
Q39.0156 3.85938 33.9375 0.828125
Q28.8594 -2.20312 22.9062 -2.20312
Q17.9688 -2.20312 13.8438 0.328125
Q9.71875 2.875 7.34375 7.17188
Q4.98438 11.4688 4.98438 16.3125
Q4.98438 18.5625 6.4375 19.9688
Q7.90625 21.3906 10.1094 21.3906
Q12.3125 21.3906 13.7969 19.9375
Q15.2812 18.5 15.2812 16.3125
Q15.2812 14.1562 13.7969 12.6719
Q12.3125 11.1875 10.1094 11.1875
Q9.76562 11.1875 9.32812 11.25
Q8.89062 11.3281 8.6875 11.375" id="Cmr10-35"/>
      </defs>
      <g transform="translate(40.215625 336.942657343)scale(0.2 -0.2)">
       <use xlink:href="#Cmr10-31"/>
       <use x="50.0" xlink:href="#Cmr10-2e"/>
       <use x="77.685546875" xlink:href="#Cmr10-35"/>
      </g>
     </g>
    </g>
    <g id="ytick_9">
     <g id="line2d_16">
      <g>
       <use style="stroke:#000000;stroke-width:0.5;" x="67.0" xlink:href="#m728421d6d4" y="298.900699301"/>
      </g>
     </g>
     <g id="text_18">
      <!-- 3.0 -->
      <defs>
       <path d="
M9.51562 7.71875
Q11.8594 4.29688 15.8125 2.64062
Q19.7812 0.984375 24.3125 0.984375
Q30.125 0.984375 32.5625 5.9375
Q35.0156 10.8906 35.0156 17.1875
Q35.0156 20.0156 34.5 22.8438
Q33.9844 25.6875 32.7656 28.125
Q31.5469 30.5625 29.4219 32.0312
Q27.2969 33.5 24.2188 33.5
L17.5781 33.5
Q16.7031 33.5 16.7031 34.4219
L16.7031 35.2969
Q16.7031 36.0781 17.5781 36.0781
L23.0938 36.5312
Q26.6094 36.5312 28.9219 39.1562
Q31.25 41.7969 32.3281 45.5781
Q33.4062 49.3594 33.4062 52.7812
Q33.4062 57.5625 31.1562 60.6406
Q28.9062 63.7188 24.3125 63.7188
Q20.5156 63.7188 17.0469 62.2812
Q13.5781 60.8438 11.5312 57.9062
Q11.7188 57.9531 11.8594 57.9844
Q12.0156 58.0156 12.2031 58.0156
Q14.4531 58.0156 15.9688 56.4531
Q17.4844 54.8906 17.4844 52.6875
Q17.4844 50.5312 15.9688 48.9688
Q14.4531 47.4062 12.2031 47.4062
Q10.0156 47.4062 8.45312 48.9688
Q6.89062 50.5312 6.89062 52.6875
Q6.89062 56.9844 9.46875 60.1562
Q12.0625 63.3281 16.1406 64.9688
Q20.2188 66.6094 24.3125 66.6094
Q27.3438 66.6094 30.7031 65.7031
Q34.0781 64.7969 36.8125 63.1094
Q39.5469 61.4219 41.2812 58.7812
Q43.0156 56.1562 43.0156 52.7812
Q43.0156 48.5781 41.1406 45.0156
Q39.2656 41.4531 35.9844 38.8594
Q32.7188 36.2812 28.8125 35.0156
Q33.1562 34.1875 37.0625 31.7344
Q40.9688 29.2969 43.3281 25.4844
Q45.7031 21.6875 45.7031 17.2812
Q45.7031 11.7656 42.6719 7.29688
Q39.6562 2.82812 34.7188 0.3125
Q29.7812 -2.20312 24.3125 -2.20312
Q19.625 -2.20312 14.9062 -0.40625
Q10.2031 1.375 7.20312 4.9375
Q4.20312 8.5 4.20312 13.4844
Q4.20312 15.9688 5.85938 17.625
Q7.51562 19.2812 10.0156 19.2812
Q11.625 19.2812 12.9688 18.5312
Q14.3125 17.7812 15.0625 16.4062
Q15.8281 15.0469 15.8281 13.4844
Q15.8281 11.0312 14.1094 9.375
Q12.4062 7.71875 10.0156 7.71875
z
" id="Cmr10-33"/>
      </defs>
      <g transform="translate(39.103125 303.900699301)scale(0.2 -0.2)">
       <use xlink:href="#Cmr10-33"/>
       <use x="50.0" xlink:href="#Cmr10-2e"/>
       <use x="77.685546875" xlink:href="#Cmr10-30"/>
      </g>
     </g>
    </g>
    <g id="ytick_10">
     <g id="line2d_17">
      <g>
       <use style="stroke:#000000;stroke-width:0.5;" x="67.0" xlink:href="#m728421d6d4" y="265.858741259"/>
      </g>
     </g>
     <g id="text_19">
      <!-- 4.5 -->
      <g transform="translate(39.034375 270.858741259)scale(0.2 -0.2)">
       <use xlink:href="#Cmr10-34"/>
       <use x="50.0" xlink:href="#Cmr10-2e"/>
       <use x="77.685546875" xlink:href="#Cmr10-35"/>
      </g>
     </g>
    </g>
    <g id="ytick_11">
     <g id="line2d_18">
      <g>
       <use style="stroke:#000000;stroke-width:0.5;" x="67.0" xlink:href="#m728421d6d4" y="232.816783217"/>
      </g>
     </g>
     <g id="text_20">
      <!-- 6.0 -->
      <g transform="translate(39.103125 237.816783217)scale(0.2 -0.2)">
       <use xlink:href="#Cmr10-36"/>
       <use x="50.0" xlink:href="#Cmr10-2e"/>
       <use x="77.685546875" xlink:href="#Cmr10-30"/>
      </g>
     </g>
    </g>
    <g id="text_21">
     <!-- $\sigma$ (mm) -->
     <defs>
      <path d="
M18.7031 -1.125
Q14.2656 -1.125 10.8125 1
Q7.375 3.125 5.48438 6.73438
Q3.60938 10.3594 3.60938 14.7031
Q3.60938 19.3438 5.70312 24.4688
Q7.8125 29.5938 11.4531 33.8438
Q15.0938 38.0938 19.6719 40.5938
Q24.2656 43.1094 29.1094 43.1094
L54.2969 43.1094
Q55.3281 43.1094 56.0469 42.4219
Q56.7812 41.75 56.7812 40.5781
Q56.7812 39.1094 55.7344 38.0156
Q54.6875 36.9219 53.2188 36.9219
L41.0156 36.9219
Q43.8906 32.625 43.8906 26.5156
Q43.8906 21.4844 41.9375 16.5938
Q39.9844 11.7188 36.5156 7.6875
Q33.0625 3.65625 28.4375 1.26562
Q23.8281 -1.125 18.7031 -1.125
M18.7969 1.51562
Q24.2656 1.51562 28.4844 5.78125
Q32.7188 10.0625 34.9531 16.2344
Q37.2031 22.4062 37.2031 27.6875
Q37.2031 31.9844 34.8281 34.4531
Q32.4688 36.9219 28.2188 36.9219
Q22.4062 36.9219 18.3281 33.0156
Q14.2656 29.1094 12.2344 23.1875
Q10.2031 17.2812 10.2031 11.8125
Q10.2031 7.51562 12.4688 4.51562
Q14.75 1.51562 18.7969 1.51562" id="Cmmi10-be"/>
     </defs>
     <g transform="translate(29.034375 310.372727273)rotate(-90.0)scale(0.2 -0.2)">
      <use xlink:href="#Cmmi10-be"/>
      <use transform="translate(57.080078125 0.0)" xlink:href="#Cmr10-20"/>
      <use transform="translate(90.380859375 0.0)" xlink:href="#Cmr10-28"/>
      <use transform="translate(129.19921875 0.0)" xlink:href="#Cmr10-6d"/>
      <use transform="translate(212.5 0.0)" xlink:href="#Cmr10-6d"/>
      <use transform="translate(295.80078125 0.0)" xlink:href="#Cmr10-29"/>
     </g>
    </g>
   </g>
  </g>
  <g id="axes_4">
   <g id="patch_17">
    <path d="
M332.4 345.6
L518.4 345.6
L518.4 208.145
L332.4 208.145
z
" style="fill:#ffffff;"/>
   </g>
   <g id="line2d_19">
    <path clip-path="url(#p94b27103a9)" d="
M335.977 322.759
L337.783 322.402
L339.59 322.257
L341.397 322.489
L343.203 322.499
L345.01 322.405
L346.816 322.173
L348.623 321.788
L350.429 321.576
L352.236 320.911
L354.042 320.145
L355.849 319.812
L357.655 318.97
L359.462 318.063
L361.268 317.047
L363.075 315.984
L364.881 315.087
L366.688 313.346
L368.494 312.131
L370.301 310.592
L372.107 308.587
L373.914 306.735
L375.721 304.545
L377.527 302.062
L379.334 299.709
L381.14 296.763
L382.947 293.736
L384.753 290.35
L386.56 287.205
L388.366 283.96
L390.173 280.351
L391.979 276.685
L393.786 272.494
L395.592 268.509
L397.399 264.791
L399.205 260.75
L401.012 256.722
L402.818 253.409
L404.625 249.423
L406.431 245.849
L408.238 242.159
L410.045 239.113
L411.851 235.797
L413.658 233.141
L415.464 230.672
L417.271 228.419
L419.077 226.757
L420.884 225.536
L422.69 224.256
L424.497 223.868
L426.303 223.486
L428.11 223.868
L429.916 224.256
L431.723 225.536
L433.529 226.757
L435.336 228.419
L437.142 230.672
L438.949 233.141
L440.755 235.797
L442.562 239.113
L444.369 242.159
L446.175 245.849
L447.982 249.423
L449.788 253.409
L451.595 256.722
L453.401 260.75
L455.208 264.791
L457.014 268.509
L458.821 272.494
L460.627 276.685
L462.434 280.351
L464.24 283.96
L466.047 287.205
L467.853 290.35
L469.66 293.736
L471.466 296.763
L473.273 299.709
L475.079 302.062
L476.886 304.545
L478.693 306.735
L480.499 308.587
L482.306 310.592
L484.112 312.131
L485.919 313.346
L487.725 315.087
L489.532 315.984
L491.338 317.047
L493.145 318.063
L494.951 318.97
L496.758 319.812
L498.564 320.145
L500.371 320.911
L502.177 321.576
L503.984 321.788
L505.79 322.173
L507.597 322.405
L509.403 322.499
L511.21 322.489
L513.017 322.257
L514.823 322.402" style="fill:none;stroke:#000000;stroke-linecap:square;stroke-width:2;"/>
   </g>
   <g id="patch_18">
    <path d="
M332.4 208.145
L518.4 208.145" style="fill:none;"/>
   </g>
   <g id="patch_19">
    <path d="
M518.4 345.6
L518.4 208.145" style="fill:none;"/>
   </g>
   <g id="patch_20">
    <path d="
M335.977 350.6
L514.823 350.6" style="fill:none;stroke:#000000;stroke-linecap:square;stroke-linejoin:miter;"/>
   </g>
   <g id="patch_21">
    <path d="
M327.4 325.334
L327.4 219.6" style="fill:none;stroke:#000000;stroke-linecap:square;stroke-linejoin:miter;"/>
   </g>
   <g id="matplotlib.axis_7">
    <g id="xtick_5">
     <g id="line2d_20">
      <g>
       <use style="stroke:#000000;stroke-width:0.5;" x="335.976923077" xlink:href="#m93b0483c22" y="350.6"/>
      </g>
     </g>
     <g id="text_22">
      <!-- 0 -->
      <g transform="translate(331.767548077 368.478125)scale(0.2 -0.2)">
       <use xlink:href="#Cmr10-30"/>
      </g>
     </g>
    </g>
    <g id="xtick_6">
     <g id="line2d_21">
      <g>
       <use style="stroke:#000000;stroke-width:0.5;" x="387.075824176" xlink:href="#m93b0483c22" y="350.6"/>
      </g>
     </g>
     <g id="text_23">
      <!-- 10 -->
      <g transform="translate(378.344574176 368.478125)scale(0.2 -0.2)">
       <use xlink:href="#Cmr10-31"/>
       <use x="50.0" xlink:href="#Cmr10-30"/>
      </g>
     </g>
    </g>
    <g id="xtick_7">
     <g id="line2d_22">
      <g>
       <use style="stroke:#000000;stroke-width:0.5;" x="438.174725275" xlink:href="#m93b0483c22" y="350.6"/>
      </g>
     </g>
     <g id="text_24">
      <!-- 20 -->
      <g transform="translate(429.073162775 368.478125)scale(0.2 -0.2)">
       <use xlink:href="#Cmr10-32"/>
       <use x="50.0" xlink:href="#Cmr10-30"/>
      </g>
     </g>
    </g>
    <g id="xtick_8">
     <g id="line2d_23">
      <g>
       <use style="stroke:#000000;stroke-width:0.5;" x="489.273626374" xlink:href="#m93b0483c22" y="350.6"/>
      </g>
     </g>
     <g id="text_25">
      <!-- 30 -->
      <g transform="translate(480.093938874 368.478125)scale(0.2 -0.2)">
       <use xlink:href="#Cmr10-33"/>
       <use x="50.0" xlink:href="#Cmr10-30"/>
      </g>
     </g>
    </g>
    <g id="text_26">
     <!-- space (mm) -->
     <g transform="translate(375.2484375 392.35625)scale(0.2 -0.2)">
      <use xlink:href="#Cmr10-73"/>
      <use x="39.404296875" xlink:href="#Cmr10-70"/>
      <use x="94.921875" xlink:href="#Cmr10-61"/>
      <use x="144.921875" xlink:href="#Cmr10-63"/>
      <use x="189.306640625" xlink:href="#Cmr10-65"/>
      <use x="233.69140625" xlink:href="#Cmr10-20"/>
      <use x="266.9921875" xlink:href="#Cmr10-28"/>
      <use x="305.810546875" xlink:href="#Cmr10-6d"/>
      <use x="389.111328125" xlink:href="#Cmr10-6d"/>
      <use x="472.412109375" xlink:href="#Cmr10-29"/>
     </g>
    </g>
   </g>
   <g id="matplotlib.axis_8">
    <g id="ytick_12">
     <g id="line2d_24">
      <g>
       <use style="stroke:#000000;stroke-width:0.5;" x="327.4" xlink:href="#m728421d6d4" y="325.334265734"/>
      </g>
     </g>
     <g id="text_27">
      <!-- 144 -->
      <g transform="translate(295.7125 330.334265734)scale(0.2 -0.2)">
       <use xlink:href="#Cmr10-31"/>
       <use x="50.0" xlink:href="#Cmr10-34"/>
       <use x="100.0" xlink:href="#Cmr10-34"/>
      </g>
     </g>
    </g>
    <g id="ytick_13">
     <g id="line2d_25">
      <g>
       <use style="stroke:#000000;stroke-width:0.5;" x="327.4" xlink:href="#m728421d6d4" y="290.08951049"/>
      </g>
     </g>
     <g id="text_28">
      <!-- 152 -->
      <g transform="translate(296.153125 295.08951049)scale(0.2 -0.2)">
       <use xlink:href="#Cmr10-31"/>
       <use x="50.0" xlink:href="#Cmr10-35"/>
       <use x="100.0" xlink:href="#Cmr10-32"/>
      </g>
     </g>
    </g>
    <g id="ytick_14">
     <g id="line2d_26">
      <g>
       <use style="stroke:#000000;stroke-width:0.5;" x="327.4" xlink:href="#m728421d6d4" y="254.844755245"/>
      </g>
     </g>
     <g id="text_29">
      <!-- 160 -->
      <g transform="translate(295.9375 259.844755245)scale(0.2 -0.2)">
       <use xlink:href="#Cmr10-31"/>
       <use x="50.0" xlink:href="#Cmr10-36"/>
       <use x="100.0" xlink:href="#Cmr10-30"/>
      </g>
     </g>
    </g>
    <g id="ytick_15">
     <g id="line2d_27">
      <g>
       <use style="stroke:#000000;stroke-width:0.5;" x="327.4" xlink:href="#m728421d6d4" y="219.6"/>
      </g>
     </g>
     <g id="text_30">
      <!-- 168 -->
      <g transform="translate(295.996875 224.6)scale(0.2 -0.2)">
       <use xlink:href="#Cmr10-31"/>
       <use x="50.0" xlink:href="#Cmr10-36"/>
       <use x="100.0" xlink:href="#Cmr10-38"/>
      </g>
     </g>
    </g>
    <g id="text_31">
     <!-- $\tau_2$ (ms) -->
     <g transform="translate(285.5125 309.672727273)rotate(-90.0)scale(0.2 -0.2)">
      <use xlink:href="#Cmmi10-bf"/>
      <use transform="translate(43.701171875 -25.509375)scale(0.7)" xlink:href="#Cmr10-32"/>
      <use transform="translate(93.701171875 0.0)" xlink:href="#Cmr10-20"/>
      <use transform="translate(127.001953125 0.0)" xlink:href="#Cmr10-28"/>
      <use transform="translate(165.8203125 0.0)" xlink:href="#Cmr10-6d"/>
      <use transform="translate(249.12109375 0.0)" xlink:href="#Cmr10-73"/>
      <use transform="translate(288.525390625 0.0)" xlink:href="#Cmr10-29"/>
     </g>
    </g>
   </g>
  </g>
 </g>
 <defs>
  <clipPath id="peeeae3c3e4">
   <rect height="137.454545455" width="186.0" x="332.4" y="43.2"/>
  </clipPath>
  <clipPath id="p94b27103a9">
   <rect height="137.454545455" width="186.0" x="332.4" y="208.145454545"/>
  </clipPath>
  <clipPath id="p7ae276f35f">
   <rect height="137.454545455" width="186.0" x="72.0" y="43.2"/>
  </clipPath>
  <clipPath id="p56f4c19a7e">
   <rect height="137.454545455" width="186.0" x="72.0" y="208.145454545"/>
  </clipPath>
 </defs>
</svg>
